<?xml version="1.0" encoding="UTF-8"?>
<!-- Generated by Pixelmator Pro 3.6.10 -->
<svg width="800" height="400" viewBox="0 0 800 400" xmlns="http://www.w3.org/2000/svg">
    <clipPath id="clipPath1">
        <path clip-rule="evenodd" d="M 0 0 L 800 0 L 800 400 L 0 400 Z"/>
    </clipPath>
    <g id="g1" clip-path="url(#clipPath1)">
        <path id="path1" fill="#ff8000" stroke="none" d="M 0 64.46933 C 1.117333 60.110657 1.738667 55.670654 0.922667 51.02533 C 0.922667 48.332001 0.602667 45.714661 0 43.208008 L 0 0 L 503.779999 0 C 505.595978 0.026672 507.459991 0.034668 509.337311 0 L 784.075989 0 C 785.280029 0.06427 786.485352 0.06427 787.689392 0 L 800 0 L 800 400 L 300.73465 400 C 297.888 399.230682 294.950653 398.841339 292.001343 398.843994 C 289.052002 398.841339 286.115997 399.230682 283.269318 400 L 202.23999 400 C 200.302673 399.649323 198.306656 399.466675 196.269333 399.466675 C 194.230667 399.466675 192.234665 399.649323 190.297348 400 L 119.608002 400 C 117.166801 399.732025 114.703865 399.732025 112.262665 400 L 111.573334 400 C 109.635994 399.649323 107.640007 399.466675 105.602669 399.466675 C 103.563995 399.466675 101.568001 399.649323 99.630669 400 L 31.941332 400 C 29.500132 399.732025 27.037201 399.732025 24.596001 400 L 6.242667 400 C 6.0672 393.342651 3.891947 386.893341 -0 381.489349 L 0 64.46933 Z"/>
        <path id="path2" fill="none" stroke="#ffa800" stroke-width="20" stroke-linecap="round" d="M 395.997314 282.922668 C 379.232025 290.79599 357.339996 285.065338 351.542694 266.411987 C 345.744019 247.758667 360.140015 201.291992 384.201324 196.442673 C 408.262665 191.591995 450.741333 206.461319 467.276001 243.082657 C 483.810669 279.705353 472.717316 330.699982 432.257324 339.876007 C 391.797333 349.052002 312.118683 341.196014 283.730682 284.70932 C 255.341324 228.222672 287.587982 150.166672 345.802643 133.442657 C 404.017334 116.717346 489.422638 142.029327 524.406677 215.565323 C 559.393372 289.101349 533.372009 377.332001 456.79599 402.444 C 453.994659 403.362671 451.140015 404.220001 448.238647 405.013336"/>
        <path id="path3" fill="none" stroke="#ffa800" stroke-width="20" stroke-linecap="round" d="M 343.222656 406.904022 C 292.897339 395.715973 245.630676 366.534668 221.282669 314.966675 C 178.009338 223.317337 222.730667 105.037323 317.045319 70.578674 C 411.361328 36.118652 528.795959 76.866669 579.829346 183.968002 C 616.362671 260.637329 606.432007 344.56131 557.914673 401.082672"/>
        <path id="path4" fill="none" stroke="#ffa800" stroke-width="20" stroke-linecap="round" d="M 214.306656 401.17334 C 196.905334 383.553345 182.186661 362.43335 171.218674 337.682648 C 116.584007 214.392014 171.377335 55.799988 299.574677 3.20932 C 302.482666 2.016388 305.412018 0.874878 308.360016 -0.214661 M 488.917328 -0.29599 C 552.742676 23.486664 608.170654 73.019989 639.917297 145.406662 C 677.26001 230.554672 674.078674 325.926666 633.166687 401.067993"/>
        <path id="path5" fill="none" stroke="#ffa800" stroke-width="20" stroke-linecap="round" d="M 123.096001 400.570679 C 115.82093 388.766693 109.388939 376.463989 103.848 363.754669 C 49.804001 240.049332 77.248001 90.847992 169.00267 -3.065338 M 634.102661 -4.706665 C 666.286682 26.245331 693.26532 64.742676 712.63739 110.450653 C 752.685303 204.93866 755.486633 310.268005 722.366699 401.373322 M 16.305334 402.011993 C 8.907666 383.425323 2.787213 364.354645 -2.013333 344.93335 M -4.016 129.993347 C 6.236 84.133331 23.311998 39.890656 46.953335 -0.58667 M 789.840027 -0.18399 C 798.666687 18.835999 805.989319 39.149323 811.615967 60.757324"/>
        <path id="path6" fill="none" stroke="#ff9900" stroke-width="20" stroke-linecap="round" d="M 395.949341 286.005341 C 378.453339 294.222687 355.605347 288.241333 349.553345 268.773315 C 343.501343 249.305344 358.526642 200.810669 383.640015 195.748001 C 408.751984 190.686661 453.085327 206.203995 470.342651 244.425339 C 487.600006 282.646667 476.021332 335.870667 433.793335 345.446655 C 391.56665 355.024017 308.40799 346.824005 278.779999 287.870667 C 249.151993 228.916 282.806671 147.450668 343.563995 129.996002 C 404.32132 112.541321 493.456024 138.957336 529.968018 215.705338 C 563.15332 285.457336 543.746643 367.878662 479.937347 401.998657 M 330.109344 412.730682 C 324.981323 411.324005 319.90799 409.72934 314.897339 407.950684"/>
        <path id="path7" fill="none" stroke="#ff9900" stroke-width="20" stroke-linecap="round" d="M 293.311981 398.869354 C 259.917328 382.46933 231.094666 356.493317 213.605331 319.449341 C 168.44133 223.796005 215.116013 100.350677 313.550659 64.386658 C 411.984009 28.422668 534.550659 70.950684 587.812012 182.728012 C 624.723999 260.197327 616.186707 344.76001 569.65863 403.598663"/>
        <path id="path8" fill="none" stroke="#ff9900" stroke-width="20" stroke-linecap="round" d="M 197.093338 399.475983 C 182.929337 383.235992 170.806656 364.489349 161.35466 343.157349 C 106.096001 218.458664 158.093338 59.160004 283.131989 -0.522675 M 514.946655 -0.241333 C 572.182678 27.112 621.100037 75.391998 650.522644 142.482666 C 688.194641 228.378662 686.35199 324.241333 647.629333 401.371979"/>
        <path id="path9" fill="none" stroke="#ff9900" stroke-width="20" stroke-linecap="round" d="M 105.602669 399.466675 C 100.242134 390.029327 95.381737 380.31601 91.041328 370.368011 C 36.16 244.748001 61.793335 93.936005 151.426666 -4.405334 M 656.133362 -2.403992 C 684.587952 27.720001 708.589355 63.93335 726.418701 106 C 766.977295 201.693344 770.931946 308.042664 739.546631 401.141327 M 1.161333 52.747986 C 8.46108 34.389465 16.917601 16.512268 26.480001 -0.776001"/>
    </g>
    <g id="icons8-time">
        <path id="path10" fill="#000000" stroke="none" opacity="0.35" d="M 521 203.199997 C 521 268.811432 467.811432 322 402.200012 322 C 336.588562 322 283.399994 268.811432 283.399994 203.199997 C 283.399994 137.588562 336.588562 84.399994 402.200012 84.399994 C 467.811432 84.399994 521 137.588562 521 203.199997 Z"/>
        <path id="path11" fill="#f2f2f2" stroke="none" d="M 515.599976 197.800003 C 515.599976 263.411438 462.411438 316.600006 396.799988 316.600006 C 331.188568 316.600006 278 263.411438 278 197.800003 C 278 132.188568 331.188568 79 396.799988 79 C 462.411438 79 515.599976 132.188568 515.599976 197.800003 Z"/>
        <path id="path12" fill="#f2f2f2" stroke="none" d="M 396.799988 308.5 C 335.761108 308.5 286.100006 258.838928 286.100006 197.800003 C 286.100006 136.761108 335.761108 87.100006 396.799988 87.100006 C 457.838898 87.100006 507.5 136.761108 507.5 197.800003 C 507.5 258.838928 457.838898 308.5 396.799988 308.5 Z"/>
        <path id="path13" fill="#70bfff" stroke="none" d="M 499.470215 197.800003 C 499.470215 254.503189 453.503204 300.470215 396.799988 300.470215 C 340.096802 300.470215 294.129791 254.503189 294.129791 197.800003 C 294.129791 141.096802 340.096802 95.129791 396.799988 95.129791 C 453.503204 95.129791 499.470215 141.096802 499.470215 197.800003 Z"/>
        <path id="path14" fill="#d9eeff" stroke="none" d="M 477.870209 197.800003 C 477.870209 242.573837 441.573822 278.870209 396.799988 278.870209 C 352.026154 278.870209 315.729797 242.573837 315.729797 197.800003 C 315.729797 153.026169 352.026154 116.729797 396.799988 116.729797 C 441.573822 116.729797 477.870209 153.026169 477.870209 197.800003 Z"/>
        <path id="path15" fill="none" stroke="#40396e" stroke-width="8.1" d="M 498.049988 197.800003 C 498.049988 253.718826 452.718842 299.049988 396.799988 299.049988 C 340.881165 299.049988 295.549988 253.718826 295.549988 197.800003 C 295.549988 141.881165 340.881165 96.549988 396.799988 96.549988 C 452.718842 96.549988 498.049988 141.881165 498.049988 197.800003 Z"/>
        <path id="path16" fill="#707cc0" stroke="none" d="M 337.399994 197.800003 C 337.399994 200.782333 334.98233 203.199997 332 203.199997 C 329.01767 203.199997 326.600006 200.782333 326.600006 197.800003 C 326.600006 194.817673 329.01767 192.399994 332 192.399994 C 334.98233 192.399994 337.399994 194.817673 337.399994 197.800003 Z"/>
        <path id="path17" fill="#707cc0" stroke="none" d="M 467 197.800003 C 467 200.782333 464.582336 203.199997 461.600006 203.199997 C 458.617676 203.199997 456.200012 200.782333 456.200012 197.800003 C 456.200012 194.817673 458.617676 192.399994 461.600006 192.399994 C 464.582336 192.399994 467 194.817673 467 197.800003 Z"/>
        <path id="path18" fill="#707cc0" stroke="none" d="M 402.200012 133 C 402.200012 135.98233 399.782349 138.399994 396.799988 138.399994 C 393.817657 138.399994 391.399994 135.98233 391.399994 133 C 391.399994 130.01767 393.817657 127.600006 396.799988 127.600006 C 399.782349 127.600006 402.200012 130.01767 402.200012 133 Z"/>
        <path id="path19" fill="#707cc0" stroke="none" d="M 402.200012 262.600006 C 402.200012 265.582336 399.782349 268 396.799988 268 C 393.817657 268 391.399994 265.582336 391.399994 262.600006 C 391.399994 259.617676 393.817657 257.200012 396.799988 257.200012 C 399.782349 257.200012 402.200012 259.617676 402.200012 262.600006 Z"/>
        <path id="path20" fill="none" stroke="#40396e" stroke-width="8.1" stroke-linecap="round" stroke-linejoin="round" d="M 435.950012 145.149994 L 395.450012 197.800003 L 429.200012 232.899994"/>
        <path id="path21" fill="#40396e" stroke="none" d="M 407.600006 197.800003 C 407.600006 203.764679 402.764679 208.600006 396.799988 208.600006 C 390.835327 208.600006 386 203.764679 386 197.800003 C 386 191.835327 390.835327 187 396.799988 187 C 402.764679 187 407.600006 191.835327 407.600006 197.800003 Z"/>
    </g>
</svg>
