<?xml version="1.0" standalone="no"?><!DOCTYPE svg PUBLIC "-//W3C//DTD SVG 1.1//EN" "http://www.w3.org/Graphics/SVG/1.1/DTD/svg11.dtd"><svg t="1740921927448" class="icon" viewBox="0 0 1024 1024" version="1.1" xmlns="http://www.w3.org/2000/svg" p-id="1601" width="20" height="20" xmlns:xlink="http://www.w3.org/1999/xlink"><path d="M853.333333 972.8H170.666667c-75.9296 0-119.466667-43.554133-119.466667-119.466667V170.666667c0-75.9296 43.537067-119.466667 119.466667-119.466667h682.666666c75.912533 0 119.466667 43.537067 119.466667 119.466667v682.666666c0 75.912533-43.554133 119.466667-119.466667 119.466667zM170.666667 119.466667c-37.802667 0-51.2 13.397333-51.2 51.2v682.666666c0 37.802667 13.397333 51.2 51.2 51.2h682.666666c37.802667 0 51.2-13.397333 51.2-51.2V170.666667c0-37.802667-13.397333-51.2-51.2-51.2H170.666667z" p-id="1602" fill="#575E75"></path><path d="M682.666667 870.4a17.066667 17.066667 0 0 1-17.066667-17.066667v-153.6H358.4v153.6a17.066667 17.066667 0 1 1-34.133333 0v-153.6H169.813333a17.066667 17.066667 0 1 1 0-34.133333H324.266667V358.4H169.813333a17.066667 17.066667 0 0 1 0-34.133333H324.266667v-152.746667a17.066667 17.066667 0 0 1 34.133333 0V324.266667h307.2v-152.746667a17.066667 17.066667 0 1 1 34.133333 0V324.266667h153.6a17.066667 17.066667 0 1 1 0 34.133333h-153.6v307.2h153.6a17.066667 17.066667 0 1 1 0 34.133333h-153.6v153.6a17.066667 17.066667 0 0 1-17.066666 17.066667zM358.4 665.6h307.2V358.4H358.4v307.2z" p-id="1603" fill="#575E75"></path></svg>