<?xml version="1.0" encoding="UTF-8"?>
<!-- Generated by Pixelmator Pro 3.6.16 -->
<svg width="20" height="20" viewBox="0 0 20 20" xmlns="http://www.w3.org/2000/svg">
    <g id="Page-1">
        <g id="oval">
            <path id="oval-icon" fill="none" stroke="#575e75" d="M 16 10 C 16 13.313709 13.313709 16 10 16 C 6.686292 16 4 13.313709 4 10 C 4 6.686293 6.686292 4 10 4 C 13.313709 4 16 6.686293 16 10 Z"/>
            <path id="path1" fill="#575e75" fill-rule="evenodd" stroke="none" d="M 2 10 C 2 10.552285 2.447715 11 3 11 L 17 11 C 17.552284 11 18 10.552285 18 10 C 18 9.447716 17.552284 9 17 9 L 3 9 C 2.447715 9 2 9.447716 2 10 Z"/>
            <path id="path2" fill="#575e75" fill-rule="evenodd" stroke="none" d="M 9 17 C 9 17.552284 9.447715 18 10 18 C 10.552284 18 11 17.552284 11 17 L 11 3 C 11 2.447716 10.552284 2 10 2 C 9.447715 2 9 2.447716 9 3 Z"/>
        </g>
    </g>
</svg>
