<?xml version="1.0" encoding="UTF-8"?>
<!-- Generated by Pixelmator Pro 3.6.13 -->
<svg width="20" height="20" viewBox="0 0 20 20" xmlns="http://www.w3.org/2000/svg">
    <path id="path1" fill="#ffffff" stroke="none" d="M 4.054167 2.5 L 5.109167 2.5 C 5.385309 2.5 5.609167 2.723858 5.609167 3 L 5.609167 5.108334 C 5.609167 5.384476 5.385309 5.608334 5.109167 5.608334 L 3 5.608334 C 2.723858 5.608334 2.5 5.384476 2.5 5.108334 L 2.5 4.055 C 2.5 3.195833 3.195833 2.5 4.054167 2.5 Z M 6.996667 2.5 L 9.105833 2.5 C 9.381975 2.5 9.605833 2.723858 9.605833 3 L 9.605833 5.108334 C 9.605833 5.384476 9.381975 5.608334 9.105833 5.608334 L 6.9975 5.608334 C 6.721358 5.608334 6.4975 5.384476 6.4975 5.108334 L 6.4975 3 C 6.4975 2.723858 6.721358 2.5 6.9975 2.5 Z M 10.894166 2.5 L 13.002501 2.5 C 13.278643 2.5 13.502501 2.723858 13.502501 3 L 13.502501 5.108334 C 13.502501 5.384476 13.278643 5.608334 13.002501 5.608334 L 10.894166 5.608334 C 10.618024 5.608334 10.394167 5.384476 10.394167 5.108334 L 10.394167 3 C 10.394167 2.723858 10.618024 2.5 10.894166 2.5 Z M 14.890833 2.5 L 15.945834 2.5 C 16.804167 2.5 17.5 3.195833 17.5 4.054167 L 17.5 5.109166 C 17.5 5.385309 17.276142 5.609167 17 5.609167 L 14.891666 5.609167 C 14.615524 5.609167 14.391666 5.385309 14.391666 5.109166 L 14.391666 3 C 14.391666 2.723858 14.615524 2.5 14.891666 2.5 Z M 3 14.391666 L 5.108333 14.391666 C 5.384476 14.391666 5.608334 14.615524 5.608334 14.891666 L 5.608334 17 C 5.608334 17.276142 5.384476 17.5 5.108333 17.5 L 4.055 17.5 C 3.642665 17.500221 3.247142 17.336576 2.9555 17.04509 C 2.663857 16.753603 2.5 16.358168 2.5 15.945834 L 2.5 14.890833 C 2.5 14.614691 2.723858 14.390833 3 14.390833 Z M 6.996667 14.391666 L 9.105833 14.391666 C 9.381975 14.391666 9.605833 14.615524 9.605833 14.891666 L 9.605833 17 C 9.605833 17.276142 9.381975 17.5 9.105833 17.5 L 6.9975 17.5 C 6.721358 17.5 6.4975 17.276142 6.4975 17 L 6.4975 14.891666 C 6.4975 14.615524 6.721358 14.391666 6.9975 14.391666 Z M 10.894166 14.391666 L 13.002501 14.391666 C 13.278643 14.391666 13.502501 14.615524 13.502501 14.891666 L 13.502501 17 C 13.502501 17.276142 13.278643 17.5 13.002501 17.5 L 10.894166 17.5 C 10.618024 17.5 10.394167 17.276142 10.394167 17 L 10.394167 14.891666 C 10.394167 14.615524 10.618024 14.391666 10.894166 14.391666 Z M 14.890833 14.391666 L 17 14.391666 C 17.276142 14.391666 17.5 14.615524 17.5 14.891666 L 17.5 15.945834 C 17.5 16.804167 16.804167 17.5 15.945834 17.5 L 14.890833 17.5 C 14.614691 17.5 14.390833 17.276142 14.390833 17 L 14.390833 14.891666 C 14.390833 14.615524 14.614691 14.391666 14.890833 14.391666 Z M 3 10.393333 L 5.108333 10.393333 C 5.384476 10.393333 5.608334 10.61719 5.608334 10.893333 L 5.608334 13.001666 C 5.608334 13.277809 5.384476 13.501667 5.108333 13.501667 L 3 13.501667 C 2.723858 13.501667 2.5 13.277809 2.5 13.001666 L 2.5 10.893333 C 2.5 10.61719 2.723858 10.393333 3 10.393333 Z M 6.996667 10.393333 L 9.105833 10.393333 C 9.381975 10.393333 9.605833 10.61719 9.605833 10.893333 L 9.605833 13.001666 C 9.605833 13.277809 9.381975 13.501667 9.105833 13.501667 L 6.9975 13.501667 C 6.721358 13.501667 6.4975 13.277809 6.4975 13.001666 L 6.4975 10.893333 C 6.4975 10.61719 6.721358 10.393333 6.9975 10.393333 Z M 10.894166 10.393333 L 13.002501 10.393333 C 13.278643 10.393333 13.502501 10.61719 13.502501 10.893333 L 13.502501 13.001666 C 13.502501 13.277809 13.278643 13.501667 13.002501 13.501667 L 10.894166 13.501667 C 10.618024 13.501667 10.394167 13.277809 10.394167 13.001666 L 10.394167 10.893333 C 10.394167 10.61719 10.618024 10.393333 10.894166 10.393333 Z M 14.890833 10.393333 L 17 10.393333 C 17.276142 10.393333 17.5 10.61719 17.5 10.893333 L 17.5 13.001666 C 17.5 13.277809 17.276142 13.501667 17 13.501667 L 14.891666 13.501667 C 14.615524 13.501667 14.391666 13.277809 14.391666 13.001666 L 14.391666 10.893333 C 14.391666 10.61719 14.615524 10.393333 14.891666 10.393333 Z M 3 6.496667 L 5.108333 6.496667 C 5.384476 6.496667 5.608334 6.720525 5.608334 6.996667 L 5.608334 9.105833 C 5.608334 9.381975 5.384476 9.605833 5.108333 9.605833 L 3 9.605833 C 2.723858 9.605833 2.5 9.381975 2.5 9.105833 L 2.5 6.9975 C 2.5 6.721357 2.723858 6.497499 3 6.497499 Z M 6.996667 6.496667 L 9.105833 6.496667 C 9.381975 6.496667 9.605833 6.720525 9.605833 6.996667 L 9.605833 9.105833 C 9.605833 9.381975 9.381975 9.605833 9.105833 9.605833 L 6.9975 9.605833 C 6.721358 9.605833 6.4975 9.381975 6.4975 9.105833 L 6.4975 6.9975 C 6.4975 6.721357 6.721358 6.497499 6.9975 6.497499 Z M 10.894166 6.496667 L 13.002501 6.496667 C 13.278643 6.496667 13.502501 6.720525 13.502501 6.996667 L 13.502501 9.105833 C 13.502501 9.381975 13.278643 9.605833 13.002501 9.605833 L 10.894166 9.605833 C 10.618024 9.605833 10.394167 9.381975 10.394167 9.105833 L 10.394167 6.9975 C 10.394167 6.721357 10.618024 6.497499 10.894166 6.497499 Z M 14.890833 6.496667 L 17 6.496667 C 17.276142 6.496667 17.5 6.720525 17.5 6.996667 L 17.5 9.105833 C 17.5 9.381975 17.276142 9.605833 17 9.605833 L 14.891666 9.605833 C 14.615524 9.605833 14.391666 9.381975 14.391666 9.105833 L 14.391666 6.9975 C 14.391666 6.721357 14.615524 6.497499 14.891666 6.497499 Z"/>
</svg>
