<?xml version="1.0" encoding="UTF-8"?>
<!-- Generated by Pixelmator Pro 3.5.7 -->
<svg width="20" height="20" viewBox="0 0 20 20" xmlns="http://www.w3.org/2000/svg">
    <g id="Page-1">
        <g id="select">
            <path id="path1" fill="none" stroke="#575e75" stroke-width="2" stroke-linecap="round" stroke-dasharray="0 4" stroke-dashoffset="0" d="M 2 13 C 2 14.104569 2.895431 15 4 15 L 13 15 C 14.104569 15 15 14.104569 15 13 L 15 4 C 15 2.895432 14.104569 2 13 2 L 4 2 C 2.895431 2 2 2.895432 2 4 Z"/>
            <path id="select-icon" fill="#575e75" fill-rule="evenodd" stroke="none" d="M 13.084807 15.751913 L 14.269294 18.391075 C 14.502528 18.912849 15.11051 19.143276 15.62677 18.907551 C 16.14303 18.670502 16.371023 18.056028 16.137789 17.53558 L 14.966963 14.925728 L 17.925852 14.925728 C 18.513048 14.925728 18.793768 14.212194 18.362387 13.81905 L 11.079101 7.170043 C 10.667033 6.793491 10 7.083244 10 7.638498 L 10 17.502872 C 10 18.090038 10.730131 18.365749 11.122883 17.927929 L 13.084807 15.751913 Z"/>
        </g>
    </g>
</svg>
