<?xml version="1.0" encoding="UTF-8"?>
<!-- Generated by Pixelmator Pro 3.7 -->
<svg width="46" height="47" viewBox="0 0 46 47" xmlns="http://www.w3.org/2000/svg">
    <g id="Group-">
        <path id="Shape" fill="#231f20" stroke="#231f20" stroke-width="7.766284" stroke-linecap="round" stroke-linejoin="round" opacity="0.25" d="M 38.480843 4.429108 L 7.415709 4.429108 C 5.279981 4.429108 3.532567 6.176521 3.532567 8.312252 L 3.532567 39.377384 C 3.532567 41.513115 5.279981 43.260525 7.415709 43.260525 L 38.480843 43.260525 C 40.616573 43.260525 42.363983 41.513115 42.363983 39.377384 L 42.363983 8.312252 C 42.363983 6.176521 40.616573 4.429108 38.480843 4.429108 Z"/>
        <path id="path1" fill="#e6e7e8" stroke="#7c87a5" stroke-width="1.941571" stroke-linecap="round" stroke-linejoin="round" d="M 38.480843 4.429108 L 7.415709 4.429108 C 5.279981 4.429108 3.532567 6.176521 3.532567 8.312252 L 3.532567 39.377384 C 3.532567 41.513115 5.279981 43.260525 7.415709 43.260525 L 38.480843 43.260525 C 40.616573 43.260525 42.363983 41.513115 42.363983 39.377384 L 42.363983 8.312252 C 42.363983 6.176521 40.616573 4.429108 38.480843 4.429108 Z"/>
        <path id="Oval" fill="#231f20" stroke="#231f20" stroke-width="5.824713" opacity="0.1" d="M 30.71456 23.844818 C 30.71456 28.134024 27.237476 31.611101 22.948277 31.611101 C 18.659075 31.611101 15.181993 28.134024 15.181993 23.844818 C 15.181993 19.555622 18.659075 16.078535 22.948277 16.078535 C 27.237476 16.078535 30.71456 19.555622 30.71456 23.844818 Z"/>
        <path id="path2" fill="#414757" stroke="#414757" stroke-width="1.941571" d="M 30.71456 23.844818 C 30.71456 28.134024 27.237476 31.611101 22.948277 31.611101 C 18.659075 31.611101 15.181993 28.134024 15.181993 23.844818 C 15.181993 19.555622 18.659075 16.078535 22.948277 16.078535 C 27.237476 16.078535 30.71456 19.555622 30.71456 23.844818 Z"/>
    </g>
</svg>
