<?xml version="1.0" encoding="UTF-8"?>
<!-- Generated by Pixelmator Pro 3.7.1 -->
<svg width="147" height="104" viewBox="0 0 147 104" xmlns="http://www.w3.org/2000/svg">
    <path id="--2" fill="#74fbea" fill-rule="evenodd" stroke="#000000" stroke-width="6.363708" stroke-opacity="0.145749" stroke-linecap="round" stroke-linejoin="round" d="M 5.642472 103.183418 C 3.299419 103.183418 1.4 101.283997 1.4 98.940948 L 1.4 4.545952 C 1.4 2.202896 3.299419 0.303482 5.642472 0.303482 L 141.340942 0.303482 C 143.68399 0.303482 145.58342 2.202896 145.58342 4.545952 L 145.58342 98.940948 C 145.58342 101.283997 143.68399 103.183418 141.340942 103.183418 L 5.642472 103.183418 Z M 15.733593 72.727806 C 11.047489 72.727806 7.248651 68.92897 7.248651 64.242859 L 7.248651 15.212753 C 7.248651 10.526649 11.047489 6.727806 15.733593 6.727806 L 130.763702 6.727806 C 135.449814 6.727806 139.248642 10.526649 139.248642 15.212753 L 139.248642 64.242859 C 139.248642 68.92897 135.449814 72.727806 130.763702 72.727806 L 15.733593 72.727806 Z"/>
</svg>
