<?xml version="1.0" encoding="UTF-8"?>
<!-- Generated by Pixelmator Pro 3.7 -->
<svg width="145" height="104" viewBox="0 0 145 104" xmlns="http://www.w3.org/2000/svg">
    <path id="--2" fill="#74fbea" fill-rule="evenodd" stroke="#000000" stroke-width="6.363708" stroke-opacity="0.145749" stroke-linecap="round" stroke-linejoin="round" d="M 5.122019 103.183418 C 2.778966 103.183418 0.879547 101.283997 0.879547 98.940948 L 0.879547 4.545952 C 0.879547 2.202896 2.778966 0.303482 5.122019 0.303482 L 139.820496 0.303482 C 142.163544 0.303482 144.062973 2.202896 144.062973 4.545952 L 144.062973 98.940948 C 144.062973 101.283997 142.163544 103.183418 139.820496 103.183418 L 5.122019 103.183418 Z M 17.21314 71.727806 C 12.527037 71.727806 8.728198 67.92897 8.728198 63.242863 L 8.728198 16.212753 C 8.728198 11.526649 12.527037 7.727806 17.21314 7.727806 L 128.243256 7.727806 C 132.929367 7.727806 136.728195 11.526649 136.728195 16.212753 L 136.728195 63.242863 C 136.728195 67.92897 132.929367 71.727806 128.243256 71.727806 L 17.21314 71.727806 Z"/>
</svg>
