<?xml version="1.0" encoding="UTF-8"?>
<!-- Generated by Pixelmator Pro 3.7 -->
<svg width="600" height="370" viewBox="0 0 600 370" xmlns="http://www.w3.org/2000/svg">
    <g id="g1">
        <path id="path1" fill="#fe5257" stroke="none" d="M -0.03613 370 L -0.03613 -0.044556 L 600.159912 -0.044556 C 600.159912 -0.044556 600.159912 162.220398 600.159912 229.383057 C 600.159912 281.96347 600.159912 370 600.159912 370 Z"/>
        <g id="g2">
            <path id="path2" fill="#000000" fill-opacity="0.07059" fill-rule="evenodd" stroke="none" d="M 507.942871 92.388397 L 507.942871 0 L 600.331238 92.388397 Z"/>
            <path id="path3" fill="#000000" fill-opacity="0.07059" fill-rule="evenodd" stroke="none" d="M 507.942871 184.786438 L 507.942871 92.398071 L 600.331238 184.786438 Z"/>
            <path id="path4" fill="#000000" fill-opacity="0.07059" fill-rule="evenodd" stroke="none" d="M 507.942871 277.18454 L 507.942871 184.796173 L 600.331238 277.18454 Z"/>
            <path id="path5" fill="#000000" fill-opacity="0.07059" fill-rule="evenodd" stroke="none" d="M 507.942871 369.582611 L 507.942871 277.194214 L 600.331238 369.582611 Z"/>
            <path id="path6" fill="#000000" fill-opacity="0.07059" fill-rule="evenodd" stroke="none" d="M 415.554596 92.388397 L 415.554596 0 L 507.942963 92.388397 Z"/>
            <path id="path7" fill="#000000" fill-opacity="0.07059" fill-rule="evenodd" stroke="none" d="M 415.554596 184.786438 L 415.554596 92.398071 L 507.942963 184.786438 Z"/>
            <path id="path8" fill="#000000" fill-opacity="0.07059" fill-rule="evenodd" stroke="none" d="M 415.554596 277.18454 L 415.554596 184.796173 L 507.942963 277.18454 Z"/>
            <path id="path9" fill="#000000" fill-opacity="0.07059" fill-rule="evenodd" stroke="none" d="M 323.166229 92.388397 L 323.166229 0 L 415.554596 92.388397 Z"/>
            <path id="path10" fill="#000000" fill-opacity="0.07059" fill-rule="evenodd" stroke="none" d="M 323.166229 184.786438 L 323.166229 92.398071 L 415.554596 184.786438 Z"/>
            <path id="path11" fill="#000000" fill-opacity="0.07059" fill-rule="evenodd" stroke="none" d="M 230.748764 92.388397 L 230.748764 0 L 323.137115 92.388397 Z"/>
            <path id="path12" fill="#000000" fill-opacity="0.07059" fill-rule="evenodd" stroke="none" d="M 276.942993 138.572891 L 276.942993 92.398102 L 323.156555 138.572891 Z"/>
            <path id="path13" fill="#000000" fill-opacity="0.07059" fill-rule="evenodd" stroke="none" d="M 276.942993 184.747665 L 276.942993 138.572891 L 323.156555 184.747665 Z"/>
            <path id="path14" fill="#000000" fill-opacity="0.07059" fill-rule="evenodd" stroke="none" d="M 230.748764 184.757355 L 230.748764 138.582565 L 276.962341 184.757355 Z"/>
            <path id="path15" fill="#000000" fill-opacity="0.07059" fill-rule="evenodd" stroke="none" d="M 230.748764 138.572891 L 230.748764 92.398102 L 276.962341 138.572891 Z"/>
            <path id="path16" fill="#000000" fill-opacity="0.07059" fill-rule="evenodd" stroke="none" d="M 369.350708 230.985504 L 369.350708 184.810745 L 415.564301 230.985504 Z"/>
            <path id="path17" fill="#000000" fill-opacity="0.07059" fill-rule="evenodd" stroke="none" d="M 369.350708 277.160278 L 369.350708 230.985504 L 415.564301 277.160278 Z"/>
            <path id="path18" fill="#000000" fill-opacity="0.07059" fill-rule="evenodd" stroke="none" d="M 323.156525 277.169983 L 323.156525 230.995209 L 369.370117 277.169983 Z"/>
            <path id="path19" fill="#000000" fill-opacity="0.07059" fill-rule="evenodd" stroke="none" d="M 323.156525 230.985504 L 323.156525 184.810745 L 369.370117 230.985504 Z"/>
            <path id="path20" fill="#000000" fill-opacity="0.07059" fill-rule="evenodd" stroke="none" d="M 276.933289 230.985504 L 276.933289 184.810745 L 323.146851 230.985504 Z"/>
            <path id="path21" fill="#000000" fill-opacity="0.07059" fill-rule="evenodd" stroke="none" d="M 276.933289 277.160278 L 276.933289 230.985504 L 323.146851 277.160278 Z"/>
            <path id="path22" fill="#000000" fill-opacity="0.07059" fill-rule="evenodd" stroke="none" d="M 230.739029 277.169983 L 230.739029 230.995209 L 276.952606 277.169983 Z"/>
            <path id="path23" fill="#000000" fill-opacity="0.07059" fill-rule="evenodd" stroke="none" d="M 230.739029 230.985504 L 230.739029 184.810745 L 276.952606 230.985504 Z"/>
            <path id="path24" fill="#000000" fill-opacity="0.07059" fill-rule="evenodd" stroke="none" d="M 276.933289 323.401367 L 276.933289 277.226563 L 323.146851 323.401367 Z"/>
            <path id="path25" fill="#000000" fill-opacity="0.07059" fill-rule="evenodd" stroke="none" d="M 276.933289 369.576141 L 276.933289 323.401367 L 323.146851 369.576141 Z"/>
            <path id="path26" fill="#000000" fill-opacity="0.07059" fill-rule="evenodd" stroke="none" d="M 230.739029 369.585815 L 230.739029 323.411011 L 276.952606 369.585815 Z"/>
            <path id="path27" fill="#000000" fill-opacity="0.07059" fill-rule="evenodd" stroke="none" d="M 230.739029 323.401367 L 230.739029 277.226563 L 276.952606 323.401367 Z"/>
            <path id="path28" fill="#000000" fill-opacity="0.07059" fill-rule="evenodd" stroke="none" d="M 369.350708 323.383575 L 369.350708 277.208801 L 415.564301 323.383575 Z"/>
            <path id="path29" fill="#000000" fill-opacity="0.07059" fill-rule="evenodd" stroke="none" d="M 369.350708 369.55835 L 369.350708 323.383575 L 415.564301 369.55835 Z"/>
            <path id="path30" fill="#000000" fill-opacity="0.07059" fill-rule="evenodd" stroke="none" d="M 323.156525 369.568054 L 323.156525 323.39328 L 369.370117 369.568054 Z"/>
            <path id="path31" fill="#000000" fill-opacity="0.07059" fill-rule="evenodd" stroke="none" d="M 323.156525 323.383575 L 323.156525 277.208801 L 369.370117 323.383575 Z"/>
            <path id="path32" fill="#000000" fill-opacity="0.07059" fill-rule="evenodd" stroke="none" d="M 461.768188 369.55835 L 461.768188 323.383575 L 507.98175 369.55835 Z"/>
            <path id="path33" fill="#000000" fill-opacity="0.07059" fill-rule="evenodd" stroke="none" d="M 415.574036 369.568054 L 415.574036 323.39328 L 461.787598 369.568054 Z"/>
            <path id="path34" fill="#000000" fill-opacity="0.07059" fill-rule="evenodd" stroke="none" d="M 415.574036 323.383575 L 415.574036 277.208801 L 461.787598 323.383575 Z"/>
            <path id="path35" fill="#000000" fill-opacity="0.07059" fill-rule="evenodd" stroke="none" d="M 184.515747 138.585846 L 184.515747 92.411041 L 230.729324 138.585846 Z"/>
            <path id="path36" fill="#000000" fill-opacity="0.07059" fill-rule="evenodd" stroke="none" d="M 184.515747 184.760605 L 184.515747 138.585846 L 230.729324 184.760605 Z"/>
            <path id="path37" fill="#000000" fill-opacity="0.07059" fill-rule="evenodd" stroke="none" d="M 138.321594 184.770309 L 138.321594 138.59552 L 184.535187 184.770309 Z"/>
            <path id="path38" fill="#000000" fill-opacity="0.07059" fill-rule="evenodd" stroke="none" d="M 138.321594 138.585846 L 138.321594 92.411041 L 184.535187 138.585846 Z"/>
            <path id="path39" fill="#000000" fill-opacity="0.07059" fill-rule="evenodd" stroke="none" d="M 184.506042 46.187744 L 184.506042 0.01297 L 230.71962 46.187744 Z"/>
            <path id="path40" fill="#000000" fill-opacity="0.07059" fill-rule="evenodd" stroke="none" d="M 184.506042 92.362549 L 184.506042 46.187744 L 230.71962 92.362549 Z"/>
            <path id="path41" fill="#000000" fill-opacity="0.07059" fill-rule="evenodd" stroke="none" d="M 138.311905 92.372223 L 138.311905 46.197449 L 184.525482 92.372223 Z"/>
            <path id="path42" fill="#000000" fill-opacity="0.07059" fill-rule="evenodd" stroke="none" d="M 138.311905 46.187744 L 138.311905 0.01297 L 184.525482 46.187744 Z"/>
            <path id="path43" fill="#000000" fill-opacity="0.07059" fill-rule="evenodd" stroke="none" d="M 92.088615 46.187744 L 92.088615 0.01297 L 138.3022 46.187744 Z"/>
            <path id="path44" fill="#000000" fill-opacity="0.07059" fill-rule="evenodd" stroke="none" d="M 92.088615 92.362549 L 92.088615 46.187744 L 138.3022 92.362549 Z"/>
            <path id="path45" fill="#000000" fill-opacity="0.07059" fill-rule="evenodd" stroke="none" d="M 45.894413 92.372223 L 45.894413 46.197449 L 92.107994 92.372223 Z"/>
            <path id="path46" fill="#000000" fill-opacity="0.07059" fill-rule="evenodd" stroke="none" d="M 45.894413 46.187744 L 45.894413 0.01297 L 92.107994 46.187744 Z"/>
            <path id="path47" fill="#000000" fill-opacity="0.07059" fill-rule="evenodd" stroke="none" d="M -0.328868 46.187744 L -0.328868 0.01297 L 45.884735 46.187744 Z"/>
            <path id="path48" fill="#000000" fill-opacity="0.07059" fill-rule="evenodd" stroke="none" d="M -0.328868 92.362549 L -0.328868 46.187744 L 45.884735 92.362549 Z"/>
            <path id="path49" fill="#000000" fill-opacity="0.07059" fill-rule="evenodd" stroke="none" d="M 92.093483 138.585846 L 92.093483 92.411041 L 138.307068 138.585846 Z"/>
            <path id="path50" fill="#000000" fill-opacity="0.07059" fill-rule="evenodd" stroke="none" d="M 92.093483 184.760605 L 92.093483 138.585846 L 138.307068 184.760605 Z"/>
            <path id="path51" fill="#000000" fill-opacity="0.07059" fill-rule="evenodd" stroke="none" d="M 45.899284 184.770309 L 45.899284 138.59552 L 92.112869 184.770309 Z"/>
            <path id="path52" fill="#000000" fill-opacity="0.07059" fill-rule="evenodd" stroke="none" d="M 45.899284 138.585846 L 45.899284 92.411041 L 92.112869 138.585846 Z"/>
            <path id="path53" fill="#000000" fill-opacity="0.07059" fill-rule="evenodd" stroke="none" d="M 184.517395 230.983887 L 184.517395 184.809082 L 230.730972 230.983887 Z"/>
            <path id="path54" fill="#000000" fill-opacity="0.07059" fill-rule="evenodd" stroke="none" d="M 184.517395 277.158661 L 184.517395 230.983887 L 230.730972 277.158661 Z"/>
            <path id="path55" fill="#000000" fill-opacity="0.07059" fill-rule="evenodd" stroke="none" d="M 138.323227 277.168365 L 138.323227 230.993576 L 184.536835 277.168365 Z"/>
            <path id="path56" fill="#000000" fill-opacity="0.07059" fill-rule="evenodd" stroke="none" d="M 138.323227 230.983887 L 138.323227 184.809082 L 184.536835 230.983887 Z"/>
            <path id="path57" fill="#000000" fill-opacity="0.07059" fill-rule="evenodd" stroke="none" d="M 22.791609 115.478226 L 22.791609 92.390839 L 45.917801 115.478226 Z"/>
            <path id="path58" fill="#000000" fill-opacity="0.07059" fill-rule="evenodd" stroke="none" d="M 22.791609 138.570465 L 22.791609 115.483078 L 45.917801 138.570465 Z"/>
            <path id="path59" fill="#000000" fill-opacity="0.07059" fill-rule="evenodd" stroke="none" d="M -0.310229 138.575333 L -0.310229 115.48793 L 22.815952 138.575333 Z"/>
            <path id="path60" fill="#000000" fill-opacity="0.07059" fill-rule="evenodd" stroke="none" d="M -0.310229 115.478226 L -0.310229 92.390839 L 22.815952 115.478226 Z"/>
            <path id="path61" fill="#000000" fill-opacity="0.07059" fill-rule="evenodd" stroke="none" d="M 22.778694 161.682068 L 22.778694 138.594681 L 45.904884 161.682068 Z"/>
            <path id="path62" fill="#000000" fill-opacity="0.07059" fill-rule="evenodd" stroke="none" d="M 22.778694 184.774307 L 22.778694 161.68692 L 45.904884 184.774307 Z"/>
            <path id="path63" fill="#000000" fill-opacity="0.07059" fill-rule="evenodd" stroke="none" d="M -0.3232 184.77916 L -0.3232 161.691772 L 22.802982 184.77916 Z"/>
            <path id="path64" fill="#000000" fill-opacity="0.07059" fill-rule="evenodd" stroke="none" d="M -0.3232 161.682068 L -0.3232 138.594681 L 22.802982 161.682068 Z"/>
            <path id="path65" fill="#000000" fill-opacity="0.07059" fill-rule="evenodd" stroke="none" d="M 115.193001 207.873062 L 115.193001 184.78566 L 138.319199 207.873062 Z"/>
            <path id="path66" fill="#000000" fill-opacity="0.07059" fill-rule="evenodd" stroke="none" d="M 115.193001 230.965302 L 115.193001 207.877899 L 138.319199 230.965302 Z"/>
            <path id="path67" fill="#000000" fill-opacity="0.07059" fill-rule="evenodd" stroke="none" d="M 92.091019 230.970154 L 92.091019 207.882751 L 115.217216 230.970154 Z"/>
            <path id="path68" fill="#000000" fill-opacity="0.07059" fill-rule="evenodd" stroke="none" d="M 92.091019 207.873062 L 92.091019 184.78566 L 115.217216 207.873062 Z"/>
            <path id="path69" fill="#000000" fill-opacity="0.07059" fill-rule="evenodd" stroke="none" d="M 68.985886 207.864975 L 68.985886 184.777588 L 92.112076 207.864975 Z"/>
            <path id="path70" fill="#000000" fill-opacity="0.07059" fill-rule="evenodd" stroke="none" d="M 68.985886 230.957214 L 68.985886 207.869827 L 92.112076 230.957214 Z"/>
            <path id="path71" fill="#000000" fill-opacity="0.07059" fill-rule="evenodd" stroke="none" d="M 45.883831 230.962067 L 45.883831 207.874664 L 69.010025 230.962067 Z"/>
            <path id="path72" fill="#000000" fill-opacity="0.07059" fill-rule="evenodd" stroke="none" d="M 45.883831 207.864975 L 45.883831 184.777588 L 69.010025 207.864975 Z"/>
            <path id="path73" fill="#000000" fill-opacity="0.07059" fill-rule="evenodd" stroke="none" d="M 115.180069 254.076935 L 115.180069 230.989548 L 138.306244 254.076935 Z"/>
            <path id="path74" fill="#000000" fill-opacity="0.07059" fill-rule="evenodd" stroke="none" d="M 115.180069 277.169189 L 115.180069 254.081787 L 138.306244 277.169189 Z"/>
            <path id="path75" fill="#000000" fill-opacity="0.07059" fill-rule="evenodd" stroke="none" d="M 92.07811 277.174011 L 92.07811 254.086639 L 115.2043 277.174011 Z"/>
            <path id="path76" fill="#000000" fill-opacity="0.07059" fill-rule="evenodd" stroke="none" d="M 92.07811 254.076935 L 92.07811 230.989548 L 115.2043 254.076935 Z"/>
            <path id="path77" fill="#000000" fill-opacity="0.07059" fill-rule="evenodd" stroke="none" d="M 68.972954 254.068848 L 68.972954 230.981461 L 92.099144 254.068848 Z"/>
            <path id="path78" fill="#000000" fill-opacity="0.07059" fill-rule="evenodd" stroke="none" d="M 68.972954 277.161102 L 68.972954 254.0737 L 92.099144 277.161102 Z"/>
            <path id="path79" fill="#000000" fill-opacity="0.07059" fill-rule="evenodd" stroke="none" d="M 45.870934 277.165955 L 45.870934 254.078552 L 68.997108 277.165955 Z"/>
            <path id="path80" fill="#000000" fill-opacity="0.07059" fill-rule="evenodd" stroke="none" d="M 45.870934 254.068848 L 45.870934 230.981461 L 68.997108 254.068848 Z"/>
            <path id="path81" fill="#000000" fill-opacity="0.07059" fill-rule="evenodd" stroke="none" d="M 22.783545 207.928024 L 22.783545 184.840637 L 45.909737 207.928024 Z"/>
            <path id="path82" fill="#000000" fill-opacity="0.07059" fill-rule="evenodd" stroke="none" d="M 22.783545 231.020264 L 22.783545 207.932877 L 45.909737 231.020264 Z"/>
            <path id="path83" fill="#000000" fill-opacity="0.07059" fill-rule="evenodd" stroke="none" d="M -0.31835 231.025116 L -0.31835 207.937729 L 22.807831 231.025116 Z"/>
            <path id="path84" fill="#000000" fill-opacity="0.07059" fill-rule="evenodd" stroke="none" d="M -0.31835 207.928024 L -0.31835 184.840637 L 22.807831 207.928024 Z"/>
            <path id="path85" fill="#000000" fill-opacity="0.07059" fill-rule="evenodd" stroke="none" d="M 22.77063 254.131897 L 22.77063 231.04451 L 45.89682 254.131897 Z"/>
            <path id="path86" fill="#000000" fill-opacity="0.07059" fill-rule="evenodd" stroke="none" d="M 22.77063 277.224152 L 22.77063 254.136749 L 45.89682 277.224152 Z"/>
            <path id="path87" fill="#000000" fill-opacity="0.07059" fill-rule="evenodd" stroke="none" d="M -0.331246 277.229004 L -0.331246 254.141602 L 22.794935 277.229004 Z"/>
            <path id="path88" fill="#000000" fill-opacity="0.07059" fill-rule="evenodd" stroke="none" d="M -0.331246 254.131897 L -0.331246 231.04451 L 22.794935 254.131897 Z"/>
            <path id="path89" fill="#000000" fill-opacity="0.07059" fill-rule="evenodd" stroke="none" d="M 22.91769 300.335785 L 22.91769 277.248413 L 46.04388 300.335785 Z"/>
            <path id="path90" fill="#000000" fill-opacity="0.07059" fill-rule="evenodd" stroke="none" d="M 22.91769 323.42804 L 22.91769 300.340637 L 46.04388 323.42804 Z"/>
            <path id="path91" fill="#000000" fill-opacity="0.07059" fill-rule="evenodd" stroke="none" d="M -0.184148 323.432892 L -0.184148 300.34549 L 22.942053 323.432892 Z"/>
            <path id="path92" fill="#000000" fill-opacity="0.07059" fill-rule="evenodd" stroke="none" d="M -0.184148 300.335785 L -0.184148 277.248413 L 22.942053 300.335785 Z"/>
            <path id="path93" fill="#000000" fill-opacity="0.07059" fill-rule="evenodd" stroke="none" d="M 22.904776 346.539673 L 22.904776 323.452301 L 46.030968 346.539673 Z"/>
            <path id="path94" fill="#000000" fill-opacity="0.07059" fill-rule="evenodd" stroke="none" d="M 22.904776 369.631927 L 22.904776 346.544525 L 46.030968 369.631927 Z"/>
            <path id="path95" fill="#000000" fill-opacity="0.07059" fill-rule="evenodd" stroke="none" d="M -0.197081 369.63678 L -0.197081 346.549377 L 22.9291 369.63678 Z"/>
            <path id="path96" fill="#000000" fill-opacity="0.07059" fill-rule="evenodd" stroke="none" d="M -0.197081 346.539673 L -0.197081 323.452301 L 22.9291 346.539673 Z"/>
            <path id="path97" fill="#000000" fill-opacity="0.07059" fill-rule="evenodd" stroke="none" d="M 115.275429 300.290527 L 115.275429 277.203125 L 138.401627 300.290527 Z"/>
            <path id="path98" fill="#000000" fill-opacity="0.07059" fill-rule="evenodd" stroke="none" d="M 115.275429 323.382782 L 115.275429 300.29538 L 138.401627 323.382782 Z"/>
            <path id="path99" fill="#000000" fill-opacity="0.07059" fill-rule="evenodd" stroke="none" d="M 92.173531 323.387604 L 92.173531 300.300171 L 115.299698 323.387604 Z"/>
            <path id="path100" fill="#000000" fill-opacity="0.07059" fill-rule="evenodd" stroke="none" d="M 92.173531 300.290527 L 92.173531 277.203125 L 115.299698 300.290527 Z"/>
            <path id="path101" fill="#000000" fill-opacity="0.07059" fill-rule="evenodd" stroke="none" d="M 69.068275 300.28244 L 69.068275 277.195038 L 92.194473 300.28244 Z"/>
            <path id="path102" fill="#000000" fill-opacity="0.07059" fill-rule="evenodd" stroke="none" d="M 69.068275 323.374664 L 69.068275 300.287262 L 92.194473 323.374664 Z"/>
            <path id="path103" fill="#000000" fill-opacity="0.07059" fill-rule="evenodd" stroke="none" d="M 45.966339 323.379547 L 45.966339 300.292145 L 69.092529 323.379547 Z"/>
            <path id="path104" fill="#000000" fill-opacity="0.07059" fill-rule="evenodd" stroke="none" d="M 45.966339 300.28244 L 45.966339 277.195038 L 69.092529 300.28244 Z"/>
            <path id="path105" fill="#000000" fill-opacity="0.07059" fill-rule="evenodd" stroke="none" d="M 115.26252 346.494354 L 115.26252 323.406982 L 138.388702 346.494354 Z"/>
            <path id="path106" fill="#000000" fill-opacity="0.07059" fill-rule="evenodd" stroke="none" d="M 115.26252 369.586639 L 115.26252 346.499176 L 138.388702 369.586639 Z"/>
            <path id="path107" fill="#000000" fill-opacity="0.07059" fill-rule="evenodd" stroke="none" d="M 92.160538 369.591522 L 92.160538 346.504059 L 115.286728 369.591522 Z"/>
            <path id="path108" fill="#000000" fill-opacity="0.07059" fill-rule="evenodd" stroke="none" d="M 92.160538 346.494354 L 92.160538 323.406982 L 115.286728 346.494354 Z"/>
            <path id="path109" fill="#000000" fill-opacity="0.07059" fill-rule="evenodd" stroke="none" d="M 69.055405 346.486298 L 69.055405 323.398926 L 92.181595 346.486298 Z"/>
            <path id="path110" fill="#000000" fill-opacity="0.07059" fill-rule="evenodd" stroke="none" d="M 69.055405 369.578583 L 69.055405 346.49118 L 92.181595 369.578583 Z"/>
            <path id="path111" fill="#000000" fill-opacity="0.07059" fill-rule="evenodd" stroke="none" d="M 45.953442 369.583405 L 45.953442 346.495972 L 69.079636 369.583405 Z"/>
            <path id="path112" fill="#000000" fill-opacity="0.07059" fill-rule="evenodd" stroke="none" d="M 45.953442 346.486298 L 45.953442 323.398926 L 69.079636 346.486298 Z"/>
            <path id="path113" fill="#000000" fill-opacity="0.07059" fill-rule="evenodd" stroke="none" d="M 207.66214 300.277588 L 207.66214 277.190186 L 230.788345 300.277588 Z"/>
            <path id="path114" fill="#000000" fill-opacity="0.07059" fill-rule="evenodd" stroke="none" d="M 207.66214 323.369812 L 207.66214 300.28244 L 230.788345 323.369812 Z"/>
            <path id="path115" fill="#000000" fill-opacity="0.07059" fill-rule="evenodd" stroke="none" d="M 184.560181 323.374664 L 184.560181 300.287262 L 207.686386 323.374664 Z"/>
            <path id="path116" fill="#000000" fill-opacity="0.07059" fill-rule="evenodd" stroke="none" d="M 184.560181 300.277588 L 184.560181 277.190186 L 207.686386 300.277588 Z"/>
            <path id="path117" fill="#000000" fill-opacity="0.07059" fill-rule="evenodd" stroke="none" d="M 161.455078 300.269501 L 161.455078 277.182129 L 184.581268 300.269501 Z"/>
            <path id="path118" fill="#000000" fill-opacity="0.07059" fill-rule="evenodd" stroke="none" d="M 161.455078 323.361725 L 161.455078 300.274353 L 184.581268 323.361725 Z"/>
            <path id="path119" fill="#000000" fill-opacity="0.07059" fill-rule="evenodd" stroke="none" d="M 138.353134 323.366608 L 138.353134 300.279175 L 161.47934 323.366608 Z"/>
            <path id="path120" fill="#000000" fill-opacity="0.07059" fill-rule="evenodd" stroke="none" d="M 138.353134 300.269501 L 138.353134 277.182129 L 161.47934 300.269501 Z"/>
            <path id="path121" fill="#000000" fill-opacity="0.07059" fill-rule="evenodd" stroke="none" d="M 207.649246 346.481445 L 207.649246 323.394073 L 230.775421 346.481445 Z"/>
            <path id="path122" fill="#000000" fill-opacity="0.07059" fill-rule="evenodd" stroke="none" d="M 207.649246 369.5737 L 207.649246 346.486298 L 230.775421 369.5737 Z"/>
            <path id="path123" fill="#000000" fill-opacity="0.07059" fill-rule="evenodd" stroke="none" d="M 184.547287 369.578583 L 184.547287 346.49118 L 207.673462 369.578583 Z"/>
            <path id="path124" fill="#000000" fill-opacity="0.07059" fill-rule="evenodd" stroke="none" d="M 184.547287 346.481445 L 184.547287 323.394073 L 207.673462 346.481445 Z"/>
            <path id="path125" fill="#000000" fill-opacity="0.07059" fill-rule="evenodd" stroke="none" d="M 161.442154 346.473389 L 161.442154 323.386017 L 184.568344 346.473389 Z"/>
            <path id="path126" fill="#000000" fill-opacity="0.07059" fill-rule="evenodd" stroke="none" d="M 161.442154 369.565613 L 161.442154 346.478241 L 184.568344 369.565613 Z"/>
            <path id="path127" fill="#000000" fill-opacity="0.07059" fill-rule="evenodd" stroke="none" d="M 138.340195 369.570496 L 138.340195 346.483093 L 161.466385 369.570496 Z"/>
            <path id="path128" fill="#000000" fill-opacity="0.07059" fill-rule="evenodd" stroke="none" d="M 138.340195 346.473389 L 138.340195 323.386017 L 161.466385 346.473389 Z"/>
        </g>
    </g>
    <g id="iot-bit">
        <path id="Shape" fill="#231f20" stroke="#231f20" stroke-width="15.532567" opacity="0.1" d="M 424.05365 73 L 175.532562 73 C 166.989655 73 160 79.989655 160 88.532562 L 160 282.689636 C 160 289.679321 164.465607 295.504028 170.678635 297.445587 C 172.231903 297.833893 173.785156 298.222229 175.532562 298.222229 L 424.05365 298.222229 C 425.801056 298.222229 427.354309 298.028046 428.907562 297.445587 C 435.120605 295.504028 439.586212 289.679321 439.586212 282.689636 L 439.586212 88.532562 C 439.586212 79.989655 432.79071 73 424.05365 73 Z M 183.298843 269.875275 C 177.862457 269.875275 173.591003 265.603821 173.591003 260.167419 C 173.591003 254.731018 177.862457 250.459564 183.298843 250.459564 C 188.735245 250.459564 193.006699 254.731018 193.006699 260.167419 C 193.006699 265.603821 188.735245 269.875275 183.298843 269.875275 Z M 238.2453 269.875275 C 232.808914 269.875275 228.53746 265.603821 228.53746 260.167419 C 228.53746 254.731018 232.808914 250.459564 238.2453 250.459564 C 243.681702 250.459564 247.953156 254.731018 247.953156 260.167419 C 247.953156 265.603821 243.487549 269.875275 238.2453 269.875275 Z M 299.793091 269.875275 C 294.35672 269.875275 290.085236 265.603821 290.085236 260.167419 C 290.085236 254.731018 294.35672 250.459564 299.793091 250.459564 C 305.229492 250.459564 309.500946 254.731018 309.500946 260.167419 C 309.500946 265.603821 305.229492 269.875275 299.793091 269.875275 Z M 361.535065 269.875275 C 356.098663 269.875275 351.827209 265.603821 351.827209 260.167419 C 351.827209 254.731018 356.098663 250.459564 361.535065 250.459564 C 366.971436 250.459564 371.24292 254.731018 371.24292 260.167419 C 371.24292 265.603821 366.971436 269.875275 361.535065 269.875275 Z M 416.287354 269.875275 C 410.850952 269.875275 406.579498 265.603821 406.579498 260.167419 C 406.579498 254.731018 410.850952 250.459564 416.287354 250.459564 C 421.723755 250.459564 425.995209 254.731018 425.995209 260.167419 C 425.995209 265.603821 421.723755 269.875275 416.287354 269.875275 Z"/>
        <path id="path129" fill="#414757" stroke="none" d="M 424.05365 73 L 175.532562 73 C 166.989655 73 160 79.989655 160 88.532562 L 160 282.689636 C 160 289.679321 164.465607 295.504028 170.678635 297.445587 C 172.231903 297.833893 173.785156 298.222229 175.532562 298.222229 L 424.05365 298.222229 C 425.801056 298.222229 427.354309 298.028046 428.907562 297.445587 C 435.120605 295.504028 439.586212 289.679321 439.586212 282.689636 L 439.586212 88.532562 C 439.586212 79.989655 432.79071 73 424.05365 73 Z M 183.298843 269.875275 C 177.862457 269.875275 173.591003 265.603821 173.591003 260.167419 C 173.591003 254.731018 177.862457 250.459564 183.298843 250.459564 C 188.735245 250.459564 193.006699 254.731018 193.006699 260.167419 C 193.006699 265.603821 188.735245 269.875275 183.298843 269.875275 Z M 238.2453 269.875275 C 232.808914 269.875275 228.53746 265.603821 228.53746 260.167419 C 228.53746 254.731018 232.808914 250.459564 238.2453 250.459564 C 243.681702 250.459564 247.953156 254.731018 247.953156 260.167419 C 247.953156 265.603821 243.487549 269.875275 238.2453 269.875275 Z M 299.793091 269.875275 C 294.35672 269.875275 290.085236 265.603821 290.085236 260.167419 C 290.085236 254.731018 294.35672 250.459564 299.793091 250.459564 C 305.229492 250.459564 309.500946 254.731018 309.500946 260.167419 C 309.500946 265.603821 305.229492 269.875275 299.793091 269.875275 Z M 361.535065 269.875275 C 356.098663 269.875275 351.827209 265.603821 351.827209 260.167419 C 351.827209 254.731018 356.098663 250.459564 361.535065 250.459564 C 366.971436 250.459564 371.24292 254.731018 371.24292 260.167419 C 371.24292 265.603821 366.971436 269.875275 361.535065 269.875275 Z M 416.287354 269.875275 C 410.850952 269.875275 406.579498 265.603821 406.579498 260.167419 C 406.579498 254.731018 410.850952 250.459564 416.287354 250.459564 C 421.723755 250.459564 425.995209 254.731018 425.995209 260.167419 C 425.995209 265.603821 421.723755 269.875275 416.287354 269.875275 Z"/>
        <path id="path130" fill="#ffffff" stroke="none" d="M 160 142.896545 L 160 88.532562 C 160 79.989655 166.989655 73 175.532562 73 L 229.896545 73 L 160 142.896545 Z"/>
        <path id="path131" fill="#ffffff" stroke="none" d="M 229.896545 104.065125 L 229.896545 73 L 260.9617 73 Z"/>
        <path id="path132" fill="#ffffff" stroke="none" d="M 260.9617 96.298859 L 260.9617 73 L 284.260529 73 Z"/>
        <path id="path133" fill="#ffffff" stroke="#ffffff" stroke-width="1.941571" stroke-linecap="round" stroke-linejoin="round" d="M 404.637939 150.662827 L 404.637939 127.363983 L 427.936768 127.363983 Z"/>
        <path id="path134" fill="#ffffff" stroke="#ffffff" stroke-width="1.941571" stroke-linecap="round" stroke-linejoin="round" d="M 194.948273 205.02681 L 194.948273 228.325653 L 171.649429 228.325653 Z"/>
        <g id="Group"/>
        <g id="g3">
            <path id="path135" fill="#231f20" stroke="#231f20" stroke-width="7.766284" stroke-linecap="round" stroke-linejoin="round" opacity="0.25" d="M 210.48085 158.429108 L 179.41571 158.429108 C 177.279984 158.429108 175.532562 160.176514 175.532562 162.312256 L 175.532562 193.37738 C 175.532562 195.513107 177.279984 197.260529 179.41571 197.260529 L 210.48085 197.260529 C 212.616577 197.260529 214.363983 195.513107 214.363983 193.37738 L 214.363983 162.312256 C 214.363983 160.176514 212.616577 158.429108 210.48085 158.429108 Z"/>
            <path id="path136" fill="#e6e7e8" stroke="#7c87a5" stroke-width="1.941571" stroke-linecap="round" stroke-linejoin="round" d="M 210.48085 158.429108 L 179.41571 158.429108 C 177.279984 158.429108 175.532562 160.176514 175.532562 162.312256 L 175.532562 193.37738 C 175.532562 195.513107 177.279984 197.260529 179.41571 197.260529 L 210.48085 197.260529 C 212.616577 197.260529 214.363983 195.513107 214.363983 193.37738 L 214.363983 162.312256 C 214.363983 160.176514 212.616577 158.429108 210.48085 158.429108 Z"/>
            <path id="Oval" fill="#231f20" stroke="#231f20" stroke-width="5.824713" opacity="0.1" d="M 202.714554 177.844818 C 202.714554 182.134018 199.237473 185.611099 194.948273 185.611099 C 190.659073 185.611099 187.181992 182.134018 187.181992 177.844818 C 187.181992 173.555618 190.659073 170.078537 194.948273 170.078537 C 199.237473 170.078537 202.714554 173.555618 202.714554 177.844818 Z"/>
            <path id="path137" fill="#414757" stroke="#414757" stroke-width="1.941571" d="M 202.714554 177.844818 C 202.714554 182.134018 199.237473 185.611099 194.948273 185.611099 C 190.659073 185.611099 187.181992 182.134018 187.181992 177.844818 C 187.181992 173.555618 190.659073 170.078537 194.948273 170.078537 C 199.237473 170.078537 202.714554 173.555618 202.714554 177.844818 Z"/>
        </g>
        <g id="g4">
            <path id="path138" fill="#231f20" stroke="#231f20" stroke-width="7.766284" stroke-linecap="round" stroke-linejoin="round" opacity="0.25" d="M 420.170502 158.429108 L 389.105377 158.429108 C 386.969635 158.429108 385.222229 160.176514 385.222229 162.312256 L 385.222229 193.37738 C 385.222229 195.513107 386.969635 197.260529 389.105377 197.260529 L 420.170502 197.260529 C 422.306213 197.260529 424.05365 195.513107 424.05365 193.37738 L 424.05365 162.312256 C 424.05365 160.176514 422.306213 158.429108 420.170502 158.429108 Z"/>
            <path id="path139" fill="#e6e7e8" stroke="#7c87a5" stroke-width="1.941571" stroke-linecap="round" stroke-linejoin="round" d="M 420.170502 158.429108 L 389.105377 158.429108 C 386.969635 158.429108 385.222229 160.176514 385.222229 162.312256 L 385.222229 193.37738 C 385.222229 195.513107 386.969635 197.260529 389.105377 197.260529 L 420.170502 197.260529 C 422.306213 197.260529 424.05365 195.513107 424.05365 193.37738 L 424.05365 162.312256 C 424.05365 160.176514 422.306213 158.429108 420.170502 158.429108 Z"/>
            <path id="path140" fill="#231f20" stroke="#231f20" stroke-width="5.824713" opacity="0.1" d="M 412.404205 177.844818 C 412.404205 182.134018 408.927124 185.611099 404.637939 185.611099 C 400.348724 185.611099 396.871643 182.134018 396.871643 177.844818 C 396.871643 173.555618 400.348724 170.078537 404.637939 170.078537 C 408.927124 170.078537 412.404205 173.555618 412.404205 177.844818 Z"/>
            <path id="path141" fill="#414757" stroke="#414757" stroke-width="1.941571" d="M 412.404205 177.844818 C 412.404205 182.134018 408.927124 185.611099 404.637939 185.611099 C 400.348724 185.611099 396.871643 182.134018 396.871643 177.844818 C 396.871643 173.555618 400.348724 170.078537 404.637939 170.078537 C 408.927124 170.078537 412.404205 173.555618 412.404205 177.844818 Z"/>
        </g>
        <g id="g5">
            <g id="g6">
                <g id="g7" opacity="0.5">
                    <path id="path142" fill="#e6e7e8" stroke="none" d="M 260.877289 103.473999 L 254.937836 103.473999 C 254.56662 103.473999 254.195404 103.279846 254.195404 103.085693 L 254.195404 99.979187 C 254.195404 99.785034 254.56662 99.590881 254.937836 99.590881 L 260.877289 99.590881 C 261.248505 99.590881 261.61972 99.785034 261.61972 99.979187 L 261.61972 103.085693 C 261.61972 103.279846 261.61972 103.473999 260.877289 103.473999 Z"/>
                </g>
                <g id="g8" opacity="0.25">
                    <path id="path143" fill="#231f20" stroke="none" d="M 260.877289 109.298737 L 254.937836 109.298737 C 254.56662 109.298737 254.195404 109.104553 254.195404 108.910431 L 254.195404 105.803894 C 254.195404 105.609741 254.56662 105.415588 254.937836 105.415588 L 260.877289 105.415588 C 261.248505 105.415588 261.61972 105.609741 261.61972 105.803894 L 261.61972 108.910431 C 261.61972 109.104553 261.61972 109.298737 260.877289 109.298737 Z"/>
                </g>
                <path id="path144" fill="#e6e7e8" stroke="none" d="M 260.877289 107.357147 L 254.937836 107.357147 C 254.56662 107.357147 254.195404 107.162994 254.195404 106.968842 L 254.195404 101.920746 C 254.195404 101.726593 254.56662 101.53244 254.937836 101.53244 L 260.877289 101.53244 C 261.248505 101.53244 261.61972 101.726593 261.61972 101.920746 L 261.61972 106.968842 C 261.61972 107.162994 261.61972 107.357147 260.877289 107.357147 Z"/>
            </g>
            <g id="g9">
                <g id="g10" opacity="0.5">
                    <path id="path145" fill="#e6e7e8" stroke="none" d="M 303.302002 103.473999 L 297.362549 103.473999 C 296.991333 103.473999 296.620117 103.279846 296.620117 103.085693 L 296.620117 99.979187 C 296.620117 99.785034 296.991333 99.590881 297.362549 99.590881 L 303.302002 99.590881 C 303.673218 99.590881 304.044434 99.785034 304.044434 99.979187 L 304.044434 103.085693 C 304.044434 103.279846 304.044434 103.473999 303.302002 103.473999 Z"/>
                </g>
                <g id="g11" opacity="0.25">
                    <path id="path146" fill="#231f20" stroke="none" d="M 303.302002 109.298737 L 297.362549 109.298737 C 296.991333 109.298737 296.620117 109.104553 296.620117 108.910431 L 296.620117 105.803894 C 296.620117 105.609741 296.991333 105.415588 297.362549 105.415588 L 303.302002 105.415588 C 303.673218 105.415588 304.044434 105.609741 304.044434 105.803894 L 304.044434 108.910431 C 304.044434 109.104553 304.044434 109.298737 303.302002 109.298737 Z"/>
                </g>
                <path id="path147" fill="#e6e7e8" stroke="none" d="M 303.302002 107.357147 L 297.362549 107.357147 C 296.991333 107.357147 296.620117 107.162994 296.620117 106.968842 L 296.620117 101.920746 C 296.620117 101.726593 296.991333 101.53244 297.362549 101.53244 L 303.302002 101.53244 C 303.673218 101.53244 304.044434 101.726593 304.044434 101.920746 L 304.044434 106.968842 C 304.044434 107.162994 304.044434 107.357147 303.302002 107.357147 Z"/>
            </g>
            <g id="g12">
                <g id="g13" opacity="0.5">
                    <path id="path148" fill="#e6e7e8" stroke="none" d="M 345.726715 103.473999 L 339.787262 103.473999 C 339.416046 103.473999 339.04483 103.279846 339.04483 103.085693 L 339.04483 99.979187 C 339.04483 99.785034 339.416046 99.590881 339.787262 99.590881 L 345.726715 99.590881 C 346.097931 99.590881 346.469147 99.785034 346.469147 99.979187 L 346.469147 103.085693 C 346.469147 103.279846 346.469147 103.473999 345.726715 103.473999 Z"/>
                </g>
                <g id="g14" opacity="0.25">
                    <path id="path149" fill="#231f20" stroke="none" d="M 345.726715 109.298737 L 339.787262 109.298737 C 339.416046 109.298737 339.04483 109.104553 339.04483 108.910431 L 339.04483 105.803894 C 339.04483 105.609741 339.416046 105.415588 339.787262 105.415588 L 345.726715 105.415588 C 346.097931 105.415588 346.469147 105.609741 346.469147 105.803894 L 346.469147 108.910431 C 346.469147 109.104553 346.469147 109.298737 345.726715 109.298737 Z"/>
                </g>
                <path id="path150" fill="#e6e7e8" stroke="none" d="M 345.726715 107.357147 L 339.787262 107.357147 C 339.416046 107.357147 339.04483 107.162994 339.04483 106.968842 L 339.04483 101.920746 C 339.04483 101.726593 339.416046 101.53244 339.787262 101.53244 L 345.726715 101.53244 C 346.097931 101.53244 346.469147 101.726593 346.469147 101.920746 L 346.469147 106.968842 C 346.469147 107.162994 346.469147 107.357147 345.726715 107.357147 Z"/>
            </g>
        </g>
        <path id="-" fill="#000000" fill-rule="evenodd" stroke="none" d="M 232.728195 187.727814 L 364.72821 187.727814 L 364.72821 117.727814 L 232.728195 117.727814 Z"/>
        <path id="--3" fill="#74fbea" fill-rule="evenodd" stroke="#000000" stroke-width="6.363708" stroke-opacity="0.145749" stroke-linecap="round" stroke-linejoin="round" d="M 232.122025 216.183426 C 229.778961 216.183426 227.879547 214.283997 227.879547 211.940948 L 227.879547 117.545959 C 227.879547 115.202896 229.778961 113.303497 232.122025 113.303497 L 366.820496 113.303497 C 369.163544 113.303497 371.062958 115.202896 371.062958 117.545959 L 371.062958 211.940948 C 371.062958 214.283997 369.163544 216.183426 366.820496 216.183426 L 232.122025 216.183426 Z M 244.213135 184.727814 C 239.527039 184.727814 235.728195 180.92897 235.728195 176.242859 L 235.728195 129.212753 C 235.728195 124.526642 239.527039 120.727814 244.213135 120.727814 L 355.243256 120.727814 C 359.929352 120.727814 363.72821 124.526642 363.72821 129.212753 L 363.72821 176.242859 C 363.72821 180.92897 359.929352 184.727814 355.243256 184.727814 L 244.213135 184.727814 Z"/>
        <g id="g15">
            <path id="path151" fill="#ffbf00" stroke="none" d="M 168.542908 271.040222 L 168.542908 296.474792 C 166.795502 295.504028 165.242249 294.339081 164.077301 292.97998 L 164.077301 271.040222 L 168.542908 271.040222 Z"/>
            <path id="path152" fill="#ffbf00" stroke="none" d="M 174.36763 298.028076 L 175.338409 298.028076 L 175.338409 271.040222 L 170.872803 271.040222 L 170.872803 297.445587 Z"/>
            <path id="Rectangle-path" fill="#ffbf00" stroke="none" d="M 177.668289 271.040222 L 182.328064 271.040222 L 182.328064 298.028076 L 177.668289 298.028076 Z"/>
            <path id="path153" fill="#ffbf00" stroke="none" d="M 184.463791 271.040222 L 189.123566 271.040222 L 189.123566 298.028076 L 184.463791 298.028076 Z"/>
            <path id="path154" fill="#ffbf00" stroke="none" d="M 191.453445 271.040222 L 196.11322 271.040222 L 196.11322 298.028076 L 191.453445 298.028076 Z"/>
            <path id="path155" fill="#ffbf00" stroke="none" d="M 198.248947 271.040222 L 202.908722 271.040222 L 202.908722 298.028076 L 198.248947 298.028076 Z"/>
            <path id="path156" fill="#ffbf00" stroke="none" d="M 205.044449 271.040222 L 209.704224 271.040222 L 209.704224 298.028076 L 205.044449 298.028076 Z"/>
            <path id="path157" fill="#ffbf00" stroke="none" d="M 211.839935 271.040222 L 216.49971 271.040222 L 216.49971 298.028076 L 211.839935 298.028076 Z"/>
            <path id="path158" fill="#ffbf00" stroke="none" d="M 218.829605 271.040222 L 223.489365 271.040222 L 223.489365 298.028076 L 218.829605 298.028076 Z"/>
            <path id="path159" fill="#ffbf00" stroke="none" d="M 225.625092 271.040222 L 230.284866 271.040222 L 230.284866 298.028076 L 225.625092 298.028076 Z"/>
            <path id="path160" fill="#ffbf00" stroke="none" d="M 232.420593 271.040222 L 237.080368 271.040222 L 237.080368 298.028076 L 232.420593 298.028076 Z"/>
            <path id="path161" fill="#ffbf00" stroke="none" d="M 239.410248 271.040222 L 244.070023 271.040222 L 244.070023 298.028076 L 239.410248 298.028076 Z"/>
            <path id="path162" fill="#ffbf00" stroke="none" d="M 246.20575 271.040222 L 250.865509 271.040222 L 250.865509 298.028076 L 246.20575 298.028076 Z"/>
            <path id="path163" fill="#ffbf00" stroke="none" d="M 253.001236 271.040222 L 257.661011 271.040222 L 257.661011 298.028076 L 253.001236 298.028076 Z"/>
            <path id="path164" fill="#ffbf00" stroke="none" d="M 259.990906 271.040222 L 264.650665 271.040222 L 264.650665 298.028076 L 259.990906 298.028076 Z"/>
            <path id="path165" fill="#ffbf00" stroke="none" d="M 266.786407 271.040222 L 271.446167 271.040222 L 271.446167 298.028076 L 266.786407 298.028076 Z"/>
            <path id="path166" fill="#ffbf00" stroke="none" d="M 273.581909 271.040222 L 278.241669 271.040222 L 278.241669 298.028076 L 273.581909 298.028076 Z"/>
            <path id="path167" fill="#ffbf00" stroke="none" d="M 280.37738 271.040222 L 285.03717 271.040222 L 285.03717 298.028076 L 280.37738 298.028076 Z"/>
            <path id="path168" fill="#ffbf00" stroke="none" d="M 287.367065 271.040222 L 292.026825 271.040222 L 292.026825 298.028076 L 287.367065 298.028076 Z"/>
            <path id="path169" fill="#ffbf00" stroke="none" d="M 294.162537 271.040222 L 298.822327 271.040222 L 298.822327 298.028076 L 294.162537 298.028076 Z"/>
            <path id="path170" fill="#ffbf00" stroke="none" d="M 300.958038 271.040222 L 305.617828 271.040222 L 305.617828 298.028076 L 300.958038 298.028076 Z"/>
            <path id="path171" fill="#ffbf00" stroke="none" d="M 307.947693 271.040222 L 312.607483 271.040222 L 312.607483 298.028076 L 307.947693 298.028076 Z"/>
            <path id="path172" fill="#ffbf00" stroke="none" d="M 314.743195 271.040222 L 319.402954 271.040222 L 319.402954 298.028076 L 314.743195 298.028076 Z"/>
            <path id="path173" fill="#ffbf00" stroke="none" d="M 321.538696 271.040222 L 326.198456 271.040222 L 326.198456 298.028076 L 321.538696 298.028076 Z"/>
            <path id="path174" fill="#ffbf00" stroke="none" d="M 328.334198 271.040222 L 332.993958 271.040222 L 332.993958 298.028076 L 328.334198 298.028076 Z"/>
            <path id="path175" fill="#ffbf00" stroke="none" d="M 335.323853 271.040222 L 339.983612 271.040222 L 339.983612 298.028076 L 335.323853 298.028076 Z"/>
            <path id="path176" fill="#ffbf00" stroke="none" d="M 342.119354 271.040222 L 346.779114 271.040222 L 346.779114 298.028076 L 342.119354 298.028076 Z"/>
            <path id="path177" fill="#ffbf00" stroke="none" d="M 348.914856 271.040222 L 353.574615 271.040222 L 353.574615 298.028076 L 348.914856 298.028076 Z"/>
            <path id="path178" fill="#ffbf00" stroke="none" d="M 355.90451 271.040222 L 360.56427 271.040222 L 360.56427 298.028076 L 355.90451 298.028076 Z"/>
            <path id="path179" fill="#ffbf00" stroke="none" d="M 362.700012 271.040222 L 367.359772 271.040222 L 367.359772 298.028076 L 362.700012 298.028076 Z"/>
            <path id="path180" fill="#ffbf00" stroke="none" d="M 369.495514 271.040222 L 374.155273 271.040222 L 374.155273 298.028076 L 369.495514 298.028076 Z"/>
            <path id="path181" fill="#ffbf00" stroke="none" d="M 376.485168 271.040222 L 381.144928 271.040222 L 381.144928 298.028076 L 376.485168 298.028076 Z"/>
            <path id="path182" fill="#ffbf00" stroke="none" d="M 383.28064 271.040222 L 387.94043 271.040222 L 387.94043 298.028076 L 383.28064 298.028076 Z"/>
            <path id="path183" fill="#ffbf00" stroke="none" d="M 390.076141 271.040222 L 394.735931 271.040222 L 394.735931 298.028076 L 390.076141 298.028076 Z"/>
            <path id="path184" fill="#ffbf00" stroke="none" d="M 396.871643 271.040222 L 401.531433 271.040222 L 401.531433 298.028076 L 396.871643 298.028076 Z"/>
            <path id="path185" fill="#ffbf00" stroke="none" d="M 403.861298 271.040222 L 408.521088 271.040222 L 408.521088 298.028076 L 403.861298 298.028076 Z"/>
            <path id="path186" fill="#ffbf00" stroke="none" d="M 410.656799 271.040222 L 415.316559 271.040222 L 415.316559 298.028076 L 410.656799 298.028076 Z"/>
            <path id="path187" fill="#ffbf00" stroke="none" d="M 417.452301 271.040222 L 422.112061 271.040222 L 422.112061 298.028076 L 417.452301 298.028076 Z"/>
            <path id="path188" fill="#ffbf00" stroke="none" d="M 425.41275 298.028076 L 424.441956 298.028076 L 424.441956 271.040222 L 428.907562 271.040222 L 428.907562 297.445587 Z"/>
            <path id="path189" fill="#ffbf00" stroke="none" d="M 435.703064 271.040222 L 435.703064 292.97998 C 434.343964 294.533234 432.984863 295.698181 431.237457 296.474792 L 431.237457 271.040222 L 435.703064 271.040222 Z"/>
        </g>
        <g id="g16">
            <path id="path190" fill="#ffbf00" stroke="none" d="M 183.298843 269.875275 C 177.862457 269.875275 173.591003 265.603821 173.591003 260.167419 C 173.591003 254.731018 177.862457 250.459564 183.298843 250.459564 C 188.735245 250.459564 193.006699 254.731018 193.006699 260.167419 C 193.006699 265.603821 188.735245 269.875275 183.298843 269.875275 Z M 175.532562 298.222229 L 195.919067 298.222229 L 195.919067 260.361572 C 195.919067 256.86676 194.559967 253.760239 192.230072 251.430359 C 189.900192 249.100464 186.793686 247.741364 183.298843 247.741364 C 176.309189 247.741364 170.678635 253.371918 170.678635 260.361572 L 170.678635 297.445587 L 175.532562 298.222229 Z"/>
            <path id="path191" fill="#ffbf00" stroke="none" d="M 247.176529 251.430359 C 244.846649 249.100464 241.740143 247.741364 238.2453 247.741364 C 231.255646 247.741364 225.625092 253.371918 225.625092 260.361572 L 225.625092 298.222229 L 250.671371 298.222229 L 250.671371 260.361572 C 250.865509 256.86676 249.312256 253.566086 247.176529 251.430359 Z M 238.2453 269.875275 C 232.808914 269.875275 228.53746 265.603821 228.53746 260.167419 C 228.53746 254.731018 232.808914 250.459564 238.2453 250.459564 C 243.681702 250.459564 247.953156 254.731018 247.953156 260.167419 C 247.953156 265.603821 243.487549 269.875275 238.2453 269.875275 Z"/>
            <path id="path192" fill="#ffbf00" stroke="none" d="M 308.724335 251.430359 C 306.39444 249.100464 303.287933 247.741364 299.793091 247.741364 C 292.803436 247.741364 287.172882 253.371918 287.172882 260.361572 L 287.172882 298.222229 L 312.219147 298.222229 L 312.219147 260.361572 C 312.4133 256.86676 311.054199 253.566086 308.724335 251.430359 Z M 299.793091 269.875275 C 294.35672 269.875275 290.085236 265.603821 290.085236 260.167419 C 290.085236 254.731018 294.35672 250.459564 299.793091 250.459564 C 305.229492 250.459564 309.500946 254.731018 309.500946 260.167419 C 309.500946 265.603821 305.229492 269.875275 299.793091 269.875275 Z"/>
            <path id="path193" fill="#ffbf00" stroke="none" d="M 370.466278 251.430359 C 368.136414 249.100464 365.029877 247.741364 361.535065 247.741364 C 354.54541 247.741364 348.914856 253.371918 348.914856 260.361572 L 348.914856 298.222229 L 373.961121 298.222229 L 373.961121 260.361572 C 374.155273 256.86676 372.796173 253.566086 370.466278 251.430359 Z M 361.535065 269.875275 C 356.098663 269.875275 351.827209 265.603821 351.827209 260.167419 C 351.827209 254.731018 356.098663 250.459564 361.535065 250.459564 C 366.971436 250.459564 371.24292 254.731018 371.24292 260.167419 C 371.24292 265.603821 366.971436 269.875275 361.535065 269.875275 Z"/>
            <path id="path194" fill="#ffbf00" stroke="none" d="M 425.218567 251.430359 C 422.888702 249.100464 419.782166 247.741364 416.287354 247.741364 C 409.297699 247.741364 403.667145 253.371918 403.667145 260.361572 L 403.667145 298.222229 L 424.05365 298.222229 L 428.907562 297.445587 L 428.907562 260.361572 C 428.907562 256.86676 427.548462 253.566086 425.218567 251.430359 Z M 416.287354 269.875275 C 410.850952 269.875275 406.579498 265.603821 406.579498 260.167419 C 406.579498 254.731018 410.850952 250.459564 416.287354 250.459564 C 421.723755 250.459564 425.995209 254.731018 425.995209 260.167419 C 425.995209 265.603821 421.723755 269.875275 416.287354 269.875275 Z"/>
        </g>
        <path id="0" fill="#414757" fill-rule="evenodd" stroke="none" d="M 183.31543 278.449341 C 184.193939 278.449341 184.829117 278.811157 185.220978 279.534851 C 185.524353 280.094177 185.676025 280.860474 185.676025 281.833801 C 185.676025 282.756561 185.538574 283.519714 185.263641 284.123322 C 184.865463 284.989197 184.214478 285.422119 183.310684 285.422119 C 182.495377 285.422119 181.888641 285.068176 181.490463 284.360321 C 181.158661 283.769348 180.992752 282.976196 180.992752 281.980774 C 180.992752 281.209686 181.092285 280.547668 181.291382 279.994629 C 181.664276 278.964417 182.338943 278.449341 183.31543 278.449341 Z M 183.305954 284.644745 C 183.748367 284.644745 184.100723 284.448792 184.363007 284.056946 C 184.62529 283.6651 184.756439 282.93512 184.756439 281.867004 C 184.756439 281.095917 184.661636 280.461548 184.472031 279.963806 C 184.282425 279.466095 183.914276 279.217255 183.367569 279.217255 C 182.865112 279.217255 182.497757 279.45343 182.265488 279.925903 C 182.033218 280.398346 181.917084 281.09433 181.917084 282.013947 C 181.917084 282.705994 181.991348 283.262177 182.139862 283.682495 C 182.367401 284.323975 182.756088 284.644745 183.305954 284.644745 Z"/>
        <path id="A" fill="#414757" fill-rule="evenodd" stroke="none" d="M 190.754639 223.973648 L 189.697586 220.897278 L 188.574158 223.973648 L 190.754639 223.973648 Z M 189.204605 219.863922 L 190.271149 219.863922 L 192.797653 226.827225 L 191.764297 226.827225 L 191.058014 224.741547 L 188.30397 224.741547 L 187.550293 226.827225 L 186.583298 226.827225 L 189.204605 219.863922 Z"/>
        <path id="B" fill="#414757" fill-rule="evenodd" stroke="none" d="M 409.173279 133.131058 C 409.571442 133.131058 409.881134 133.07576 410.102356 132.965164 C 410.449951 132.791351 410.623779 132.4785 410.623779 132.026611 C 410.623779 131.571548 410.438904 131.265015 410.069183 131.10701 C 409.860596 131.018539 409.550903 130.974289 409.140106 130.974289 L 407.457336 130.974289 L 407.457336 133.131058 L 409.173279 133.131058 Z M 409.490875 136.344894 C 410.069183 136.344894 410.481567 136.177414 410.728058 135.842438 C 410.882904 135.630707 410.960327 135.374741 410.960327 135.074539 C 410.960327 134.568909 410.734375 134.224457 410.282471 134.041183 C 410.042297 133.943207 409.724731 133.894226 409.329712 133.894226 L 407.457336 133.894226 L 407.457336 136.344894 L 409.490875 136.344894 Z M 406.53302 130.187424 L 409.524048 130.187424 C 410.339355 130.187424 410.91925 130.430756 411.263702 130.917404 C 411.465942 131.204971 411.567047 131.536789 411.567047 131.912842 C 411.567047 132.352097 411.44223 132.712357 411.192596 132.993607 C 411.063019 133.14212 410.876587 133.278015 410.63324 133.40126 C 410.990356 133.53714 411.257385 133.690399 411.434326 133.861053 C 411.747192 134.164413 411.903625 134.58313 411.903625 135.117188 C 411.903625 135.565933 411.763 135.972 411.48175 136.335419 C 411.061432 136.878952 410.393097 137.150726 409.476654 137.150726 L 406.53302 137.150726 L 406.53302 130.187424 Z"/>
        <path id="1" fill="#414757" fill-rule="evenodd" stroke="none" d="M 235.978943 280.430725 L 235.978943 279.776581 C 236.595169 279.716553 237.024933 279.616211 237.268265 279.475586 C 237.511597 279.334961 237.693298 279.00235 237.813385 278.477783 L 238.486481 278.477783 L 238.486481 285.237244 L 237.57637 285.237244 L 237.57637 280.430725 L 235.978943 280.430725 Z"/>
        <path id="2" fill="#414757" fill-rule="evenodd" stroke="none" d="M 297.483521 285.237244 C 297.515106 284.652618 297.635986 284.14386 297.84613 283.710938 C 298.056274 283.277954 298.466309 282.884552 299.076202 282.53064 L 299.986328 282.004456 C 300.393982 281.767426 300.679962 281.565216 300.844269 281.397705 C 301.103424 281.135406 301.232971 280.835236 301.232971 280.497101 C 301.232971 280.102051 301.114471 279.788452 300.877472 279.556152 C 300.640442 279.323883 300.324432 279.207764 299.929443 279.207764 C 299.344818 279.207764 298.940308 279.428955 298.715942 279.871399 C 298.595856 280.108398 298.52951 280.437042 298.516876 280.857361 L 297.649414 280.857361 C 297.658905 280.266388 297.767914 279.784485 297.976471 279.411591 C 298.346222 278.754272 298.998779 278.425659 299.934174 278.425659 C 300.711548 278.425659 301.279602 278.635773 301.638275 279.056091 C 301.996948 279.476379 302.17627 279.944061 302.17627 280.459167 C 302.17627 281.002716 301.985077 281.467224 301.602722 281.852783 C 301.3815 282.077148 300.984894 282.348907 300.412933 282.668091 L 299.763519 283.028351 C 299.453827 283.198975 299.21051 283.361725 299.033539 283.516571 C 298.717529 283.791504 298.518433 284.096436 298.436279 284.431427 L 302.143097 284.431427 L 302.143097 285.237244 L 297.483521 285.237244 Z"/>
        <path id="3v" fill="#414757" fill-rule="evenodd" stroke="none" d="M 360.633667 281.637299 C 360.630554 281.636414 360.627441 281.63559 360.624359 281.634735 L 360.633667 281.637299 Z M 360.633667 281.637299 C 360.986267 281.735962 361.262054 281.92395 361.460999 282.201172 C 361.661652 282.480835 361.761993 282.822906 361.761993 283.227417 C 361.761993 283.875244 361.548676 284.402954 361.12207 284.810638 C 360.695465 285.218292 360.090302 285.422119 359.30658 285.422119 C 358.503906 285.422119 357.921661 285.201721 357.559845 284.760864 C 357.197998 284.320007 357.01709 283.7836 357.01709 283.151581 L 357.908234 283.151581 C 357.946167 283.59082 358.02832 283.910004 358.154724 284.1091 C 358.375946 284.466187 358.775665 284.644745 359.353973 284.644745 C 359.802734 284.644745 360.162964 284.524658 360.434753 284.284485 C 360.706512 284.044312 360.842407 283.734619 360.842407 283.355408 C 360.842407 282.887695 360.699402 282.560638 360.413422 282.374207 C 360.127411 282.187744 359.730042 282.094543 359.221252 282.094543 C 359.164368 282.094543 359.10672 282.095306 359.048248 282.096893 C 358.989777 282.09848 358.930542 282.10083 358.870483 282.104004 L 358.870483 281.350311 C 358.958984 281.359802 359.033234 281.366119 359.093262 281.369293 C 359.15332 281.372437 359.218109 281.374023 359.287628 281.374023 C 359.606781 281.374023 359.86908 281.323456 360.074493 281.222351 C 360.434753 281.04538 360.614868 280.72937 360.614868 280.274292 C 360.614868 279.936157 360.494781 279.675476 360.254608 279.492188 C 360.014435 279.308899 359.734772 279.217255 359.415619 279.217255 C 358.846771 279.217255 358.453369 279.40683 358.235321 279.786072 C 358.115234 279.994629 358.047272 280.291656 358.031494 280.677216 L 357.187744 280.677216 C 357.187744 280.17157 357.288849 279.741821 357.491089 279.387878 C 357.838715 278.755859 358.450165 278.43988 359.325531 278.43988 C 360.017609 278.43988 360.553253 278.593903 360.932465 278.902039 C 361.311676 279.210144 361.501282 279.656494 361.501282 280.241119 C 361.501282 280.658264 361.389099 280.996368 361.164734 281.255524 C 361.025696 281.416656 360.845551 281.54306 360.624359 281.634705 L 360.633667 281.637299 Z M 363.226685 280.160522 L 364.582397 284.293945 L 365.999695 280.160522 L 366.933502 280.160522 L 365.018494 285.237244 L 364.108368 285.237244 L 362.235992 280.160522 L 363.226685 280.160522 Z"/>
        <path id="GND" fill="#414757" fill-rule="evenodd" stroke="none" d="M 409.244232 278.093811 C 409.898376 278.093811 410.46402 278.220215 410.941193 278.473053 C 411.63327 278.836456 412.056732 279.473206 412.211578 280.383331 L 411.27774 280.383331 C 411.164001 279.874542 410.928558 279.504028 410.571472 279.271759 C 410.214355 279.03949 409.764069 278.92334 409.22052 278.92334 C 408.575836 278.92334 408.033112 279.1651 407.592285 279.648621 C 407.151428 280.132111 406.93103 280.8526 406.93103 281.81012 C 406.93103 282.638062 407.112701 283.311951 407.476135 283.831787 C 407.839569 284.351624 408.432068 284.611572 409.253693 284.611572 C 409.882568 284.611572 410.403168 284.429077 410.815582 284.064056 C 411.227997 283.699036 411.438934 283.108917 411.448395 282.29361 L 409.267914 282.29361 L 409.267914 281.511475 L 412.325317 281.511475 L 412.325317 285.237244 L 411.718597 285.237244 L 411.491058 284.34137 C 411.171875 284.692139 410.889069 284.935455 410.642578 285.07135 C 410.228577 285.305206 409.702454 285.422119 409.064087 285.422119 C 408.239288 285.422119 407.529877 285.15509 406.93576 284.621033 C 406.287933 283.95108 405.96402 283.031494 405.96402 281.862244 C 405.96402 280.696167 406.280029 279.768677 406.912079 279.079773 C 407.512482 278.422455 408.289856 278.093811 409.244232 278.093811 Z M 413.785309 278.273956 L 414.899231 278.273956 L 418.416443 283.914734 L 418.416443 278.273956 L 419.312317 278.273956 L 419.312317 285.237244 L 418.25528 285.237244 L 414.685944 279.601196 L 414.685944 285.237244 L 413.785309 285.237244 L 413.785309 278.273956 Z M 423.469452 284.431427 C 423.788635 284.431427 424.050903 284.398254 424.256287 284.331879 C 424.622894 284.208649 424.923096 283.971619 425.156952 283.62085 C 425.343384 283.3396 425.477692 282.97937 425.559845 282.5401 C 425.607269 282.277802 425.630981 282.034485 425.630981 281.81012 C 425.630981 280.947388 425.459534 280.277466 425.116669 279.800293 C 424.773773 279.32309 424.221558 279.084534 423.459961 279.084534 L 421.786682 279.084534 L 421.786682 284.431427 L 423.469452 284.431427 Z M 420.838654 278.273956 L 423.659058 278.273956 C 424.616577 278.273956 425.359192 278.613647 425.886932 279.293091 C 426.357788 279.906158 426.593231 280.691406 426.593231 281.648956 C 426.593231 282.388428 426.454163 283.056763 426.176086 283.654053 C 425.686249 284.709534 424.844116 285.237244 423.649567 285.237244 L 420.838654 285.237244 L 420.838654 278.273956 Z"/>
    </g>
</svg>
