<?xml version="1.0" standalone="no"?><!DOCTYPE svg PUBLIC "-//W3C//DTD SVG 1.1//EN" "http://www.w3.org/Graphics/SVG/1.1/DTD/svg11.dtd"><svg t="1734271123186" class="icon" viewBox="0 0 1024 1024" version="1.1" xmlns="http://www.w3.org/2000/svg" p-id="8010" width="20" height="20" xmlns:xlink="http://www.w3.org/1999/xlink"><path d="M86.741333 550.613333c50.773333-193.28 135.808-283.989333 255.146667-242.773333 65.408 22.528 95.061333 72.661333 127.701333 181.333333l18.56 64.597334c25.301333 85.461333 42.581333 112.682667 67.84 112.682666 63.616 0 151.893333-105.301333 251.477334-320.426666l7.125333-15.530667 77.653333 35.285333c-116.181333 255.744-223.530667 386.005333-336.256 386.005334-80.384 0-112-47.018667-148.778666-170.752l-12.458667-43.52c-27.648-97.706667-48.469333-137.941333-80.682667-149.034667-54.954667-18.986667-102.101333 29.141333-141.354666 171.093333l-3.413334 12.757334-82.56-21.717334z" fill="#575e75" p-id="8011"></path></svg>
