<?xml version="1.0" encoding="UTF-8"?>
<!-- Generated by Pixelmator Pro 3.6.17 -->
<svg width="36" height="36" viewBox="0 0 36 36" xmlns="http://www.w3.org/2000/svg">
    <path id="path1" fill="#231f20" stroke="none" opacity="0.15" d="M 36 18 C 36 27.941126 27.941126 36 18 36 C 8.058874 36 0 27.941126 0 18 C -0 8.058874 8.058874 0 18 0 C 27.941126 0 36 8.058874 36 18 Z"/>
    <path id="path2" fill="#ffffff" stroke="none" d="M 34 18 C 34 26.836555 26.836555 34 18 34 C 9.163444 34 2 26.836555 2 18 C 2 9.163445 9.163444 2 18 2 C 26.836555 2 34 9.163445 34 18 Z"/>
    <g id="g1" opacity="0.75">
        <path id="Combined-Shape-" fill="#575e75" stroke="none" d="M 27.298756 15.663872 C 28.215027 16.954079 28.252283 19.076027 27.298756 20.336128 C 27.298756 20.336128 24.392057 25.857143 18 25.857143 C 11.607943 25.857143 8.701243 20.336128 8.701243 20.336128 C 7.784972 19.045921 7.747718 16.923971 8.701243 15.663872 C 8.701243 15.663872 11.607943 10.142857 18 10.142857 C 24.392057 10.142857 27.298756 15.663872 27.298756 15.663872 Z M 17.998421 23.712706 C 21.153896 23.712706 23.711916 21.154686 23.711916 17.99921 C 23.711916 14.843733 21.153896 12.285715 17.998421 12.285715 C 14.842943 12.285715 12.284925 14.843733 12.284925 17.99921 C 12.284925 21.154686 14.842943 23.712706 17.998421 23.712706 Z"/>
        <path id="Oval-" fill="#575e75" stroke="none" d="M 20 18 C 20 19.104568 19.104568 20 18 20 C 16.895432 20 16 19.104568 16 18 C 16 16.895432 16.895432 16 18 16 C 19.104568 16 20 16.895432 20 18 Z"/>
    </g>
</svg>
