<?xml version="1.0" encoding="UTF-8"?>
<!-- Generated by Pixelmator Pro 3.7 -->
<svg width="20" height="20" viewBox="0 0 20 20" xmlns="http://www.w3.org/2000/svg">
    <path id="path1" fill="#4c97ff" stroke="none" d="M 13.928572 2.25 C 15.190936 2.25 16.214285 3.27335 16.214285 4.535714 L 16.214285 15.964286 C 16.214285 17.22665 15.190936 18.25 13.928572 18.25 L 4.785714 18.25 C 3.523349 18.25 2.5 17.22665 2.5 15.964286 L 2.5 4.535714 C 2.5 3.27335 3.523349 2.25 4.785714 2.25 L 13.928572 2.25 Z M 11.071428 10.25 C 9.849276 10.250051 8.762489 11.027435 8.36763 12.184043 C 7.972771 13.340652 8.357288 14.620331 9.324265 15.367736 C 10.291241 16.115141 11.626521 16.164743 12.646286 15.491143 L 14.082857 16.926571 C 14.226328 17.075117 14.438787 17.134693 14.638576 17.082397 C 14.838364 17.030104 14.994389 16.874077 15.046684 16.67429 C 15.098979 16.474501 15.039404 16.262043 14.890857 16.118572 L 13.45543 14.682 C 14.035048 13.804605 14.085866 12.67974 13.587721 11.753655 C 13.089573 10.827571 12.12299 10.249971 11.071428 10.25 Z M 11.071428 11.392858 C 12.018203 11.392858 12.785714 12.160369 12.785714 13.107143 C 12.785714 14.053917 12.018203 14.821428 11.071428 14.821428 C 10.124655 14.821428 9.357142 14.053917 9.357142 13.107143 C 9.357142 12.160369 10.124655 11.392858 11.071428 11.392858 Z M 7.642857 7.964286 L 5.357143 7.964286 C 5.041551 7.964286 4.785714 8.220122 4.785714 8.535714 C 4.785714 8.851306 5.041551 9.107142 5.357143 9.107142 L 7.642857 9.107142 C 7.958449 9.107142 8.214286 8.851306 8.214286 8.535714 C 8.214286 8.220122 7.958449 7.964286 7.642857 7.964286 Z M 13.357142 4.535714 L 5.357143 4.535714 C 5.041551 4.535714 4.785714 4.791552 4.785714 5.107142 C 4.785714 5.422734 5.041551 5.678572 5.357143 5.678572 L 13.357142 5.678572 C 13.672734 5.678572 13.928572 5.422734 13.928572 5.107142 C 13.928572 4.791552 13.672734 4.535714 13.357142 4.535714 Z"/>
</svg>
