<?xml version="1.0" encoding="UTF-8"?>
<!-- Generated by Pixelmator Pro 3.6.17 -->
<svg width="36" height="36" viewBox="0 0 36 36" xmlns="http://www.w3.org/2000/svg">
    <path id="path1" fill="#231f20" stroke="none" opacity="0.15" d="M 36 18 C 36 27.941126 27.941126 36 18 36 C 8.058874 36 0 27.941126 0 18 C -0 8.058874 8.058874 0 18 0 C 27.941126 0 36 8.058874 36 18 Z"/>
    <path id="path2" fill="#ffffff" stroke="none" d="M 34 18 C 34 26.836555 26.836555 34 18 34 C 9.163444 34 2 26.836555 2 18 C 2 9.163445 9.163444 2 18 2 C 26.836555 2 34 9.163445 34 18 Z"/>
    <g id="g1" opacity="0.75">
        <path id="-" fill="#575e75" fill-rule="evenodd" stroke="none" d="M 11.123843 23.010548 C 9.614233 21.644493 8.895205 20.278763 8.895205 20.278763 C 7.988143 19.001522 7.951263 16.900902 8.895205 15.653465 C 8.895205 15.653465 11.772691 10.187941 18.100504 10.187941 C 19.962629 10.187941 21.525963 10.661245 22.805098 11.329292 L 25.13439 9 L 26.13439 10 L 10.134391 26 L 9.134391 25 L 11.123843 23.010548 Z M 21.015913 13.118479 C 20.1642 12.604792 19.166082 12.309259 18.098942 12.309259 C 14.975179 12.309259 12.442868 14.84157 12.442868 17.965332 C 12.442868 19.032475 12.738401 20.030594 13.252087 20.882305 L 15.382622 18.75177 C 15.310645 18.502331 15.272078 18.238728 15.272078 17.966114 C 15.272078 16.404016 16.538408 15.137688 18.100504 15.137688 C 18.373117 15.137688 18.636723 15.176254 18.88616 15.248232 L 21.015913 13.118479 Z M 13.416024 24.613413 L 15.204021 22.825417 C 16.050888 23.330944 17.040995 23.621405 18.098942 23.621405 C 21.222702 23.621405 23.755014 21.089096 23.755014 17.965332 C 23.755014 16.907385 23.464552 15.91728 22.959026 15.070412 L 25.09321 12.936228 C 26.591871 14.297413 27.305805 15.653465 27.305805 15.653465 C 28.212866 16.930706 28.249746 19.031326 27.305805 20.278763 C 27.305805 20.278763 24.42832 25.744289 18.100504 25.744289 C 16.248129 25.744289 14.691425 25.275927 13.416024 24.613413 Z M 17.338678 20.69076 L 20.82515 17.204288 C 20.892776 17.446663 20.928932 17.702168 20.928932 17.966114 C 20.928932 19.528212 19.662601 20.79454 18.100504 20.79454 C 17.836557 20.79454 17.581055 20.758389 17.338678 20.69076 Z"/>
    </g>
</svg>
