<?xml version="1.0" encoding="UTF-8"?>
<!-- Generated by Pixelmator Pro 3.6.14 -->
<svg width="20" height="20" viewBox="0 0 20 20" xmlns="http://www.w3.org/2000/svg">
    <g id="g1">
        <path id="path2" fill="#ffffff" fill-rule="evenodd" stroke="none" d="M 10.809572 20 L 6 20 C 4.500941 20 3.285714 18.784773 3.285714 17.285715 L 3.285714 3.714287 C 3.285714 2.215227 4.500941 1 6 1 L 14.142857 1 C 15.641916 1 16.857143 2.215227 16.857143 3.714287 L 16.857143 9.141891 C 16.419428 9.048917 15.965426 9 15.5 9 C 11.910149 9 9 11.91015 9 15.5 C 9 15.6371 9.004245 15.77321 9.012609 15.908203 L 7.986328 15.908203 C 7.609337 15.908266 7.304688 16.212852 7.304688 16.589844 C 7.304688 16.966833 7.609337 17.273375 7.986328 17.273438 L 9.244876 17.273438 C 9.538491 18.311092 10.083348 19.24324 10.809572 20 Z M 12.030618 2.357143 L 8.037947 2.357143 L 8.478516 3.238281 C 8.595825 3.470482 8.831658 3.616484 9.091797 3.619141 L 10.976563 3.619141 C 11.236702 3.616484 11.474486 3.470482 11.591797 3.238281 L 12.030618 2.357143 Z"/>
        <path id="-" fill="#ffffff" stroke="none" d="M 15.583334 11 C 13.052083 11 11 13.052084 11 15.583334 C 11 18.114584 13.052083 20.166666 15.583334 20.166666 C 18.114584 20.166666 20.166666 18.114584 20.166666 15.583334 C 20.166666 13.052084 18.114584 11 15.583334 11 Z M 13.5 13.083334 C 13.606667 13.083334 13.713333 13.124166 13.794582 13.205418 L 15.583334 14.994167 L 17.372084 13.205418 C 17.534777 13.042723 17.798555 13.042723 17.96125 13.205418 C 18.123943 13.368111 18.123943 13.631889 17.96125 13.794583 L 16.172501 15.583334 L 17.96125 17.372084 C 18.123943 17.534777 18.123943 17.798555 17.96125 17.96125 C 17.798555 18.123943 17.534777 18.123943 17.372084 17.96125 L 15.583334 16.172501 L 13.794582 17.96125 C 13.71661 18.039671 13.610587 18.083763 13.5 18.083763 C 13.389413 18.083763 13.28339 18.039671 13.205418 17.96125 C 13.127201 17.883167 13.083249 17.777185 13.083249 17.666666 C 13.083249 17.556147 13.127201 17.450165 13.205418 17.372084 L 14.994167 15.583334 L 13.205418 13.794583 C 13.085859 13.675568 13.049957 13.496161 13.114511 13.340303 C 13.179064 13.184444 13.331304 13.082961 13.5 13.083334 Z"/>
    </g>
</svg>
