<?xml version="1.0" standalone="no"?><!DOCTYPE svg PUBLIC "-//W3C//DTD SVG 1.1//EN" "http://www.w3.org/Graphics/SVG/1.1/DTD/svg11.dtd"><svg t="1767173559970" class="icon" viewBox="0 0 1024 1024" version="1.1" xmlns="http://www.w3.org/2000/svg" p-id="9641" width="20" height="20" xmlns:xlink="http://www.w3.org/1999/xlink"><path d="M725.333333 447.146667h-39.253333l-98.133333 98.133333a105.6 105.6 0 0 1-150.613334 0l-98.133333-98.133333H298.666667a192 192 0 0 0-192 192v42.666666a191.744 191.744 0 0 0 192 192h426.666666a192 192 0 0 0 192-192v-42.666666a192.298667 192.298667 0 0 0-192-192z m0 245.333333a53.333333 53.333333 0 1 1 52.906667-53.333333A53.461333 53.461333 0 0 1 725.333333 692.48zM354.56 372.053333a42.666667 42.666667 0 0 1 0-60.16 42.666667 42.666667 0 0 1 60.16 0l55.04 55.04V171.52a42.666667 42.666667 0 0 1 85.333333 0V366.933333l55.466667-55.04a42.666667 42.666667 0 0 1 60.16 0 42.666667 42.666667 0 0 1 0 60.16l-75.093333 75.093334-52.906667 52.906666a41.728 41.728 0 0 1-60.16 0z" fill="#ffffff" p-id="9642"></path></svg>