<?xml version="1.0" encoding="UTF-8"?>
<!-- Generated by Pixelmator Pro 3.6.17 -->
<svg width="20" height="20" viewBox="0 0 20 20" xmlns="http://www.w3.org/2000/svg">
    <path id="path1" fill="#575E75" stroke="none" d="M 16.369999 14.271 C 16.549997 14.168928 16.701334 14.023094 16.809999 13.846999 C 16.931 13.649 17 13.415999 17 13.176001 L 16.987 6.553 C 16.987 6.332 16.93 6.122 16.823 5.935 L 16.816999 5.924 L 16.816 5.924 C 16.705 5.736 16.549 5.576 16.35 5.466 L 10.613001 2.167999 C 10.224 1.943001 9.74 1.947001 9.35 2.172001 L 3.63 5.493 C 3.24 5.718 3 6.138 3 6.588 L 3.015 13.203 C 3.016518 13.401719 3.064139 13.597312 3.15404 13.774405 L 3.153 13.775001 C 3.263781 13.99398 3.436193 14.175777 3.649 14.298 L 9.382 17.595001 C 9.775001 17.820999 10.255001 17.816999 10.645 17.591 L 16.369999 14.271 Z M 10.2727 5.217999 C 11.978522 5.253284 13.455446 6.198819 14.24361 7.58513 L 12.297404 8.705253 C 12.19723 8.534419 12.075005 8.375559 11.932573 8.233127 C 11.492368 7.792922 10.895245 7.545734 10.2727 7.546 C 9.649982 7.545469 9.052603 7.792539 8.612182 8.232774 C 8.17176 8.673008 7.924435 9.270283 7.924701 9.893 C 7.92417 10.515891 8.171377 11.113423 8.611827 11.553873 C 9.052279 11.994324 9.649809 12.241531 10.2727 12.241 C 10.895419 12.241266 11.492693 11.993941 11.932927 11.553518 C 12.0752 11.411185 12.197298 11.25246 12.297384 11.081782 L 14.24274 12.202402 C 13.454359 13.587877 11.977894 14.532728 10.2727 14.568 C 8.579433 14.603024 6.999585 13.719713 6.142679 12.258862 C 5.285774 10.798008 5.285774 8.987991 6.142679 7.527139 C 6.999585 6.066286 8.579433 5.182976 10.2727 5.217999 Z M 16.809 13.848 L 16.809999 13.846999 Z"/>
</svg>
