<?xml version="1.0" encoding="UTF-8"?>
<!-- Generated by Pixelmator Pro 3.7 -->
<svg width="20" height="20" viewBox="0 0 20 20" xmlns="http://www.w3.org/2000/svg">
    <path id="path1" fill="#ffffff" fill-rule="evenodd" stroke="none" d="M 19.550083 3.669762 C 19.549662 2.723259 18.782234 1.956202 17.835732 1.956238 L 17.83588 1.955685 L 1.835275 1.955564 C 0.888773 1.955986 0.121717 2.723413 0.121754 3.669914 L 0.121501 16.242243 C 0.121923 17.188744 0.88935 17.955801 1.835853 17.955763 L 17.835905 17.95574 C 18.782564 17.955622 19.549934 17.188194 19.54998 16.241533 L 19.550083 3.669762 Z M 14.5 14 L 5.5 14 L 5.5 8 L 14.5 8 L 14.5 14 Z M 1.398962 11.091883 C 1.60807 10.735057 1.993645 10.51905 2.40715 10.52707 C 3.029585 10.539146 3.527852 11.047186 3.527839 11.669737 C 3.527826 12.29229 3.029536 12.800307 2.407101 12.812357 C 1.993597 12.82036 1.60803 12.604336 1.398938 12.2475 C 1.189845 11.890667 1.189855 11.448709 1.398962 11.091883 Z M 16.12134 11.669492 C 16.121395 11.038276 16.633141 10.526616 17.264357 10.52667 C 17.895575 10.526725 18.40723 11.038471 18.407177 11.669688 C 18.407124 12.300904 17.895378 12.812562 17.264162 12.812508 C 16.632944 12.812454 16.121286 12.300709 16.12134 11.669492 Z M 2.407097 3.097916 L 6.449275 3.09841 L 1.264353 8.241412 L 1.264283 4.241086 C 1.2642 3.937933 1.384565 3.647169 1.598892 3.432775 C 1.813219 3.218384 2.103946 3.097927 2.407097 3.097916 Z M 6.449827 3.098558 L 9.139313 3.098059 L 10.501723 3.098108 L 9.13913 4.419024 L 9.139313 3.098059 L 6.449729 5.732864 L 6.449827 3.098558 Z M 7.454663 6.336537 C 7.191625 6.336628 6.978465 6.549937 6.978557 6.812976 C 6.978648 7.076014 7.191958 7.289171 7.454995 7.289081 C 7.718032 7.288987 7.931192 7.07568 7.9311 6.812644 C 7.931008 6.549606 7.7177 6.336447 7.454663 6.336537 Z M 12.216935 6.336532 C 11.953938 6.336473 11.740687 6.549624 11.740627 6.812621 C 11.740565 7.075616 11.953719 7.288866 12.216716 7.288928 C 12.479711 7.288986 12.692961 7.075835 12.693023 6.812839 C 12.693083 6.549844 12.479932 6.336594 12.216935 6.336532 Z M 9.976106 6.336537 C 9.713068 6.336628 9.499907 6.549937 9.5 6.812976 C 9.500091 7.076014 9.713401 7.289171 9.976438 7.289081 C 10.239474 7.288987 10.452635 7.07568 10.452542 6.812644 C 10.452451 6.549606 10.239142 6.336447 9.976106 6.336537 Z"/>
</svg>
