<?xml version="1.0" encoding="UTF-8"?>
<!-- Generated by Pixelmator Pro 3.6.13 -->
<svg width="20" height="20" viewBox="0 0 20 20" xmlns="http://www.w3.org/2000/svg">
    <path id="path1" fill="#575e75" stroke="none" d="M 17.396324 9.805261 L 14.068682 4.044731 C 13.93606 3.815027 13.690574 3.673946 13.425337 3.674999 L 6.770053 3.674999 C 6.504816 3.673946 6.259329 3.815027 6.126709 4.044731 L 2.799067 9.805261 C 2.666978 10.034054 2.666978 10.315933 2.799067 10.544725 L 6.126709 16.305256 C 6.259329 16.53496 6.504816 16.676041 6.770053 16.674988 L 13.425337 16.674988 C 13.690574 16.676041 13.93606 16.53496 14.068682 16.305256 L 17.396324 10.544725 C 17.528412 10.315933 17.528412 10.034054 17.396324 9.805261 Z M 12.959468 15.196041 L 7.198955 15.196041 L 4.292814 10.174994 L 7.198955 5.153946 L 12.996435 5.153946 L 15.902576 10.174994 Z"/>
</svg>
