<?xml version="1.0" encoding="UTF-8"?>
<!-- Generated by Pixelmator Pro 3.6.17 -->
<svg width="20" height="20" viewBox="0 0 20 20" xmlns="http://www.w3.org/2000/svg">
    <path id="path1" fill="#ffffff" stroke="none" d="M 10.00584 2.784101 L 2.743184 10.046445 C 0.757793 12.031875 0.757793 15.280723 2.743184 17.266132 C 4.728867 19.251522 7.977734 19.251522 9.963125 17.266132 L 17.225489 10.00375 C 19.210878 8.01834 19.210878 4.769492 17.225489 2.784101 C 15.239824 0.798672 11.99123 0.798672 10.00584 2.784101 Z M 3.188698 14.701611 C 3.158673 14.671585 3.131894 14.639126 3.108361 14.604233 C 3.084828 14.568527 3.064947 14.531199 3.048718 14.492249 C 3.032488 14.453298 3.020316 14.412724 3.012202 14.370527 C 3.003681 14.329548 2.999624 14.287756 3.000029 14.245153 C 2.999623 14.202551 3.003478 14.160558 3.011593 14.119172 C 3.020519 14.077786 3.032894 14.037415 3.048717 13.998058 C 3.064947 13.959107 3.084626 13.921983 3.107753 13.886683 C 3.131691 13.851383 3.158673 13.818722 3.188698 13.788696 C 3.218722 13.758672 3.251181 13.731894 3.286075 13.708361 C 3.32178 13.684828 3.359108 13.664947 3.398058 13.648717 C 3.43701 13.632488 3.477584 13.620316 3.51978 13.6122 C 3.56076 13.60368 3.602551 13.599623 3.645154 13.600029 C 3.687756 13.599623 3.729751 13.603477 3.771136 13.611591 C 3.812521 13.620518 3.852892 13.632894 3.892249 13.648718 C 3.9312 13.664947 3.968325 13.684625 4.003624 13.707752 C 4.038924 13.731691 4.071586 13.758673 4.10161 13.788697 L 4.558067 14.245153 L 5.014523 13.788698 C 5.044548 13.758673 5.077007 13.731894 5.111901 13.708361 C 5.147605 13.684828 5.184934 13.664948 5.223885 13.648718 C 5.262835 13.632488 5.303409 13.620316 5.345606 13.612201 C 5.386586 13.603681 5.428377 13.599623 5.47098 13.600029 C 5.513582 13.599623 5.555576 13.603477 5.596961 13.611591 C 5.638346 13.620518 5.678717 13.632894 5.718074 13.648718 C 5.757025 13.664948 5.79415 13.684626 5.82945 13.707752 C 5.864749 13.731691 5.897411 13.758673 5.927435 13.788696 C 5.95746 13.818722 5.984239 13.851181 6.007772 13.886074 C 6.031304 13.92178 6.051186 13.959108 6.067415 13.998058 C 6.083644 14.03701 6.095817 14.077583 6.103932 14.119781 C 6.112453 14.16076 6.11651 14.202551 6.116104 14.245153 C 6.116509 14.287756 6.112655 14.32975 6.10454 14.371136 C 6.095614 14.412521 6.083239 14.452892 6.067415 14.492249 C 6.051186 14.531199 6.031507 14.568324 6.008381 14.603624 C 5.984442 14.638924 5.95746 14.671585 5.927435 14.701611 L 5.470979 15.158066 L 5.927436 15.614523 C 5.95746 15.644547 5.984239 15.677006 6.007772 15.7119 C 6.031304 15.747604 6.051185 15.784933 6.067415 15.823883 C 6.083645 15.862835 6.095818 15.903409 6.103932 15.945605 C 6.112453 15.986586 6.116509 16.028376 6.116103 16.070978 C 6.116509 16.113581 6.112655 16.155575 6.10454 16.19696 C 6.095614 16.238346 6.083239 16.278717 6.067415 16.318073 C 6.051185 16.357025 6.031507 16.39415 6.00838 16.429449 C 5.984441 16.464748 5.95746 16.49741 5.927435 16.527435 C 5.89741 16.557459 5.864952 16.584238 5.830058 16.607771 C 5.794353 16.631304 5.757025 16.651186 5.718074 16.667414 C 5.679123 16.683643 5.638549 16.695816 5.596352 16.703932 C 5.555373 16.712452 5.513582 16.716509 5.470979 16.716103 C 5.428377 16.716509 5.386383 16.712654 5.344997 16.70454 C 5.303612 16.695614 5.263241 16.683239 5.223884 16.667416 C 5.184933 16.651184 5.147808 16.631506 5.112509 16.608379 C 5.07721 16.584442 5.044548 16.557461 5.014523 16.527435 L 4.558066 16.070978 L 4.10161 16.527435 C 4.071586 16.557459 4.039127 16.584238 4.004233 16.607771 C 3.968528 16.631304 3.9312 16.651185 3.892249 16.667416 C 3.853298 16.683643 3.812724 16.695816 3.770527 16.703932 C 3.729548 16.712452 3.687757 16.716509 3.645154 16.716103 C 3.602551 16.716509 3.560558 16.712656 3.519172 16.70454 C 3.477787 16.695614 3.437416 16.683239 3.398059 16.667416 C 3.359108 16.651185 3.321983 16.631507 3.286684 16.608379 C 3.251384 16.584442 3.218722 16.557459 3.188697 16.527435 C 3.158673 16.49741 3.131894 16.464951 3.108361 16.430058 C 3.084829 16.394352 3.064948 16.357025 3.048718 16.318073 C 3.032488 16.279123 3.020316 16.238548 3.012201 16.196352 C 3.00368 16.155372 2.999623 16.113581 3.00003 16.070978 C 2.999624 16.028376 3.003478 15.986382 3.011593 15.944997 C 3.020519 15.903611 3.032894 15.86324 3.048718 15.823885 C 3.064948 15.784933 3.084626 15.747808 3.107753 15.712509 C 3.131692 15.67721 3.158674 15.644547 3.188698 15.614523 L 3.645154 15.158067 L 3.188698 14.701611 Z M 8.958379 15.975547 L 4.045527 11.062695 L 11.139004 3.969532 L 16.051563 8.88211 L 8.958379 15.975547 Z M 14.092733 4.926914 C 14.373886 4.645469 14.830255 4.645469 15.111718 4.927188 C 15.393145 5.20834 15.393145 5.664707 15.111718 5.946172 C 14.830274 6.227871 14.373886 6.227871 14.092733 5.946445 C 13.811289 5.664726 13.811289 5.20836 14.092733 4.926914 Z M 15.807637 5.946152 C 15.526191 5.664707 15.526191 5.20834 15.807637 4.927188 C 16.089081 4.645469 16.54545 4.645469 16.826601 4.926894 C 17.108047 5.20834 17.108047 5.664707 16.826601 5.946425 C 16.54545 6.227871 16.089081 6.227871 15.807637 5.946152 Z M 14.092714 4.23125 C 13.811289 3.949823 13.811289 3.493418 14.092442 3.212265 C 14.373886 2.93084 14.830255 2.93084 15.111699 3.212265 C 15.393125 3.493418 15.393125 3.949823 15.111699 4.23125 C 14.830255 4.512695 14.373867 4.512695 14.092714 4.23125 Z M 15.807637 3.212265 C 16.089062 2.93082 16.545429 2.93082 16.826876 3.212265 C 17.10832 3.493418 17.10832 3.949823 16.826876 4.23125 C 16.54545 4.512695 16.089081 4.512695 15.807637 4.23125 C 15.526191 3.949823 15.526191 3.493418 15.807637 3.212265 Z"/>
</svg>
