<?xml version="1.0" encoding="UTF-8"?>
<!-- Generated by Pixelmator Pro 3.7 -->
<svg width="20" height="20" viewBox="0 0 20 20" xmlns="http://www.w3.org/2000/svg">
    <path id="path1" fill="#4c97ff" stroke="none" d="M 16.623579 15.181818 L 2.71733 15.181818 C 2.070121 15.181818 1.545455 14.657152 1.545455 14.009943 L 1.545455 6.353693 C 1.545455 5.706485 2.070121 5.181818 2.71733 5.181818 L 16.623579 5.181818 C 17.270788 5.181818 17.795454 5.706485 17.795454 6.353693 L 17.795454 14.009943 C 17.795454 14.657152 17.270788 15.181818 16.623579 15.181818 Z M 5.451705 12.838068 L 5.451705 9.791193 L 7.014205 11.744318 L 8.576705 9.791193 L 8.576705 12.838068 L 10.139205 12.838068 L 10.139205 7.525568 L 8.576705 7.525568 L 7.014205 9.478693 L 5.451705 7.525568 L 3.889205 7.525568 L 3.889205 12.838068 Z M 15.920455 10.181818 L 14.357955 10.181818 L 14.357955 7.525568 L 12.795455 7.525568 L 12.795455 10.181818 L 11.232955 10.181818 L 13.576705 12.916193 Z"/>
</svg>
