<?xml version="1.0" encoding="UTF-8"?>
<!-- Generated by Pixelmator Pro 3.6.13 -->
<svg width="20" height="20" viewBox="0 0 20 20" xmlns="http://www.w3.org/2000/svg">
    <path id="path1" fill="#575e75" stroke="none" d="M 8.233685 3.596849 L 3.517431 8.879186 C 3.314332 9.106452 3.27123 9.434947 3.408822 9.706916 L 6.566704 15.943692 C 6.7245 16.255949 7.079304 16.415165 7.417473 16.32547 L 15.779524 14.095697 L 15.871678 14.064431 C 16.110212 13.965725 16.280127 13.749921 16.32011 13.494887 C 16.360098 13.239853 16.264381 12.982404 16.067503 12.815432 L 12.644681 9.912615 L 15.447118 6.008458 C 15.590555 5.808644 15.625417 5.550649 15.540155 5.319932 C 15.454893 5.089214 15.260637 4.915889 15.021733 4.85737 L 8.961857 3.371405 C 8.695711 3.306131 8.415275 3.393175 8.232861 3.597673 Z M 9.040845 4.915789 L 13.605704 6.034788 L 11.044348 9.604067 L 10.994158 9.684701 C 10.828372 9.992475 10.900409 10.374267 11.166945 10.60047 L 14.031088 13.028534 L 7.616589 14.739122 L 4.958965 9.488053 L 9.040845 4.915789 Z"/>
</svg>
