<?xml version="1.0" encoding="UTF-8"?>
<!-- Generated by Pixelmator Pro 3.6.17 -->
<svg width="20" height="20" viewBox="0 0 20 20" xmlns="http://www.w3.org/2000/svg">
    <path id="path1" fill="#ffffff" stroke="none" d="M 17.835732 1.956238 C 18.782234 1.956202 19.549662 2.723259 19.550083 3.669762 L 19.54998 16.241533 C 19.549934 17.188194 18.782564 17.955622 17.835905 17.95574 L 1.835853 17.955763 C 0.889351 17.955801 0.121923 17.188744 0.121501 16.242243 L 0.121754 3.669914 C 0.121717 2.723413 0.888774 1.955986 1.835275 1.955564 L 17.83588 1.955685 Z M 2.40715 10.52707 C 1.993645 10.51905 1.60807 10.735057 1.398962 11.091883 C 1.189855 11.448709 1.189845 11.890667 1.398938 12.2475 C 1.60803 12.604336 1.993597 12.82036 2.407101 12.812357 C 3.029536 12.800307 3.527826 12.29229 3.527839 11.669737 C 3.527852 11.047186 3.029585 10.539146 2.40715 10.52707 Z M 17.264357 10.52667 C 16.633141 10.526616 16.121395 11.038276 16.12134 11.669492 C 16.121286 12.300709 16.632944 12.812454 17.264162 12.812508 C 17.895378 12.812562 18.407124 12.300904 18.407177 11.669688 C 18.40723 11.038471 17.895575 10.526725 17.264357 10.52667 Z M 12.692927 5.955156 L 6.978113 5.955492 C 5.400122 5.955779 4.12114 7.235226 4.121426 8.813217 C 4.121713 10.391208 5.401159 11.67019 6.97915 11.669905 L 12.692712 11.669824 C 14.270775 11.669884 15.550095 10.390657 15.550154 8.812598 C 15.550214 7.234535 14.270989 5.955216 12.692927 5.955156 Z M 12.69326 6.9077 C 13.745287 6.907789 14.598051 7.760699 14.597961 8.812728 C 14.597869 9.864756 13.74496 10.717518 12.692933 10.717428 L 6.978266 10.717214 C 5.926238 10.717123 5.073474 9.864214 5.073565 8.812185 C 5.073655 7.760159 5.926566 6.907394 6.978593 6.907484 Z M 7.454663 8.336537 C 7.191625 8.336628 6.978465 8.549937 6.978557 8.812976 C 6.978648 9.076014 7.191958 9.289171 7.454995 9.289081 C 7.718032 9.288987 7.931192 9.07568 7.9311 8.812644 C 7.931008 8.549606 7.7177 8.336447 7.454663 8.336537 Z M 12.216935 8.336532 C 11.953938 8.336473 11.740687 8.549624 11.740627 8.812621 C 11.740565 9.075616 11.953719 9.288866 12.216716 9.288928 C 12.479711 9.288986 12.692961 9.075835 12.693023 8.812839 C 12.693083 8.549844 12.479932 8.336594 12.216935 8.336532 Z M 6.449275 3.09841 L 2.407097 3.097916 C 2.103946 3.097927 1.813219 3.218384 1.598892 3.432775 C 1.384565 3.647169 1.2642 3.937933 1.264283 4.241086 L 1.264353 8.241412 L 6.449275 3.09841 Z M 9.139313 3.098059 L 6.449827 3.098558 L 6.449729 5.732865 L 9.139313 3.098059 Z M 10.501723 3.098108 L 9.139313 3.098059 L 9.13913 4.419024 L 10.501723 3.098108 Z"/>
</svg>
