<?xml version="1.0" encoding="UTF-8"?>
<!-- Generated by Pixelmator Pro 3.7.1 -->
<svg width="20" height="20" viewBox="0 0 20 20" xmlns="http://www.w3.org/2000/svg">
    <path id="path1" fill="#ffffff" stroke="none" d="M 13.058102 12.892643 L 15.326172 12.892643 C 15.346333 12.892643 15.363133 12.896002 15.379933 12.899363 C 15.396734 12.902723 15.416895 12.909443 15.433696 12.916162 C 15.450496 12.922883 15.467297 12.932963 15.484097 12.943044 C 15.500897 12.953125 15.514338 12.966564 15.527779 12.976645 C 15.541219 12.990085 15.551299 13.003527 15.561379 13.020327 C 15.57146 13.037127 15.58154 13.050568 15.58826 13.070728 C 15.59498 13.087528 15.601701 13.104329 15.605061 13.124489 C 15.60842 13.14465 15.611781 13.16145 15.611781 13.178251 L 15.611781 15.446321 C 15.611781 15.466482 15.60842 15.483282 15.605061 15.500083 C 15.601701 15.516884 15.59498 15.537045 15.58826 15.553844 C 15.58154 15.570645 15.57146 15.587446 15.561379 15.604246 C 15.551299 15.621047 15.537859 15.634487 15.527779 15.647927 C 15.514338 15.661367 15.500897 15.671448 15.484097 15.681528 C 15.467297 15.691609 15.453856 15.701689 15.433696 15.70841 C 15.416895 15.71513 15.400094 15.721849 15.379933 15.72521 C 15.363133 15.728569 15.342973 15.73193 15.326172 15.73193 L 13.058102 15.73193 C 13.037941 15.73193 13.021141 15.728569 13.00434 15.72521 C 12.987539 15.721849 12.96738 15.71513 12.950579 15.70841 C 12.933778 15.701689 12.916978 15.691609 12.900177 15.681528 C 12.883376 15.671448 12.869936 15.658009 12.856496 15.647927 C 12.843056 15.634487 12.832975 15.621047 12.822895 15.604246 C 12.812815 15.587446 12.802734 15.574005 12.796014 15.553844 C 12.789293 15.537045 12.782574 15.520244 12.779213 15.500083 C 12.775853 15.483282 12.772493 15.463121 12.772493 15.446321 L 12.772493 13.178251 C 12.772493 13.158091 12.775853 13.14129 12.779213 13.124489 C 12.782574 13.107689 12.789293 13.087528 12.796014 13.070728 C 12.802734 13.053928 12.812815 13.037127 12.822895 13.020327 C 12.832975 13.003527 12.846416 12.990085 12.856496 12.976645 C 12.869936 12.963204 12.883376 12.953125 12.900177 12.943044 C 12.916978 12.932963 12.930418 12.922883 12.950579 12.916162 C 12.96738 12.909443 12.984179 12.902723 13.00434 12.899363 C 13.021141 12.892643 13.041302 12.892643 13.058102 12.892643 Z M 10.790031 10.624572 L 12.490244 10.624572 C 12.510405 10.624572 12.527205 10.627933 12.544006 10.631292 C 12.560806 10.634652 12.580967 10.641373 12.597768 10.648093 C 12.614568 10.654813 12.631369 10.664893 12.64817 10.674973 C 12.664969 10.685054 12.678411 10.698494 12.691851 10.708574 C 12.705291 10.722015 12.715371 10.735456 12.725451 10.752256 C 12.735532 10.769056 12.745612 10.782497 12.752333 10.802658 C 12.759052 10.819458 12.765773 10.836259 12.769133 10.85642 C 12.772493 10.873219 12.775853 10.89338 12.775853 10.910181 L 12.775853 12.610394 C 12.775853 12.630554 12.772493 12.647354 12.769133 12.664155 C 12.765773 12.680956 12.759052 12.701117 12.752333 12.717917 C 12.745612 12.734718 12.735532 12.751518 12.725451 12.768318 C 12.715371 12.78512 12.701931 12.798559 12.691851 12.812 C 12.678411 12.82544 12.664969 12.835521 12.64817 12.8456 C 12.631369 12.85568 12.617929 12.865761 12.597768 12.872481 C 12.580967 12.879202 12.564167 12.885922 12.544006 12.889282 C 12.527205 12.892643 12.507045 12.896002 12.490244 12.896002 L 10.790031 12.896002 C 10.769871 12.896002 10.753071 12.892643 10.73627 12.889282 C 10.71947 12.885922 10.699309 12.879202 10.682508 12.872481 C 10.665708 12.865761 10.648908 12.85568 10.632107 12.8456 C 10.615307 12.835521 10.601866 12.82208 10.588426 12.812 C 10.574986 12.798559 10.564905 12.78512 10.554825 12.768318 C 10.544744 12.751518 10.534664 12.738077 10.527944 12.717917 C 10.521223 12.701117 10.514503 12.684317 10.511143 12.664155 C 10.507783 12.647354 10.504423 12.627193 10.504423 12.610394 L 10.504423 10.910181 C 10.504423 10.89002 10.507783 10.873219 10.511143 10.85642 C 10.514503 10.839619 10.521223 10.819458 10.527944 10.802658 C 10.534664 10.785857 10.544744 10.769056 10.554825 10.752256 C 10.564905 10.735456 10.578345 10.722015 10.588426 10.708574 C 10.601866 10.695134 10.615307 10.685054 10.632107 10.674973 C 10.648908 10.664893 10.662348 10.654813 10.682508 10.648093 C 10.699309 10.641373 10.716109 10.634652 10.73627 10.631292 C 10.753071 10.624572 10.773232 10.624572 10.790031 10.624572 Z M 15.89403 15.728569 L 17.594242 15.728569 C 17.614403 15.728569 17.631203 15.73193 17.648005 15.735291 C 17.664804 15.73865 17.684965 15.74537 17.701765 15.75209 C 17.718567 15.758812 17.735367 15.768891 17.752167 15.778971 C 17.768967 15.789052 17.782408 15.802492 17.795849 15.812572 C 17.809288 15.826014 17.819368 15.839454 17.829449 15.856255 C 17.839529 15.873055 17.849609 15.886495 17.856331 15.906656 C 17.86305 15.923456 17.86977 15.940256 17.873131 15.960418 C 17.876492 15.977219 17.87985 15.997377 17.87985 16.014179 L 17.87985 17.714392 C 17.87985 17.734552 17.876492 17.751352 17.873131 17.768152 C 17.86977 17.784954 17.86305 17.805115 17.856331 17.821915 C 17.849609 17.838715 17.839529 17.855516 17.829449 17.872316 C 17.819368 17.889116 17.805929 17.902557 17.795849 17.915997 C 17.782408 17.929438 17.768967 17.939518 17.752167 17.949598 C 17.735367 17.959679 17.721926 17.969759 17.701765 17.97648 C 17.684965 17.9832 17.668165 17.98992 17.648005 17.99328 C 17.631203 17.996639 17.611042 18 17.594242 18 L 15.89403 18 C 15.873869 18 15.857068 17.996639 15.840268 17.99328 C 15.823467 17.98992 15.803307 17.9832 15.786507 17.97648 C 15.769706 17.969759 15.752905 17.959679 15.736105 17.949598 C 15.719304 17.939518 15.705864 17.926079 15.692424 17.915997 C 15.678983 17.902557 15.668902 17.889116 15.658822 17.872316 C 15.648742 17.855516 15.638661 17.842075 15.631942 17.821915 C 15.625221 17.805115 15.618501 17.788315 15.615141 17.768152 C 15.611781 17.751352 15.60842 17.731192 15.60842 17.714392 L 15.60842 16.014179 C 15.60842 15.994019 15.611781 15.977219 15.615141 15.960418 C 15.618501 15.943617 15.625221 15.923456 15.631942 15.906656 C 15.638661 15.889855 15.648742 15.873055 15.658822 15.856255 C 15.668902 15.839454 15.682343 15.826014 15.692424 15.812572 C 15.705864 15.799131 15.719304 15.789052 15.736105 15.778971 C 15.752905 15.768891 15.766346 15.758812 15.786507 15.75209 C 15.806667 15.74537 15.820107 15.73865 15.840268 15.735291 C 15.857068 15.728569 15.873869 15.728569 15.89403 15.728569 Z M 16.461887 10.624572 L 17.597603 10.624572 C 17.617764 10.624572 17.634563 10.627933 17.651363 10.631292 C 17.668165 10.634652 17.688326 10.641373 17.705126 10.648093 C 17.721926 10.654813 17.738728 10.664893 17.755527 10.674973 C 17.772327 10.685054 17.785769 10.698494 17.799208 10.708574 C 17.812649 10.722015 17.822729 10.735456 17.832809 10.752256 C 17.84289 10.769056 17.85297 10.782497 17.85969 10.802658 C 17.866411 10.822818 17.873131 10.836259 17.876492 10.85642 C 17.87985 10.873219 17.883211 10.89338 17.883211 10.910181 L 17.883211 12.045897 C 17.883211 12.066056 17.87985 12.082857 17.876492 12.099657 C 17.873131 12.116458 17.866411 12.13662 17.85969 12.153419 C 17.85297 12.170219 17.84289 12.18702 17.832809 12.203821 C 17.822729 12.220621 17.809288 12.234062 17.799208 12.247503 C 17.785769 12.260942 17.772327 12.271023 17.755527 12.281103 C 17.738728 12.291183 17.725286 12.301264 17.705126 12.307984 C 17.688326 12.314705 17.671524 12.321424 17.651363 12.324785 C 17.634563 12.328145 17.614403 12.331505 17.597603 12.331505 L 16.461887 12.331505 C 16.441727 12.331505 16.424927 12.328145 16.408125 12.324785 C 16.391325 12.321424 16.371164 12.314705 16.354364 12.307984 C 16.337563 12.301264 16.320763 12.291183 16.303963 12.281103 C 16.287161 12.271023 16.273722 12.257583 16.260281 12.247503 C 16.246841 12.237422 16.236761 12.220621 16.226681 12.203821 C 16.2166 12.18702 16.20652 12.17358 16.199799 12.153419 C 16.193079 12.13662 16.186359 12.119818 16.182999 12.099657 C 16.179638 12.082857 16.176279 12.062696 16.176279 12.045897 L 16.176279 10.910181 C 16.176279 10.89002 16.179638 10.873219 16.182999 10.85642 C 16.186359 10.839619 16.193079 10.819458 16.199799 10.802658 C 16.20652 10.785857 16.2166 10.769056 16.226681 10.752256 C 16.236761 10.735456 16.2502 10.722015 16.260281 10.708574 C 16.273722 10.695134 16.287161 10.685054 16.303963 10.674973 C 16.320763 10.664893 16.334204 10.654813 16.354364 10.648093 C 16.371164 10.641373 16.387964 10.634652 16.408125 10.631292 C 16.424927 10.624572 16.441727 10.624572 16.461887 10.624572 Z M 10.790031 16.293068 L 11.925747 16.293068 C 11.945908 16.293068 11.962708 16.296429 11.979508 16.299788 C 11.996309 16.303148 12.01647 16.309868 12.03327 16.316587 C 12.050071 16.323309 12.066872 16.333389 12.083672 16.34347 C 12.100472 16.35355 12.113913 16.366989 12.127353 16.377069 C 12.140794 16.38715 12.150874 16.40395 12.160954 16.420752 C 12.171035 16.437551 12.181115 16.450993 12.187835 16.471153 C 12.194555 16.487953 12.201276 16.504753 12.204636 16.524914 C 12.207995 16.541716 12.211356 16.561876 12.211356 16.578676 L 12.211356 17.714392 C 12.211356 17.734552 12.207995 17.751352 12.204636 17.768152 C 12.201276 17.784954 12.194555 17.805115 12.187835 17.821915 C 12.181115 17.838715 12.171035 17.855516 12.160954 17.872316 C 12.150874 17.889116 12.137433 17.902557 12.127353 17.915997 C 12.113913 17.929438 12.100472 17.939518 12.083672 17.949598 C 12.066872 17.959679 12.053431 17.969759 12.03327 17.97648 C 12.013109 17.9832 11.999669 17.98992 11.979508 17.99328 C 11.962708 17.996639 11.942548 18 11.925747 18 L 10.790031 18 C 10.769871 18 10.753071 17.996639 10.73627 17.99328 C 10.71947 17.98992 10.699309 17.9832 10.682508 17.97648 C 10.665708 17.969759 10.648908 17.959679 10.632107 17.949598 C 10.615307 17.939518 10.601866 17.926079 10.588426 17.915997 C 10.574986 17.902557 10.564905 17.889116 10.554825 17.872316 C 10.544744 17.855516 10.534664 17.842075 10.527944 17.821915 C 10.521223 17.801754 10.514503 17.788315 10.511143 17.768152 C 10.507783 17.751352 10.504423 17.731192 10.504423 17.714392 L 10.504423 16.578676 C 10.504423 16.558516 10.507783 16.541716 10.511143 16.524914 C 10.514503 16.508114 10.521223 16.487953 10.527944 16.471153 C 10.534664 16.454351 10.544744 16.437551 10.554825 16.420752 C 10.564905 16.40395 10.578345 16.390511 10.588426 16.377069 C 10.601866 16.36363 10.615307 16.35355 10.632107 16.34347 C 10.648908 16.333389 10.662348 16.323309 10.682508 16.316587 C 10.702669 16.309868 10.716109 16.303148 10.73627 16.299788 C 10.753071 16.296429 10.773232 16.293068 10.790031 16.293068 Z M 7.103998 15.442961 C 7.103998 15.463121 7.100638 15.479922 7.097278 15.496723 C 7.093917 15.513523 7.087197 15.533684 7.080477 15.550485 C 7.073757 15.567286 7.063676 15.584085 7.053596 15.600885 C 7.043516 15.617687 7.030076 15.631126 7.019995 15.644567 C 7.006555 15.658009 6.993114 15.668088 6.976314 15.678167 C 6.959513 15.68825 6.946073 15.698329 6.925912 15.70505 C 6.909112 15.711769 6.892311 15.71849 6.87215 15.721849 C 6.85199 15.72521 6.835189 15.728569 6.818389 15.728569 L 4.553679 15.728569 C 4.533518 15.728569 4.516718 15.72521 4.499918 15.721849 C 4.483117 15.71849 4.462956 15.711769 4.446156 15.70505 C 4.429355 15.698329 4.412555 15.68825 4.395754 15.678167 C 4.378953 15.668088 4.365513 15.654648 4.352073 15.644567 C 4.338632 15.631126 4.328552 15.617687 4.318472 15.600885 C 4.308392 15.584085 4.298311 15.570645 4.291591 15.550485 C 4.284871 15.533684 4.278151 15.516884 4.27479 15.496723 C 4.27143 15.479922 4.26807 15.459761 4.26807 15.442961 L 4.26807 13.174891 C 4.26807 13.154731 4.27143 13.13793 4.27479 13.12113 C 4.278151 13.104329 4.284871 13.084168 4.291591 13.067368 C 4.298311 13.050568 4.308392 13.033767 4.318472 13.016966 C 4.328552 13.000166 4.341992 12.986726 4.352073 12.973284 C 4.365513 12.959845 4.378953 12.949764 4.395754 12.939684 C 4.412555 12.929604 4.425995 12.919523 4.446156 12.912803 C 4.462956 12.906082 4.479757 12.899363 4.499918 12.896002 C 4.520078 12.892643 4.536879 12.889282 4.553679 12.889282 L 6.821749 12.889282 C 6.84191 12.889282 6.85871 12.892643 6.875511 12.896002 C 6.892311 12.899363 6.912472 12.906082 6.929273 12.912803 C 6.946073 12.919523 6.962873 12.929604 6.979674 12.939684 C 6.996474 12.949764 7.009915 12.963204 7.023355 12.973284 C 7.036796 12.986726 7.046876 13.000166 7.056956 13.016966 C 7.067037 13.033767 7.077117 13.047207 7.083837 13.067368 C 7.090558 13.084168 7.097278 13.100969 7.100638 13.12113 C 7.103998 13.13793 7.107358 13.158091 7.107358 13.174891 L 7.107358 15.442961 Z M 8.239713 10.624572 L 3.135715 10.624572 C 3.098754 10.624572 3.061793 10.627933 3.024832 10.631292 C 2.98787 10.634652 2.950909 10.641373 2.913948 10.648093 C 2.876987 10.654813 2.840026 10.664893 2.806425 10.674973 C 2.769464 10.685054 2.735863 10.698494 2.702262 10.711935 C 2.668661 10.725375 2.63506 10.742176 2.601459 10.758976 C 2.567858 10.775777 2.537617 10.795938 2.507376 10.816098 C 2.477135 10.836259 2.446894 10.859779 2.416653 10.8833 C 2.357525 10.929029 2.304457 10.982097 2.258728 11.041225 C 2.235207 11.071465 2.211687 11.098347 2.191526 11.131948 C 2.171365 11.162189 2.151205 11.195789 2.134404 11.22603 C 2.117604 11.256271 2.100803 11.293233 2.087363 11.326834 C 2.073922 11.360435 2.060482 11.397396 2.050401 11.430997 C 2.040321 11.467958 2.030241 11.501559 2.023521 11.538521 C 2.0168 11.575481 2.01008 11.612443 2.00672 11.649404 C 2.00336 11.686365 2 11.723326 2 11.760287 L 2 16.864285 C 2 16.901247 2.00336 16.938208 2.00672 16.975168 C 2.01008 17.012129 2.0168 17.049091 2.023521 17.086052 C 2.030241 17.123013 2.040321 17.159973 2.050401 17.193575 C 2.060482 17.230537 2.073922 17.264137 2.087363 17.297739 C 2.100803 17.331339 2.117604 17.364941 2.134404 17.398542 C 2.151205 17.432142 2.171365 17.462383 2.191526 17.492624 C 2.211687 17.522865 2.235207 17.553106 2.258728 17.583347 C 2.304457 17.642475 2.357525 17.695543 2.416653 17.741272 C 2.446894 17.764793 2.473775 17.788315 2.507376 17.808475 C 2.537617 17.828634 2.571218 17.848795 2.601459 17.865597 C 2.63506 17.882397 2.668661 17.899197 2.702262 17.912638 C 2.735863 17.926079 2.772824 17.939518 2.806425 17.949598 C 2.843386 17.959679 2.876987 17.969759 2.913948 17.97648 C 2.950909 17.9832 2.98787 17.98992 3.024832 17.99328 C 3.061793 17.996639 3.098754 18 3.135715 18 L 8.239713 18 C 8.276674 18 8.313635 17.996639 8.350596 17.99328 C 8.387558 17.98992 8.424519 17.9832 8.46148 17.97648 C 8.498441 17.969759 8.535402 17.959679 8.569003 17.949598 C 8.605965 17.939518 8.639565 17.926079 8.673166 17.912638 C 8.706767 17.899197 8.740369 17.882397 8.77397 17.865597 C 8.80757 17.848795 8.837811 17.828634 8.868052 17.808475 C 8.898293 17.788315 8.928535 17.764793 8.958776 17.741272 C 9.017903 17.695543 9.070971 17.642475 9.1167 17.583347 C 9.140221 17.553106 9.163741 17.526226 9.183902 17.492624 C 9.204062 17.462383 9.224223 17.428782 9.241024 17.398542 C 9.257825 17.364941 9.274625 17.331339 9.288065 17.297739 C 9.301506 17.264137 9.314946 17.227177 9.325027 17.193575 C 9.335107 17.156614 9.345187 17.123013 9.351908 17.086052 C 9.358627 17.049091 9.365348 17.012129 9.368708 16.975168 C 9.372068 16.938208 9.375428 16.901247 9.375428 16.864285 L 9.375428 11.756927 C 9.375428 11.719966 9.372068 11.683005 9.368708 11.646044 C 9.365348 11.609082 9.358627 11.572122 9.351908 11.53516 C 9.345187 11.498199 9.335107 11.461238 9.325027 11.427637 C 9.314946 11.390676 9.301506 11.357075 9.288065 11.323474 C 9.274625 11.289873 9.257825 11.256271 9.241024 11.222671 C 9.224223 11.18907 9.204062 11.158829 9.183902 11.128588 C 9.163741 11.098347 9.140221 11.068106 9.1167 11.037865 C 9.070971 10.978737 9.017903 10.925669 8.958776 10.87994 C 8.928535 10.85642 8.901653 10.832898 8.868052 10.812738 C 8.837811 10.792578 8.804211 10.772417 8.77397 10.755616 C 8.743729 10.738815 8.706767 10.722015 8.673166 10.708574 C 8.639565 10.695134 8.602604 10.681694 8.569003 10.671614 C 8.532042 10.661533 8.498441 10.651453 8.46148 10.644732 C 8.424519 10.638013 8.387558 10.631292 8.350596 10.627933 C 8.313635 10.624572 8.276674 10.624572 8.239713 10.624572 Z M 7.103998 6.938539 C 7.103998 6.958699 7.100638 6.975499 7.097278 6.9923 C 7.093917 7.0091 7.087197 7.029261 7.080477 7.046062 C 7.073757 7.062862 7.063676 7.079662 7.053596 7.096463 C 7.043516 7.113263 7.030076 7.126704 7.019995 7.140144 C 7.006555 7.153584 6.993114 7.163665 6.976314 7.173745 C 6.959513 7.183825 6.946073 7.193906 6.925912 7.200626 C 6.909112 7.207347 6.892311 7.214067 6.87215 7.217427 C 6.85535 7.220787 6.835189 7.224147 6.818389 7.224147 L 4.553679 7.224147 C 4.533518 7.224147 4.516718 7.220787 4.499918 7.217427 C 4.483117 7.214067 4.462956 7.207347 4.446156 7.200626 C 4.429355 7.193906 4.412555 7.183825 4.395754 7.173745 C 4.378953 7.163665 4.365513 7.150225 4.352073 7.140144 C 4.338632 7.126704 4.328552 7.113263 4.318472 7.096463 C 4.308392 7.079662 4.298311 7.066222 4.291591 7.046062 C 4.284871 7.029261 4.278151 7.012461 4.27479 6.9923 C 4.27143 6.975499 4.26807 6.955338 4.26807 6.938539 L 4.26807 4.670468 C 4.26807 4.650308 4.27143 4.633507 4.27479 4.616707 C 4.278151 4.599906 4.284871 4.579745 4.291591 4.562944 C 4.298311 4.546144 4.308392 4.529344 4.318472 4.512543 C 4.328552 4.495743 4.341992 4.482303 4.352073 4.468862 C 4.365513 4.455421 4.378953 4.445341 4.395754 4.435261 C 4.412555 4.42518 4.425995 4.4151 4.446156 4.40838 C 4.466316 4.40166 4.479757 4.394939 4.499918 4.39158 C 4.516718 4.388219 4.536879 4.384859 4.553679 4.384859 L 6.821749 4.384859 C 6.84191 4.384859 6.85871 4.388219 6.875511 4.39158 C 6.892311 4.394939 6.912472 4.40166 6.929273 4.40838 C 6.946073 4.4151 6.962873 4.42518 6.979674 4.435261 C 6.996474 4.445341 7.009915 4.458781 7.023355 4.468862 C 7.036796 4.482303 7.046876 4.495743 7.056956 4.512543 C 7.067037 4.529344 7.077117 4.542784 7.083837 4.562944 C 7.090558 4.583105 7.097278 4.596546 7.100638 4.616707 C 7.103998 4.633507 7.107358 4.653667 7.107358 4.670468 L 7.107358 6.938539 Z M 8.239713 2.12015 L 3.135715 2.12015 C 3.098754 2.12015 3.061793 2.123508 3.024832 2.126869 C 2.98787 2.13023 2.950909 2.13695 2.913948 2.143669 C 2.876987 2.150391 2.840026 2.160471 2.806425 2.170551 C 2.769464 2.180632 2.735863 2.194071 2.702262 2.207512 C 2.668661 2.220953 2.63506 2.237753 2.601459 2.254553 C 2.567858 2.271355 2.537617 2.291515 2.507376 2.311676 C 2.477135 2.331835 2.446894 2.355356 2.416653 2.378878 C 2.357525 2.424606 2.304457 2.477674 2.258728 2.536802 C 2.235207 2.567043 2.211687 2.593924 2.191526 2.627525 C 2.171365 2.657766 2.151205 2.691366 2.134404 2.721607 C 2.117604 2.755209 2.100803 2.788811 2.087363 2.822411 C 2.073922 2.856012 2.060482 2.892973 2.050401 2.926575 C 2.040321 2.963535 2.030241 2.997137 2.023521 3.034098 C 2.0168 3.071058 2.01008 3.108019 2.00672 3.144981 C 2.00336 3.181942 2 3.218903 2 3.255865 L 2 8.359862 C 2 8.396823 2.00336 8.433784 2.00672 8.470745 C 2.01008 8.507707 2.0168 8.544668 2.023521 8.581629 C 2.030241 8.61859 2.040321 8.655551 2.050401 8.689153 C 2.060482 8.726113 2.073922 8.759714 2.087363 8.793316 C 2.100803 8.826917 2.117604 8.860518 2.134404 8.894118 C 2.151205 8.92772 2.171365 8.957961 2.191526 8.988201 C 2.211687 9.018442 2.235207 9.048683 2.258728 9.078924 C 2.304457 9.138053 2.357525 9.19112 2.416653 9.236849 C 2.446894 9.26037 2.473775 9.283891 2.507376 9.304051 C 2.537617 9.324212 2.571218 9.344373 2.601459 9.361173 C 2.63506 9.377974 2.668661 9.394774 2.702262 9.408215 C 2.735863 9.421655 2.772824 9.435096 2.806425 9.445176 C 2.843386 9.455256 2.876987 9.465336 2.913948 9.472056 C 2.950909 9.478777 2.98787 9.485497 3.024832 9.488857 C 3.061793 9.492217 3.098754 9.495577 3.135715 9.495577 L 8.239713 9.495577 C 8.276674 9.495577 8.313635 9.492217 8.350596 9.488857 C 8.387558 9.485497 8.424519 9.478777 8.46148 9.472056 C 8.498441 9.465336 8.535402 9.455256 8.569003 9.445176 C 8.605965 9.435096 8.639565 9.421655 8.673166 9.408215 C 8.706767 9.394774 8.740369 9.377974 8.77397 9.361173 C 8.80757 9.344373 8.837811 9.324212 8.868052 9.304051 C 8.898293 9.283891 8.928535 9.26037 8.958776 9.236849 C 9.017903 9.19112 9.070971 9.138053 9.1167 9.078924 C 9.140221 9.048683 9.163741 9.021803 9.183902 8.988201 C 9.204062 8.9546 9.224223 8.924359 9.241024 8.894118 C 9.257825 8.863877 9.274625 8.826917 9.288065 8.793316 C 9.301506 8.759714 9.314946 8.722754 9.325027 8.689153 C 9.335107 8.655551 9.345187 8.61859 9.351908 8.581629 C 9.358627 8.544668 9.365348 8.507707 9.368708 8.470745 C 9.372068 8.433784 9.375428 8.396823 9.375428 8.359862 L 9.375428 3.252504 C 9.375428 3.215544 9.372068 3.178581 9.368708 3.141621 C 9.365348 3.10466 9.358627 3.067698 9.351908 3.030737 C 9.345187 2.993776 9.335107 2.956816 9.325027 2.923214 C 9.314946 2.889612 9.301506 2.852652 9.288065 2.81905 C 9.274625 2.78545 9.257825 2.751848 9.241024 2.718248 C 9.224223 2.684647 9.204062 2.654406 9.183902 2.624165 C 9.163741 2.593924 9.140221 2.563683 9.1167 2.533442 C 9.070971 2.474314 9.017903 2.421246 8.958776 2.375517 C 8.928535 2.351995 8.901653 2.328476 8.868052 2.308315 C 8.837811 2.288155 8.804211 2.267994 8.77397 2.251194 C 8.743729 2.234392 8.706767 2.217592 8.673166 2.204151 C 8.639565 2.190712 8.602604 2.177271 8.569003 2.167191 C 8.532042 2.15711 8.498441 2.14703 8.46148 2.14031 C 8.424519 2.133589 8.387558 2.126869 8.350596 2.123508 C 8.313635 2.12015 8.276674 2.12015 8.239713 2.12015 Z M 15.60842 6.938539 C 15.60842 6.958699 15.605061 6.975499 15.601701 6.9923 C 15.59834 7.0091 15.59162 7.029261 15.5849 7.046062 C 15.57818 7.062862 15.5681 7.079662 15.55802 7.096463 C 15.547939 7.113263 15.534498 7.126704 15.524418 7.140144 C 15.510978 7.153584 15.497538 7.163665 15.480737 7.173745 C 15.463936 7.183825 15.450496 7.193906 15.430335 7.200626 C 15.413535 7.207347 15.396734 7.214067 15.376574 7.217427 C 15.359773 7.220787 15.339612 7.224147 15.322812 7.224147 L 13.054742 7.224147 C 13.034581 7.224147 13.01778 7.220787 13.00098 7.217427 C 12.984179 7.214067 12.964019 7.207347 12.947219 7.200626 C 12.930418 7.193906 12.913617 7.183825 12.896817 7.173745 C 12.880016 7.163665 12.866576 7.150225 12.853136 7.140144 C 12.839695 7.126704 12.829615 7.113263 12.819534 7.096463 C 12.809454 7.079662 12.799374 7.066222 12.792654 7.046062 C 12.785933 7.029261 12.779213 7.012461 12.775853 6.9923 C 12.772493 6.975499 12.769133 6.955338 12.769133 6.938539 L 12.769133 4.670468 C 12.769133 4.650308 12.772493 4.633507 12.775853 4.616707 C 12.779213 4.599906 12.785933 4.579745 12.792654 4.562944 C 12.799374 4.546144 12.809454 4.529344 12.819534 4.512543 C 12.829615 4.495743 12.843056 4.482303 12.853136 4.468862 C 12.863215 4.455421 12.880016 4.445341 12.896817 4.435261 C 12.913617 4.42518 12.927058 4.4151 12.947219 4.40838 C 12.964019 4.40166 12.98082 4.394939 13.00098 4.39158 C 13.01778 4.388219 13.037941 4.384859 13.054742 4.384859 L 15.322812 4.384859 C 15.342973 4.384859 15.359773 4.388219 15.376574 4.39158 C 15.393374 4.394939 15.413535 4.40166 15.430335 4.40838 C 15.447136 4.4151 15.463936 4.42518 15.480737 4.435261 C 15.497538 4.445341 15.510978 4.458781 15.524418 4.468862 C 15.537859 4.482303 15.547939 4.495743 15.55802 4.512543 C 15.5681 4.529344 15.57818 4.542784 15.5849 4.562944 C 15.59162 4.583105 15.59834 4.596546 15.601701 4.616707 C 15.605061 4.633507 15.60842 4.653667 15.60842 4.670468 L 15.60842 6.938539 Z M 16.744137 2.12015 L 11.640138 2.12015 C 11.603177 2.12015 11.566216 2.123508 11.529255 2.126869 C 11.492293 2.13023 11.455333 2.13695 11.418371 2.143669 C 11.38141 2.150391 11.344449 2.160471 11.310848 2.170551 C 11.273887 2.180632 11.240286 2.194071 11.206685 2.207512 C 11.173083 2.220953 11.139482 2.237753 11.105882 2.254553 C 11.072281 2.271355 11.04204 2.291515 11.011799 2.311676 C 10.981558 2.331835 10.951317 2.355356 10.921076 2.378878 C 10.861948 2.424606 10.80888 2.477674 10.763151 2.536802 C 10.739631 2.567043 10.716109 2.593924 10.695949 2.627525 C 10.675788 2.661125 10.655627 2.691366 10.638827 2.721607 C 10.622026 2.755209 10.605227 2.788811 10.591785 2.822411 C 10.578345 2.856012 10.564905 2.892973 10.554825 2.926575 C 10.544744 2.963535 10.534664 2.997137 10.527944 3.034098 C 10.521223 3.071058 10.514503 3.108019 10.511143 3.144981 C 10.507783 3.181942 10.504423 3.218903 10.504423 3.255865 L 10.504423 8.359862 C 10.504423 8.396823 10.507783 8.433784 10.511143 8.470745 C 10.514503 8.507707 10.521223 8.544668 10.527944 8.581629 C 10.534664 8.61859 10.544744 8.655551 10.554825 8.689153 C 10.564905 8.722754 10.578345 8.759714 10.591785 8.793316 C 10.605227 8.826917 10.622026 8.860518 10.638827 8.894118 C 10.655627 8.92772 10.675788 8.957961 10.695949 8.988201 C 10.716109 9.018442 10.739631 9.048683 10.763151 9.078924 C 10.80888 9.138053 10.861948 9.19112 10.921076 9.236849 C 10.951317 9.26037 10.978198 9.283891 11.011799 9.304051 C 11.04204 9.324212 11.075641 9.344373 11.105882 9.361173 C 11.139482 9.377974 11.173083 9.394774 11.206685 9.408215 C 11.240286 9.421655 11.277246 9.435096 11.310848 9.445176 C 11.347809 9.455256 11.38141 9.465336 11.418371 9.472056 C 11.455333 9.478777 11.492293 9.485497 11.529255 9.488857 C 11.566216 9.492217 11.603177 9.495577 11.640138 9.495577 L 16.744137 9.495577 C 16.781097 9.495577 16.818058 9.492217 16.855019 9.488857 C 16.891981 9.485497 16.928942 9.478777 16.965902 9.472056 C 17.002865 9.465336 17.039825 9.455256 17.073425 9.445176 C 17.110388 9.435096 17.143988 9.421655 17.177589 9.408215 C 17.211191 9.394774 17.244791 9.377974 17.278393 9.361173 C 17.311993 9.344373 17.342234 9.324212 17.372475 9.304051 C 17.402716 9.283891 17.432957 9.26037 17.463198 9.236849 C 17.522326 9.19112 17.575394 9.138053 17.621122 9.078924 C 17.644644 9.048683 17.668165 9.021803 17.688326 8.988201 C 17.708487 8.957961 17.728647 8.924359 17.745447 8.894118 C 17.762247 8.860518 17.779047 8.826917 17.792488 8.793316 C 17.805929 8.759714 17.819368 8.722754 17.829449 8.689153 C 17.839529 8.652191 17.849609 8.61859 17.856331 8.581629 C 17.86305 8.544668 17.86977 8.507707 17.873131 8.470745 C 17.876492 8.433784 17.87985 8.396823 17.87985 8.359862 L 17.87985 3.252504 C 17.87985 3.215544 17.876492 3.178581 17.873131 3.141621 C 17.86977 3.10466 17.86305 3.067698 17.856331 3.030737 C 17.849609 2.993776 17.839529 2.956816 17.829449 2.923214 C 17.819368 2.889612 17.805929 2.852652 17.792488 2.81905 C 17.779047 2.78545 17.762247 2.751848 17.745447 2.718248 C 17.728647 2.684647 17.708487 2.654406 17.688326 2.624165 C 17.668165 2.593924 17.644644 2.563683 17.621122 2.533442 C 17.575394 2.474314 17.522326 2.421246 17.463198 2.375517 C 17.432957 2.351995 17.406076 2.328476 17.372475 2.308315 C 17.342234 2.288155 17.308634 2.267994 17.278393 2.251194 C 17.244791 2.234392 17.211191 2.217592 17.177589 2.204151 C 17.143988 2.190712 17.107027 2.177271 17.073425 2.167191 C 17.036465 2.15711 17.002865 2.14703 16.965902 2.14031 C 16.928942 2.133589 16.891981 2.126869 16.855019 2.123508 C 16.818058 2.12015 16.781097 2.12015 16.744137 2.12015 Z"/>
</svg>
