<?xml version="1.0" encoding="UTF-8"?>
<!-- Generated by Pixelmator Pro 3.6.17 -->
<svg width="20" height="20" viewBox="0 0 20 20" xmlns="http://www.w3.org/2000/svg">
    <path id="path1" fill="#4c97ff" stroke="none" d="M 15.998605 3.972097 L 3.981864 3.972097 C 3.42875 3.972097 2.980469 4.420379 2.980469 4.973494 L 2.980469 14.987444 C 2.980469 15.540558 3.42875 15.988839 3.981864 15.988839 L 15.998605 15.988839 C 16.55172 15.988839 17 15.540558 17 14.987444 L 17 4.973494 C 17 4.420379 16.55172 3.972097 15.998605 3.972097 Z M 4.983259 10.981864 L 6.986049 8.979074 L 4.983259 6.976283 L 5.984654 5.974889 L 8.988839 8.979074 L 5.984654 11.983259 L 4.983259 10.981864 Z M 12.99442 11.983259 L 8.988839 11.983259 L 8.988839 10.981864 L 12.99442 10.981864 L 12.99442 11.983259 Z"/>
</svg>
