<?xml version="1.0" encoding="UTF-8"?>
<!-- Generated by Pixelmator Pro 3.6.11 -->
<svg width="20" height="20" viewBox="0 0 20 20" xmlns="http://www.w3.org/2000/svg">
    <path id="path1" fill="#ffffff" stroke="none" d="M 5.2 1.200001 L 14.8 1.200001 C 15.683656 1.200001 16.4 1.916344 16.4 2.799999 L 16.4 16.999996 C 16.4 17.999996 15.599999 18.799999 14.599999 18.799999 L 8.2 18.799999 C 5.2 18.799999 3.6 17.200001 3.6 14.199995 L 3.6 2.799999 C 3.6 1.916344 4.316344 1.200001 5.2 1.200001 Z M 5.6 2.799999 L 5.6 10 L 14.8 9.599999 L 14.400001 2.799999 L 5.6 2.799999 Z M 14 13.199993 C 14.441828 13.199993 14.8 12.841821 14.8 12.399993 C 14.8 11.958172 14.441828 11.599999 14 11.599999 C 13.558172 11.599999 13.200001 11.958172 13.200001 12.399993 C 13.200001 12.841821 13.558172 13.199993 14 13.199993 Z M 12.4 15.599999 C 12.841827 15.599999 13.200001 15.241828 13.200001 14.8 C 13.200001 14.358166 12.841827 13.999992 12.4 13.999992 C 11.958172 13.999992 11.599999 14.358166 11.599999 14.8 C 11.599999 15.241828 11.958172 15.599999 12.4 15.599999 Z M 8 12.799993 L 8 12.399993 C 8 11.958172 7.641835 11.599999 7.2 11.599999 C 6.758172 11.599999 6.4 11.958172 6.4 12.399993 L 6 12.799993 C 5.558172 12.799993 5.2 13.158165 5.2 13.599993 C 5.2 14.041821 5.558172 14.399994 6 14.399994 L 6.4 14.8 C 6.4 15.241828 6.758172 15.599999 7.2 15.599999 C 7.641835 15.599999 8 15.241828 8 14.8 L 8.4 14.399994 C 8.841827 14.399994 9.2 14.041821 9.2 13.599993 C 9.2 13.158165 8.841827 12.799993 8.4 12.799993 L 8 12.799993 Z"/>
</svg>
