<?xml version="1.0" encoding="UTF-8"?>
<!-- Generated by Pixelmator Pro 3.7 -->
<svg width="314" height="260" viewBox="0 0 314 260" xmlns="http://www.w3.org/2000/svg">
    <g id="iot-bit">
        <path id="Shape" fill="#231f20" stroke="#231f20" stroke-width="15.532567" opacity="0.1" d="M 281.05365 18 L 32.532566 18 C 23.989655 18 17 24.989655 17 33.532562 L 17 227.689651 C 17 234.679306 21.465612 240.504013 27.67864 242.445587 C 29.231897 242.833908 30.785152 243.222229 32.532566 243.222229 L 281.05365 243.222229 C 282.801056 243.222229 284.354309 243.028046 285.907562 242.445587 C 292.120605 240.504013 296.586212 234.679306 296.586212 227.689651 L 296.586212 33.532562 C 296.586212 24.989655 289.79071 18 281.05365 18 Z M 40.298851 214.875275 C 34.86245 214.875275 30.590996 210.603821 30.590996 205.167419 C 30.590996 199.731018 34.86245 195.459564 40.298851 195.459564 C 45.735249 195.459564 50.006706 199.731018 50.006706 205.167419 C 50.006706 210.603821 45.735249 214.875275 40.298851 214.875275 Z M 95.2453 214.875275 C 89.808907 214.875275 85.537453 210.603821 85.537453 205.167419 C 85.537453 199.731018 89.808907 195.459564 95.2453 195.459564 C 100.681709 195.459564 104.953156 199.731018 104.953156 205.167419 C 104.953156 210.603821 100.487549 214.875275 95.2453 214.875275 Z M 156.793106 214.875275 C 151.356705 214.875275 147.085251 210.603821 147.085251 205.167419 C 147.085251 199.731018 151.356705 195.459564 156.793106 195.459564 C 162.229492 195.459564 166.500961 199.731018 166.500961 205.167419 C 166.500961 210.603821 162.229492 214.875275 156.793106 214.875275 Z M 218.535049 214.875275 C 213.098663 214.875275 208.827194 210.603821 208.827194 205.167419 C 208.827194 199.731018 213.098663 195.459564 218.535049 195.459564 C 223.971451 195.459564 228.242905 199.731018 228.242905 205.167419 C 228.242905 210.603821 223.971451 214.875275 218.535049 214.875275 Z M 273.287354 214.875275 C 267.850952 214.875275 263.579498 210.603821 263.579498 205.167419 C 263.579498 199.731018 267.850952 195.459564 273.287354 195.459564 C 278.723755 195.459564 282.995209 199.731018 282.995209 205.167419 C 282.995209 210.603821 278.723755 214.875275 273.287354 214.875275 Z"/>
        <path id="path1" fill="#414757" stroke="none" d="M 281.05365 18 L 32.532566 18 C 23.989655 18 17 24.989655 17 33.532562 L 17 227.689651 C 17 234.679306 21.465612 240.504013 27.67864 242.445587 C 29.231897 242.833908 30.785152 243.222229 32.532566 243.222229 L 281.05365 243.222229 C 282.801056 243.222229 284.354309 243.028046 285.907562 242.445587 C 292.120605 240.504013 296.586212 234.679306 296.586212 227.689651 L 296.586212 33.532562 C 296.586212 24.989655 289.79071 18 281.05365 18 Z M 40.298851 214.875275 C 34.86245 214.875275 30.590996 210.603821 30.590996 205.167419 C 30.590996 199.731018 34.86245 195.459564 40.298851 195.459564 C 45.735249 195.459564 50.006706 199.731018 50.006706 205.167419 C 50.006706 210.603821 45.735249 214.875275 40.298851 214.875275 Z M 95.2453 214.875275 C 89.808907 214.875275 85.537453 210.603821 85.537453 205.167419 C 85.537453 199.731018 89.808907 195.459564 95.2453 195.459564 C 100.681709 195.459564 104.953156 199.731018 104.953156 205.167419 C 104.953156 210.603821 100.487549 214.875275 95.2453 214.875275 Z M 156.793106 214.875275 C 151.356705 214.875275 147.085251 210.603821 147.085251 205.167419 C 147.085251 199.731018 151.356705 195.459564 156.793106 195.459564 C 162.229492 195.459564 166.500961 199.731018 166.500961 205.167419 C 166.500961 210.603821 162.229492 214.875275 156.793106 214.875275 Z M 218.535049 214.875275 C 213.098663 214.875275 208.827194 210.603821 208.827194 205.167419 C 208.827194 199.731018 213.098663 195.459564 218.535049 195.459564 C 223.971451 195.459564 228.242905 199.731018 228.242905 205.167419 C 228.242905 210.603821 223.971451 214.875275 218.535049 214.875275 Z M 273.287354 214.875275 C 267.850952 214.875275 263.579498 210.603821 263.579498 205.167419 C 263.579498 199.731018 267.850952 195.459564 273.287354 195.459564 C 278.723755 195.459564 282.995209 199.731018 282.995209 205.167419 C 282.995209 210.603821 278.723755 214.875275 273.287354 214.875275 Z"/>
        <path id="path2" fill="#ffffff" stroke="none" d="M 17 87.896545 L 17 33.532562 C 17 24.989655 23.989655 18 32.532566 18 L 86.896553 18 L 17 87.896545 Z"/>
        <path id="path3" fill="#ffffff" stroke="none" d="M 86.896553 49.06514 L 86.896553 18 L 117.961685 18 Z"/>
        <path id="path4" fill="#ffffff" stroke="none" d="M 117.961685 41.298843 L 117.961685 18 L 141.260544 18 Z"/>
        <path id="path5" fill="#ffffff" stroke="#ffffff" stroke-width="1.941571" stroke-linecap="round" stroke-linejoin="round" d="M 261.637939 95.662827 L 261.637939 72.363983 L 284.936768 72.363983 Z"/>
        <path id="path6" fill="#ffffff" stroke="#ffffff" stroke-width="1.941571" stroke-linecap="round" stroke-linejoin="round" d="M 51.948277 150.02681 L 51.948277 173.325653 L 28.649426 173.325653 Z"/>
        <g id="Group"/>
        <g id="g1">
            <g id="g2">
                <g id="g3" opacity="0.5">
                    <path id="path7" fill="#e6e7e8" stroke="none" d="M 117.877289 48.474014 L 111.937843 48.474014 C 111.56662 48.474014 111.195404 48.279861 111.195404 48.085709 L 111.195404 44.979187 C 111.195404 44.785034 111.56662 44.590881 111.937843 44.590881 L 117.877289 44.590881 C 118.248505 44.590881 118.619728 44.785034 118.619728 44.979187 L 118.619728 48.085709 C 118.619728 48.279861 118.619728 48.474014 117.877289 48.474014 Z"/>
                </g>
                <g id="g4" opacity="0.25">
                    <path id="path8" fill="#231f20" stroke="none" d="M 117.877289 54.298721 L 111.937843 54.298721 C 111.56662 54.298721 111.195404 54.104568 111.195404 53.910416 L 111.195404 50.803909 C 111.195404 50.609741 111.56662 50.415588 111.937843 50.415588 L 117.877289 50.415588 C 118.248505 50.415588 118.619728 50.609741 118.619728 50.803909 L 118.619728 53.910416 C 118.619728 54.104568 118.619728 54.298721 117.877289 54.298721 Z"/>
                </g>
                <path id="path9" fill="#e6e7e8" stroke="none" d="M 117.877289 52.357162 L 111.937843 52.357162 C 111.56662 52.357162 111.195404 52.162994 111.195404 51.968842 L 111.195404 46.920761 C 111.195404 46.726608 111.56662 46.53244 111.937843 46.53244 L 117.877289 46.53244 C 118.248505 46.53244 118.619728 46.726608 118.619728 46.920761 L 118.619728 51.968842 C 118.619728 52.162994 118.619728 52.357162 117.877289 52.357162 Z"/>
            </g>
            <g id="g5">
                <g id="g6" opacity="0.5">
                    <path id="path10" fill="#e6e7e8" stroke="none" d="M 160.302002 48.474014 L 154.362564 48.474014 C 153.991333 48.474014 153.620117 48.279861 153.620117 48.085709 L 153.620117 44.979187 C 153.620117 44.785034 153.991333 44.590881 154.362564 44.590881 L 160.302002 44.590881 C 160.673218 44.590881 161.044449 44.785034 161.044449 44.979187 L 161.044449 48.085709 C 161.044449 48.279861 161.044449 48.474014 160.302002 48.474014 Z"/>
                </g>
                <g id="g7" opacity="0.25">
                    <path id="path11" fill="#231f20" stroke="none" d="M 160.302002 54.298721 L 154.362564 54.298721 C 153.991333 54.298721 153.620117 54.104568 153.620117 53.910416 L 153.620117 50.803909 C 153.620117 50.609741 153.991333 50.415588 154.362564 50.415588 L 160.302002 50.415588 C 160.673218 50.415588 161.044449 50.609741 161.044449 50.803909 L 161.044449 53.910416 C 161.044449 54.104568 161.044449 54.298721 160.302002 54.298721 Z"/>
                </g>
                <path id="path12" fill="#e6e7e8" stroke="none" d="M 160.302002 52.357162 L 154.362564 52.357162 C 153.991333 52.357162 153.620117 52.162994 153.620117 51.968842 L 153.620117 46.920761 C 153.620117 46.726608 153.991333 46.53244 154.362564 46.53244 L 160.302002 46.53244 C 160.673218 46.53244 161.044449 46.726608 161.044449 46.920761 L 161.044449 51.968842 C 161.044449 52.162994 161.044449 52.357162 160.302002 52.357162 Z"/>
            </g>
            <g id="g8">
                <g id="g9" opacity="0.5">
                    <path id="path13" fill="#e6e7e8" stroke="none" d="M 202.726715 48.474014 L 196.787277 48.474014 C 196.416061 48.474014 196.04483 48.279861 196.04483 48.085709 L 196.04483 44.979187 C 196.04483 44.785034 196.416061 44.590881 196.787277 44.590881 L 202.726715 44.590881 C 203.097946 44.590881 203.469162 44.785034 203.469162 44.979187 L 203.469162 48.085709 C 203.469162 48.279861 203.469162 48.474014 202.726715 48.474014 Z"/>
                </g>
                <g id="g10" opacity="0.25">
                    <path id="path14" fill="#231f20" stroke="none" d="M 202.726715 54.298721 L 196.787277 54.298721 C 196.416061 54.298721 196.04483 54.104568 196.04483 53.910416 L 196.04483 50.803909 C 196.04483 50.609741 196.416061 50.415588 196.787277 50.415588 L 202.726715 50.415588 C 203.097946 50.415588 203.469162 50.609741 203.469162 50.803909 L 203.469162 53.910416 C 203.469162 54.104568 203.469162 54.298721 202.726715 54.298721 Z"/>
                </g>
                <path id="path15" fill="#e6e7e8" stroke="none" d="M 202.726715 52.357162 L 196.787277 52.357162 C 196.416061 52.357162 196.04483 52.162994 196.04483 51.968842 L 196.04483 46.920761 C 196.04483 46.726608 196.416061 46.53244 196.787277 46.53244 L 202.726715 46.53244 C 203.097946 46.53244 203.469162 46.726608 203.469162 46.920761 L 203.469162 51.968842 C 203.469162 52.162994 203.469162 52.357162 202.726715 52.357162 Z"/>
            </g>
        </g>
        <path id="-" fill="#000000" fill-rule="evenodd" stroke="none" d="M 89.728195 132.727814 L 221.728195 132.727814 L 221.728195 62.727814 L 89.728195 62.727814 Z"/>
        <path id="--3" fill="#74fbea" fill-rule="evenodd" stroke="#000000" stroke-width="6.363708" stroke-opacity="0.145749" stroke-linecap="round" stroke-linejoin="round" d="M 89.122017 161.183411 C 86.778969 161.183411 84.879547 159.283997 84.879547 156.940948 L 84.879547 62.545959 C 84.879547 60.202896 86.778969 58.303482 89.122017 58.303482 L 223.820496 58.303482 C 226.163544 58.303482 228.062973 60.202896 228.062973 62.545959 L 228.062973 156.940948 C 228.062973 159.283997 226.163544 161.183411 223.820496 161.183411 L 89.122017 161.183411 Z M 101.213142 129.727814 C 96.527039 129.727814 92.728195 125.92897 92.728195 121.242859 L 92.728195 74.212753 C 92.728195 69.526642 96.527039 65.727814 101.213142 65.727814 L 212.243256 65.727814 C 216.929367 65.727814 220.728195 69.526642 220.728195 74.212753 L 220.728195 121.242859 C 220.728195 125.92897 216.929367 129.727814 212.243256 129.727814 L 101.213142 129.727814 Z"/>
        <g id="g11">
            <path id="path16" fill="#ffbf00" stroke="none" d="M 25.542912 216.040222 L 25.542912 241.474792 C 23.795498 240.504013 22.242241 239.339081 21.077299 237.97998 L 21.077299 216.040222 L 25.542912 216.040222 Z"/>
            <path id="path17" fill="#ffbf00" stroke="none" d="M 31.367624 243.028061 L 32.338409 243.028061 L 32.338409 216.040222 L 27.872797 216.040222 L 27.872797 242.445587 Z"/>
            <path id="Rectangle-path" fill="#ffbf00" stroke="none" d="M 34.668293 216.040222 L 39.328064 216.040222 L 39.328064 243.028061 L 34.668293 243.028061 Z"/>
            <path id="path18" fill="#ffbf00" stroke="none" d="M 41.463791 216.040222 L 46.123562 216.040222 L 46.123562 243.028061 L 41.463791 243.028061 Z"/>
            <path id="path19" fill="#ffbf00" stroke="none" d="M 48.453445 216.040222 L 53.11322 216.040222 L 53.11322 243.028061 L 48.453445 243.028061 Z"/>
            <path id="path20" fill="#ffbf00" stroke="none" d="M 55.248947 216.040222 L 59.908718 216.040222 L 59.908718 243.028061 L 55.248947 243.028061 Z"/>
            <path id="path21" fill="#ffbf00" stroke="none" d="M 62.044445 216.040222 L 66.704216 216.040222 L 66.704216 243.028061 L 62.044445 243.028061 Z"/>
            <path id="path22" fill="#ffbf00" stroke="none" d="M 68.839943 216.040222 L 73.499718 216.040222 L 73.499718 243.028061 L 68.839943 243.028061 Z"/>
            <path id="path23" fill="#ffbf00" stroke="none" d="M 75.829597 216.040222 L 80.489365 216.040222 L 80.489365 243.028061 L 75.829597 243.028061 Z"/>
            <path id="path24" fill="#ffbf00" stroke="none" d="M 82.625099 216.040222 L 87.284866 216.040222 L 87.284866 243.028061 L 82.625099 243.028061 Z"/>
            <path id="path25" fill="#ffbf00" stroke="none" d="M 89.420593 216.040222 L 94.080368 216.040222 L 94.080368 243.028061 L 89.420593 243.028061 Z"/>
            <path id="path26" fill="#ffbf00" stroke="none" d="M 96.410248 216.040222 L 101.070015 216.040222 L 101.070015 243.028061 L 96.410248 243.028061 Z"/>
            <path id="path27" fill="#ffbf00" stroke="none" d="M 103.205742 216.040222 L 107.865517 216.040222 L 107.865517 243.028061 L 103.205742 243.028061 Z"/>
            <path id="path28" fill="#ffbf00" stroke="none" d="M 110.001244 216.040222 L 114.661011 216.040222 L 114.661011 243.028061 L 110.001244 243.028061 Z"/>
            <path id="path29" fill="#ffbf00" stroke="none" d="M 116.990898 216.040222 L 121.650665 216.040222 L 121.650665 243.028061 L 116.990898 243.028061 Z"/>
            <path id="path30" fill="#ffbf00" stroke="none" d="M 123.7864 216.040222 L 128.446167 216.040222 L 128.446167 243.028061 L 123.7864 243.028061 Z"/>
            <path id="path31" fill="#ffbf00" stroke="none" d="M 130.581894 216.040222 L 135.241669 216.040222 L 135.241669 243.028061 L 130.581894 243.028061 Z"/>
            <path id="path32" fill="#ffbf00" stroke="none" d="M 137.377396 216.040222 L 142.037155 216.040222 L 142.037155 243.028061 L 137.377396 243.028061 Z"/>
            <path id="path33" fill="#ffbf00" stroke="none" d="M 144.36705 216.040222 L 149.026825 216.040222 L 149.026825 243.028061 L 144.36705 243.028061 Z"/>
            <path id="path34" fill="#ffbf00" stroke="none" d="M 151.162552 216.040222 L 155.822311 216.040222 L 155.822311 243.028061 L 151.162552 243.028061 Z"/>
            <path id="path35" fill="#ffbf00" stroke="none" d="M 157.958054 216.040222 L 162.617813 216.040222 L 162.617813 243.028061 L 157.958054 243.028061 Z"/>
            <path id="path36" fill="#ffbf00" stroke="none" d="M 164.947708 216.040222 L 169.607468 216.040222 L 169.607468 243.028061 L 164.947708 243.028061 Z"/>
            <path id="path37" fill="#ffbf00" stroke="none" d="M 171.74321 216.040222 L 176.402954 216.040222 L 176.402954 243.028061 L 171.74321 243.028061 Z"/>
            <path id="path38" fill="#ffbf00" stroke="none" d="M 178.538696 216.040222 L 183.198456 216.040222 L 183.198456 243.028061 L 178.538696 243.028061 Z"/>
            <path id="path39" fill="#ffbf00" stroke="none" d="M 185.334198 216.040222 L 189.993958 216.040222 L 189.993958 243.028061 L 185.334198 243.028061 Z"/>
            <path id="path40" fill="#ffbf00" stroke="none" d="M 192.323853 216.040222 L 196.983627 216.040222 L 196.983627 243.028061 L 192.323853 243.028061 Z"/>
            <path id="path41" fill="#ffbf00" stroke="none" d="M 199.119339 216.040222 L 203.779129 216.040222 L 203.779129 243.028061 L 199.119339 243.028061 Z"/>
            <path id="path42" fill="#ffbf00" stroke="none" d="M 205.914841 216.040222 L 210.574615 216.040222 L 210.574615 243.028061 L 205.914841 243.028061 Z"/>
            <path id="path43" fill="#ffbf00" stroke="none" d="M 212.90451 216.040222 L 217.56427 216.040222 L 217.56427 243.028061 L 212.90451 243.028061 Z"/>
            <path id="path44" fill="#ffbf00" stroke="none" d="M 219.700012 216.040222 L 224.359772 216.040222 L 224.359772 243.028061 L 219.700012 243.028061 Z"/>
            <path id="path45" fill="#ffbf00" stroke="none" d="M 226.495499 216.040222 L 231.155258 216.040222 L 231.155258 243.028061 L 226.495499 243.028061 Z"/>
            <path id="path46" fill="#ffbf00" stroke="none" d="M 233.485153 216.040222 L 238.144928 216.040222 L 238.144928 243.028061 L 233.485153 243.028061 Z"/>
            <path id="path47" fill="#ffbf00" stroke="none" d="M 240.280655 216.040222 L 244.94043 216.040222 L 244.94043 243.028061 L 240.280655 243.028061 Z"/>
            <path id="path48" fill="#ffbf00" stroke="none" d="M 247.076157 216.040222 L 251.735931 216.040222 L 251.735931 243.028061 L 247.076157 243.028061 Z"/>
            <path id="path49" fill="#ffbf00" stroke="none" d="M 253.871643 216.040222 L 258.531433 216.040222 L 258.531433 243.028061 L 253.871643 243.028061 Z"/>
            <path id="path50" fill="#ffbf00" stroke="none" d="M 260.861298 216.040222 L 265.521088 216.040222 L 265.521088 243.028061 L 260.861298 243.028061 Z"/>
            <path id="path51" fill="#ffbf00" stroke="none" d="M 267.656799 216.040222 L 272.316559 216.040222 L 272.316559 243.028061 L 267.656799 243.028061 Z"/>
            <path id="path52" fill="#ffbf00" stroke="none" d="M 274.452301 216.040222 L 279.112061 216.040222 L 279.112061 243.028061 L 274.452301 243.028061 Z"/>
            <path id="path53" fill="#ffbf00" stroke="none" d="M 282.41275 243.028061 L 281.441956 243.028061 L 281.441956 216.040222 L 285.907562 216.040222 L 285.907562 242.445587 Z"/>
            <path id="path54" fill="#ffbf00" stroke="none" d="M 292.703064 216.040222 L 292.703064 237.97998 C 291.343964 239.533234 289.984863 240.698166 288.237457 241.474792 L 288.237457 216.040222 L 292.703064 216.040222 Z"/>
        </g>
        <path id="A" fill="#414757" fill-rule="evenodd" stroke="none" d="M 47.754639 168.973648 L 46.697582 165.897278 L 45.574165 168.973648 L 47.754639 168.973648 Z M 46.204605 164.863922 L 47.271141 164.863922 L 49.797649 171.827225 L 48.764294 171.827225 L 48.05801 169.741547 L 45.303974 169.741547 L 44.550289 171.827225 L 43.583294 171.827225 L 46.204605 164.863922 Z"/>
        <path id="B" fill="#414757" fill-rule="evenodd" stroke="none" d="M 266.173279 78.131058 C 266.571442 78.131058 266.881134 78.07576 267.102356 77.965164 C 267.449951 77.791351 267.623779 77.4785 267.623779 77.026611 C 267.623779 76.571548 267.438904 76.265015 267.069183 76.10701 C 266.860596 76.018539 266.550903 75.974289 266.140106 75.974289 L 264.457336 75.974289 L 264.457336 78.131058 L 266.173279 78.131058 Z M 266.490875 81.344894 C 267.069183 81.344894 267.481567 81.177414 267.728058 80.842438 C 267.882904 80.630707 267.960327 80.374741 267.960327 80.074539 C 267.960327 79.568909 267.734375 79.224457 267.282471 79.041183 C 267.042297 78.943207 266.724731 78.894226 266.329712 78.894226 L 264.457336 78.894226 L 264.457336 81.344894 L 266.490875 81.344894 Z M 263.53302 75.187424 L 266.524048 75.187424 C 267.339355 75.187424 267.91925 75.430756 268.263702 75.917404 C 268.465942 76.204971 268.567047 76.536789 268.567047 76.912842 C 268.567047 77.352097 268.44223 77.712357 268.192596 77.993607 C 268.063019 78.14212 267.876587 78.278015 267.63324 78.40126 C 267.990356 78.53714 268.257385 78.690399 268.434326 78.861053 C 268.747192 79.164413 268.903625 79.58313 268.903625 80.117188 C 268.903625 80.565933 268.763 80.972 268.48175 81.335419 C 268.061432 81.878952 267.393097 82.150726 266.476654 82.150726 L 263.53302 82.150726 L 263.53302 75.187424 Z"/>
        <g id="g12">
            <path id="0" fill="#414757" fill-rule="evenodd" stroke="none" d="M 40.31543 223.449341 C 41.193943 223.449341 41.829121 223.811157 42.220974 224.534836 C 42.524349 225.094177 42.676029 225.860489 42.676029 226.833817 C 42.676029 227.756561 42.538567 228.519714 42.263638 229.123322 C 41.865463 229.989182 41.214485 230.422119 40.310688 230.422119 C 39.495377 230.422119 38.888641 230.068192 38.490467 229.360321 C 38.158653 228.769363 37.992748 227.976196 37.992748 226.980759 C 37.992748 226.209686 38.092293 225.547653 38.291378 224.994629 C 38.664276 223.964417 39.338951 223.449341 40.31543 223.449341 Z M 40.30595 229.64473 C 40.748367 229.64473 41.100716 229.448807 41.363007 229.056961 C 41.625298 228.665085 41.756439 227.93512 41.756439 226.867004 C 41.756439 226.095917 41.661636 225.461548 41.472027 224.963821 C 41.282421 224.466095 40.914272 224.217255 40.367569 224.217255 C 39.865112 224.217255 39.497753 224.453445 39.265484 224.925903 C 39.033215 225.398346 38.91708 226.09433 38.91708 227.013947 C 38.91708 227.706009 38.991344 228.262177 39.13987 228.68248 C 39.367397 229.32399 39.756088 229.64473 40.30595 229.64473 Z"/>
            <path id="1" fill="#414757" fill-rule="evenodd" stroke="none" d="M 92.978943 225.430725 L 92.978943 224.776581 C 93.595169 224.716553 94.02494 224.616211 94.268265 224.475586 C 94.511597 224.334961 94.693298 224.002365 94.813385 223.477783 L 95.486488 223.477783 L 95.486488 230.237259 L 94.576378 230.237259 L 94.576378 225.430725 L 92.978943 225.430725 Z"/>
            <path id="2" fill="#414757" fill-rule="evenodd" stroke="none" d="M 154.483505 230.237259 C 154.515106 229.652618 154.635986 229.14386 154.84613 228.710922 C 155.056274 228.277969 155.466309 227.884552 156.076202 227.530624 L 156.986313 227.004456 C 157.393967 226.767441 157.679962 226.565216 157.844284 226.39772 C 158.103409 226.135406 158.232971 225.83522 158.232971 225.497101 C 158.232971 225.102051 158.114471 224.788437 157.877472 224.556168 C 157.640457 224.323883 157.324448 224.207764 156.929428 224.207764 C 156.344818 224.207764 155.940323 224.428955 155.715958 224.871399 C 155.595871 225.108398 155.52951 225.437027 155.516861 225.857346 L 154.649414 225.857346 C 154.65889 225.266388 154.767914 224.784485 154.976486 224.411591 C 155.346222 223.754272 155.998764 223.425644 156.934174 223.425644 C 157.711563 223.425644 158.279587 223.635773 158.63826 224.056091 C 158.996933 224.476379 159.17627 224.944061 159.17627 225.459167 C 159.17627 226.002716 158.985077 226.467224 158.602707 226.852783 C 158.3815 227.077148 157.984909 227.348892 157.412933 227.668091 L 156.763519 228.028336 C 156.453842 228.19899 156.21051 228.361725 156.033539 228.516571 C 155.717529 228.791504 155.518448 229.096436 155.436279 229.431427 L 159.143082 229.431427 L 159.143082 230.237259 L 154.483505 230.237259 Z"/>
            <path id="3v" fill="#414757" fill-rule="evenodd" stroke="none" d="M 217.633652 226.637299 C 217.630554 226.636429 217.627457 226.63559 217.624344 226.634735 L 217.633652 226.637299 Z M 217.633652 226.637299 C 217.986282 226.735977 218.262054 226.92395 218.460983 227.201172 C 218.661652 227.48085 218.761993 227.822906 218.761993 228.227432 C 218.761993 228.875244 218.548676 229.402969 218.12207 229.810638 C 217.69545 230.218292 217.090286 230.422119 216.30658 230.422119 C 215.503891 230.422119 214.921661 230.201706 214.55983 229.760864 C 214.197998 229.320007 214.01709 228.7836 214.01709 228.151581 L 214.908234 228.151581 C 214.946152 228.590836 215.02832 228.910004 215.154724 229.1091 C 215.375931 229.466187 215.775665 229.64473 216.353989 229.64473 C 216.802719 229.64473 217.162979 229.524658 217.434738 229.284485 C 217.706512 229.044296 217.842392 228.734619 217.842392 228.355408 C 217.842392 227.887695 217.699402 227.560638 217.413406 227.374207 C 217.127426 227.187744 216.730042 227.094528 216.221268 227.094528 C 216.164383 227.094528 216.106705 227.095322 216.048248 227.096893 C 215.989777 227.09848 215.930527 227.100845 215.870483 227.104004 L 215.870483 226.350327 C 215.958969 226.359802 216.033234 226.366119 216.093277 226.369278 C 216.15332 226.372437 216.218094 226.374023 216.287628 226.374023 C 216.606796 226.374023 216.86908 226.323456 217.074493 226.222336 C 217.434738 226.04538 217.614868 225.72937 217.614868 225.274307 C 217.614868 224.936157 217.494781 224.675461 217.254623 224.492188 C 217.01445 224.308899 216.734772 224.217255 216.415604 224.217255 C 215.846771 224.217255 215.453354 224.40683 215.235306 224.786072 C 215.115219 224.994629 215.047287 225.291656 215.031479 225.677216 L 214.187729 225.677216 C 214.187729 225.171585 214.288849 224.741821 214.491104 224.387894 C 214.838715 223.755859 215.45018 223.439865 216.325546 223.439865 C 217.017609 223.439865 217.553253 223.593903 217.932465 223.902023 C 218.311676 224.210144 218.501282 224.656479 218.501282 225.241119 C 218.501282 225.658264 218.389099 225.996368 218.164734 226.255524 C 218.025681 226.416656 217.845551 226.54306 217.624374 226.634705 L 217.633652 226.637299 Z M 220.2267 225.160538 L 221.582382 229.293961 L 222.999695 225.160538 L 223.933502 225.160538 L 222.018478 230.237259 L 221.108368 230.237259 L 219.236008 225.160538 L 220.2267 225.160538 Z"/>
            <path id="GND" fill="#414757" fill-rule="evenodd" stroke="none" d="M 266.244232 223.093826 C 266.898376 223.093826 267.46402 223.220215 267.941193 223.473038 C 268.63327 223.836456 269.056732 224.473206 269.211578 225.383331 L 268.27774 225.383331 C 268.164001 224.874527 267.928558 224.504028 267.571472 224.271759 C 267.214355 224.039474 266.764069 223.923355 266.22052 223.923355 C 265.575836 223.923355 265.033112 224.165085 264.592285 224.648605 C 264.151428 225.132095 263.93103 225.852585 263.93103 226.81012 C 263.93103 227.638062 264.112701 228.311935 264.476135 228.831802 C 264.839569 229.351639 265.432068 229.611557 266.253693 229.611557 C 266.882568 229.611557 267.403168 229.429062 267.815582 229.064072 C 268.227997 228.699051 268.438934 228.108917 268.448395 227.29361 L 266.267914 227.29361 L 266.267914 226.51149 L 269.325317 226.51149 L 269.325317 230.237259 L 268.718597 230.237259 L 268.491058 229.34137 C 268.171875 229.692139 267.889069 229.935471 267.642578 230.07135 C 267.228577 230.305206 266.702454 230.422119 266.064087 230.422119 C 265.239288 230.422119 264.529877 230.15509 263.93576 229.621033 C 263.287933 228.95108 262.96402 228.031494 262.96402 226.862259 C 262.96402 225.696167 263.280029 224.768692 263.912079 224.079788 C 264.512482 223.422455 265.289856 223.093826 266.244232 223.093826 Z M 270.785309 223.273956 L 271.899231 223.273956 L 275.416443 228.914749 L 275.416443 223.273956 L 276.312317 223.273956 L 276.312317 230.237259 L 275.25528 230.237259 L 271.685944 224.601196 L 271.685944 230.237259 L 270.785309 230.237259 L 270.785309 223.273956 Z M 280.469452 229.431427 C 280.788635 229.431427 281.050903 229.398254 281.256287 229.331879 C 281.622894 229.208649 281.923096 228.971634 282.156952 228.620865 C 282.343384 228.339584 282.477692 227.979355 282.559845 227.5401 C 282.607269 227.277802 282.630981 227.034485 282.630981 226.81012 C 282.630981 225.947388 282.459534 225.277466 282.116669 224.800293 C 281.773773 224.32309 281.221558 224.084518 280.459961 224.084518 L 278.786682 224.084518 L 278.786682 229.431427 L 280.469452 229.431427 Z M 277.838654 223.273956 L 280.659058 223.273956 C 281.616577 223.273956 282.359192 223.613647 282.886932 224.293091 C 283.357788 224.906158 283.593231 225.691422 283.593231 226.648956 C 283.593231 227.388412 283.454163 228.056763 283.176086 228.654037 C 282.686249 229.709518 281.844116 230.237259 280.649567 230.237259 L 277.838654 230.237259 L 277.838654 223.273956 Z"/>
        </g>
    </g>
</svg>
