<?xml version="1.0" encoding="UTF-8"?>
<!-- Generated by Pixelmator Pro 3.8 -->
<svg width="314" height="260" viewBox="0 0 314 260" xmlns="http://www.w3.org/2000/svg">
    <g id="iot-bit">
        <path id="Shape" fill="#231f20" stroke="#231f20" stroke-width="15.532567" opacity="0.1" d="M 281.05365 18 L 32.532566 18 C 23.989655 18 17 24.989655 17 33.532562 L 17 227.689651 C 17 234.679306 21.465612 240.504013 27.67864 242.445587 C 29.231897 242.833908 30.785152 243.222229 32.532566 243.222229 L 281.05365 243.222229 C 282.801056 243.222229 284.354309 243.028046 285.907562 242.445587 C 292.120605 240.504013 296.586212 234.679306 296.586212 227.689651 L 296.586212 33.532562 C 296.586212 24.989655 289.79071 18 281.05365 18 Z M 40.298851 214.875275 C 34.86245 214.875275 30.590996 210.603821 30.590996 205.167419 C 30.590996 199.731018 34.86245 195.459564 40.298851 195.459564 C 45.735249 195.459564 50.006706 199.731018 50.006706 205.167419 C 50.006706 210.603821 45.735249 214.875275 40.298851 214.875275 Z M 95.2453 214.875275 C 89.808907 214.875275 85.537453 210.603821 85.537453 205.167419 C 85.537453 199.731018 89.808907 195.459564 95.2453 195.459564 C 100.681709 195.459564 104.953156 199.731018 104.953156 205.167419 C 104.953156 210.603821 100.487549 214.875275 95.2453 214.875275 Z M 156.793106 214.875275 C 151.356705 214.875275 147.085251 210.603821 147.085251 205.167419 C 147.085251 199.731018 151.356705 195.459564 156.793106 195.459564 C 162.229492 195.459564 166.500961 199.731018 166.500961 205.167419 C 166.500961 210.603821 162.229492 214.875275 156.793106 214.875275 Z M 218.535049 214.875275 C 213.098663 214.875275 208.827194 210.603821 208.827194 205.167419 C 208.827194 199.731018 213.098663 195.459564 218.535049 195.459564 C 223.971451 195.459564 228.242905 199.731018 228.242905 205.167419 C 228.242905 210.603821 223.971451 214.875275 218.535049 214.875275 Z M 273.287354 214.875275 C 267.850952 214.875275 263.579498 210.603821 263.579498 205.167419 C 263.579498 199.731018 267.850952 195.459564 273.287354 195.459564 C 278.723755 195.459564 282.995209 199.731018 282.995209 205.167419 C 282.995209 210.603821 278.723755 214.875275 273.287354 214.875275 Z"/>
        <path id="path1" fill="#414757" stroke="none" d="M 281.05365 18 L 32.532566 18 C 23.989655 18 17 24.989655 17 33.532562 L 17 227.689651 C 17 234.679306 21.465612 240.504013 27.67864 242.445587 C 29.231897 242.833908 30.785152 243.222229 32.532566 243.222229 L 281.05365 243.222229 C 282.801056 243.222229 284.354309 243.028046 285.907562 242.445587 C 292.120605 240.504013 296.586212 234.679306 296.586212 227.689651 L 296.586212 33.532562 C 296.586212 24.989655 289.79071 18 281.05365 18 Z M 40.298851 214.875275 C 34.86245 214.875275 30.590996 210.603821 30.590996 205.167419 C 30.590996 199.731018 34.86245 195.459564 40.298851 195.459564 C 45.735249 195.459564 50.006706 199.731018 50.006706 205.167419 C 50.006706 210.603821 45.735249 214.875275 40.298851 214.875275 Z M 95.2453 214.875275 C 89.808907 214.875275 85.537453 210.603821 85.537453 205.167419 C 85.537453 199.731018 89.808907 195.459564 95.2453 195.459564 C 100.681709 195.459564 104.953156 199.731018 104.953156 205.167419 C 104.953156 210.603821 100.487549 214.875275 95.2453 214.875275 Z M 156.793106 214.875275 C 151.356705 214.875275 147.085251 210.603821 147.085251 205.167419 C 147.085251 199.731018 151.356705 195.459564 156.793106 195.459564 C 162.229492 195.459564 166.500961 199.731018 166.500961 205.167419 C 166.500961 210.603821 162.229492 214.875275 156.793106 214.875275 Z M 218.535049 214.875275 C 213.098663 214.875275 208.827194 210.603821 208.827194 205.167419 C 208.827194 199.731018 213.098663 195.459564 218.535049 195.459564 C 223.971451 195.459564 228.242905 199.731018 228.242905 205.167419 C 228.242905 210.603821 223.971451 214.875275 218.535049 214.875275 Z M 273.287354 214.875275 C 267.850952 214.875275 263.579498 210.603821 263.579498 205.167419 C 263.579498 199.731018 267.850952 195.459564 273.287354 195.459564 C 278.723755 195.459564 282.995209 199.731018 282.995209 205.167419 C 282.995209 210.603821 278.723755 214.875275 273.287354 214.875275 Z"/>
        <path id="path1-" fill="#88a390" fill-rule="evenodd" stroke="none" d="M 77.866821 18 C 76.899086 20.440063 75.665459 22.745743 74.201691 24.881287 C 74.447502 26.484955 74.574997 28.127579 74.574997 29.800003 C 74.574997 47.583572 60.158569 62 42.375 62 C 37.211914 62 32.332645 60.784821 28.007595 58.624878 C 25.248413 60.047058 22.117977 60.850006 18.799999 60.850006 C 18.193356 60.850006 17.592981 60.823166 17 60.770599 L 17 57.597488 C 18.164154 57.828735 19.367916 57.949997 20.599998 57.949997 C 23.629456 57.949997 26.48768 57.216873 29.006935 55.918365 C 32.955891 57.890488 37.410877 59 42.125 59 C 58.362171 59 71.525002 45.837173 71.525002 29.600006 C 71.525002 28.073013 71.408592 26.573212 71.184158 25.108994 C 72.684731 22.919769 73.92041 20.534698 74.844994 18 L 77.866821 18 Z M 71.757591 18 C 70.93248 20.025391 69.895943 21.942139 68.675385 23.722855 C 68.88913 25.117355 69 26.545731 69 28 C 69 43.463974 56.463974 56 41 56 C 37.833633 56 34.79002 55.474426 31.951653 54.505737 C 37.410355 50.822617 41 44.580521 41 37.5 C 41 37.298752 40.997101 37.098175 40.991337 36.898315 C 39.969799 36.81514 38.962498 36.681641 37.971924 36.500275 C 37.990559 36.831146 38 37.164474 38 37.5 C 38 47.164978 30.164984 55 20.5 55 C 19.301369 55 18.130884 54.879486 17 54.649933 L 17 33.532562 C 17 24.989655 23.989655 18 32.532566 18 L 71.757591 18 Z"/>
        <path id="path2" fill="#829e8c" fill-rule="evenodd" stroke="none" d="M 41.805763 170.333344 C 39.151604 170.333344 37 168.143402 37 165.441986 C 37 162.74057 39.151604 160.550629 41.805763 160.550629 C 41.970093 160.550629 42.132359 160.558899 42.292534 160.57547 C 43.537186 157.99353 46.323265 156.576141 49.099319 157.112595 C 51.875374 157.649048 53.957195 160.007126 54.185493 162.873688 C 56.007439 163.339462 57.202446 165.114532 56.971504 167.012024 C 56.74057 168.909515 55.156128 170.334137 53.27758 170.333344 L 41.805763 170.333344 Z"/>
        <path id="-" fill="#88a390" fill-rule="evenodd" stroke="none" d="M 270.194244 92 C 272.848389 92 275 94.189941 275 96.891357 C 275 99.592773 272.848389 101.782715 270.194244 101.782715 C 270.029907 101.782715 269.867645 101.774429 269.707458 101.757858 C 268.46283 104.339798 265.676727 105.757187 262.900696 105.220734 C 260.124634 104.68428 258.042816 102.326202 257.814514 99.459641 C 255.992569 98.993866 254.797546 97.218811 255.028503 95.32132 C 255.25943 93.423813 256.843872 91.999207 258.722412 92 L 270.194244 92 Z"/>
        <path id="path3" fill="#000000" fill-rule="evenodd" stroke="none" d="M 89 132.727814 L 225 132.727814 L 225 62.727814 L 89 62.727814 Z"/>
        <g id="g11">
            <path id="path16" fill="#ffbf00" stroke="none" d="M 25.542912 216.040222 L 25.542912 241.474792 C 23.795498 240.504013 22.242241 239.339081 21.077299 237.97998 L 21.077299 216.040222 L 25.542912 216.040222 Z"/>
            <path id="path17" fill="#ffbf00" stroke="none" d="M 31.367624 243.028061 L 32.338409 243.028061 L 32.338409 216.040222 L 27.872797 216.040222 L 27.872797 242.445587 Z"/>
            <path id="Rectangle-path" fill="#ffbf00" stroke="none" d="M 34.668293 216.040222 L 39.328064 216.040222 L 39.328064 243.028061 L 34.668293 243.028061 Z"/>
            <path id="path18" fill="#ffbf00" stroke="none" d="M 41.463791 216.040222 L 46.123562 216.040222 L 46.123562 243.028061 L 41.463791 243.028061 Z"/>
            <path id="path19" fill="#ffbf00" stroke="none" d="M 48.453445 216.040222 L 53.11322 216.040222 L 53.11322 243.028061 L 48.453445 243.028061 Z"/>
            <path id="path20" fill="#ffbf00" stroke="none" d="M 55.248947 216.040222 L 59.908718 216.040222 L 59.908718 243.028061 L 55.248947 243.028061 Z"/>
            <path id="path21" fill="#ffbf00" stroke="none" d="M 62.044445 216.040222 L 66.704216 216.040222 L 66.704216 243.028061 L 62.044445 243.028061 Z"/>
            <path id="path22" fill="#ffbf00" stroke="none" d="M 68.839943 216.040222 L 73.499718 216.040222 L 73.499718 243.028061 L 68.839943 243.028061 Z"/>
            <path id="path23" fill="#ffbf00" stroke="none" d="M 75.829597 216.040222 L 80.489365 216.040222 L 80.489365 243.028061 L 75.829597 243.028061 Z"/>
            <path id="path24" fill="#ffbf00" stroke="none" d="M 82.625099 216.040222 L 87.284866 216.040222 L 87.284866 243.028061 L 82.625099 243.028061 Z"/>
            <path id="path25" fill="#ffbf00" stroke="none" d="M 89.420593 216.040222 L 94.080368 216.040222 L 94.080368 243.028061 L 89.420593 243.028061 Z"/>
            <path id="path26" fill="#ffbf00" stroke="none" d="M 96.410248 216.040222 L 101.070015 216.040222 L 101.070015 243.028061 L 96.410248 243.028061 Z"/>
            <path id="path27" fill="#ffbf00" stroke="none" d="M 103.205742 216.040222 L 107.865517 216.040222 L 107.865517 243.028061 L 103.205742 243.028061 Z"/>
            <path id="path28" fill="#ffbf00" stroke="none" d="M 110.001244 216.040222 L 114.661011 216.040222 L 114.661011 243.028061 L 110.001244 243.028061 Z"/>
            <path id="path29" fill="#ffbf00" stroke="none" d="M 116.990898 216.040222 L 121.650665 216.040222 L 121.650665 243.028061 L 116.990898 243.028061 Z"/>
            <path id="path30" fill="#ffbf00" stroke="none" d="M 123.7864 216.040222 L 128.446167 216.040222 L 128.446167 243.028061 L 123.7864 243.028061 Z"/>
            <path id="path31" fill="#ffbf00" stroke="none" d="M 130.581894 216.040222 L 135.241669 216.040222 L 135.241669 243.028061 L 130.581894 243.028061 Z"/>
            <path id="path32" fill="#ffbf00" stroke="none" d="M 137.377396 216.040222 L 142.037155 216.040222 L 142.037155 243.028061 L 137.377396 243.028061 Z"/>
            <path id="path33" fill="#ffbf00" stroke="none" d="M 144.36705 216.040222 L 149.026825 216.040222 L 149.026825 243.028061 L 144.36705 243.028061 Z"/>
            <path id="path34" fill="#ffbf00" stroke="none" d="M 151.162552 216.040222 L 155.822311 216.040222 L 155.822311 243.028061 L 151.162552 243.028061 Z"/>
            <path id="path35" fill="#ffbf00" stroke="none" d="M 157.958054 216.040222 L 162.617813 216.040222 L 162.617813 243.028061 L 157.958054 243.028061 Z"/>
            <path id="path36" fill="#ffbf00" stroke="none" d="M 164.947708 216.040222 L 169.607468 216.040222 L 169.607468 243.028061 L 164.947708 243.028061 Z"/>
            <path id="path37" fill="#ffbf00" stroke="none" d="M 171.74321 216.040222 L 176.402954 216.040222 L 176.402954 243.028061 L 171.74321 243.028061 Z"/>
            <path id="path38" fill="#ffbf00" stroke="none" d="M 178.538696 216.040222 L 183.198456 216.040222 L 183.198456 243.028061 L 178.538696 243.028061 Z"/>
            <path id="path39" fill="#ffbf00" stroke="none" d="M 185.334198 216.040222 L 189.993958 216.040222 L 189.993958 243.028061 L 185.334198 243.028061 Z"/>
            <path id="path40" fill="#ffbf00" stroke="none" d="M 192.323853 216.040222 L 196.983627 216.040222 L 196.983627 243.028061 L 192.323853 243.028061 Z"/>
            <path id="path41" fill="#ffbf00" stroke="none" d="M 199.119339 216.040222 L 203.779129 216.040222 L 203.779129 243.028061 L 199.119339 243.028061 Z"/>
            <path id="path42" fill="#ffbf00" stroke="none" d="M 205.914841 216.040222 L 210.574615 216.040222 L 210.574615 243.028061 L 205.914841 243.028061 Z"/>
            <path id="path43" fill="#ffbf00" stroke="none" d="M 212.90451 216.040222 L 217.56427 216.040222 L 217.56427 243.028061 L 212.90451 243.028061 Z"/>
            <path id="path44" fill="#ffbf00" stroke="none" d="M 219.700012 216.040222 L 224.359772 216.040222 L 224.359772 243.028061 L 219.700012 243.028061 Z"/>
            <path id="path45" fill="#ffbf00" stroke="none" d="M 226.495499 216.040222 L 231.155258 216.040222 L 231.155258 243.028061 L 226.495499 243.028061 Z"/>
            <path id="path46" fill="#ffbf00" stroke="none" d="M 233.485153 216.040222 L 238.144928 216.040222 L 238.144928 243.028061 L 233.485153 243.028061 Z"/>
            <path id="path47" fill="#ffbf00" stroke="none" d="M 240.280655 216.040222 L 244.94043 216.040222 L 244.94043 243.028061 L 240.280655 243.028061 Z"/>
            <path id="path48" fill="#ffbf00" stroke="none" d="M 247.076157 216.040222 L 251.735931 216.040222 L 251.735931 243.028061 L 247.076157 243.028061 Z"/>
            <path id="path49" fill="#ffbf00" stroke="none" d="M 253.871643 216.040222 L 258.531433 216.040222 L 258.531433 243.028061 L 253.871643 243.028061 Z"/>
            <path id="path50" fill="#ffbf00" stroke="none" d="M 260.861298 216.040222 L 265.521088 216.040222 L 265.521088 243.028061 L 260.861298 243.028061 Z"/>
            <path id="path51" fill="#ffbf00" stroke="none" d="M 267.656799 216.040222 L 272.316559 216.040222 L 272.316559 243.028061 L 267.656799 243.028061 Z"/>
            <path id="path52" fill="#ffbf00" stroke="none" d="M 274.452301 216.040222 L 279.112061 216.040222 L 279.112061 243.028061 L 274.452301 243.028061 Z"/>
            <path id="path53" fill="#ffbf00" stroke="none" d="M 282.41275 243.028061 L 281.441956 243.028061 L 281.441956 216.040222 L 285.907562 216.040222 L 285.907562 242.445587 Z"/>
            <path id="path54" fill="#ffbf00" stroke="none" d="M 292.703064 216.040222 L 292.703064 237.97998 C 291.343964 239.533234 289.984863 240.698166 288.237457 241.474792 L 288.237457 216.040222 L 292.703064 216.040222 Z"/>
        </g>
        <path id="A" fill="#414757" fill-rule="evenodd" stroke="none" d="M 48.754639 164.973648 L 47.697582 161.897278 L 46.574165 164.973648 L 48.754639 164.973648 Z M 47.204605 160.863922 L 48.271141 160.863922 L 50.797649 167.827225 L 49.764294 167.827225 L 49.05801 165.741547 L 46.303974 165.741547 L 45.550289 167.827225 L 44.583294 167.827225 L 47.204605 160.863922 Z"/>
        <path id="B" fill="#414757" fill-rule="evenodd" stroke="none" d="M 265.173279 97.131058 C 265.571442 97.131058 265.881134 97.07576 266.102356 96.965164 C 266.449951 96.791351 266.623779 96.4785 266.623779 96.026611 C 266.623779 95.571548 266.438904 95.265015 266.069183 95.10701 C 265.860596 95.018539 265.550903 94.974289 265.140106 94.974289 L 263.457336 94.974289 L 263.457336 97.131058 L 265.173279 97.131058 Z M 265.490875 100.344894 C 266.069183 100.344894 266.481567 100.177414 266.728058 99.842438 C 266.882904 99.630707 266.960327 99.374741 266.960327 99.074539 C 266.960327 98.568909 266.734375 98.224457 266.282471 98.041183 C 266.042297 97.943207 265.724731 97.894226 265.329712 97.894226 L 263.457336 97.894226 L 263.457336 100.344894 L 265.490875 100.344894 Z M 262.53302 94.187424 L 265.524048 94.187424 C 266.339355 94.187424 266.91925 94.430756 267.263702 94.917404 C 267.465942 95.204971 267.567047 95.536789 267.567047 95.912842 C 267.567047 96.352097 267.44223 96.712357 267.192596 96.993607 C 267.063019 97.14212 266.876587 97.278015 266.63324 97.40126 C 266.990356 97.53714 267.257385 97.690399 267.434326 97.861053 C 267.747192 98.164413 267.903625 98.58313 267.903625 99.117188 C 267.903625 99.565933 267.763 99.972 267.48175 100.335419 C 267.061432 100.878952 266.393097 101.150726 265.476654 101.150726 L 262.53302 101.150726 L 262.53302 94.187424 Z"/>
    </g>
</svg>
