<?xml version="1.0" encoding="UTF-8"?>
<!-- Generated by Pixelmator Pro 3.7.1 -->
<svg width="379" height="849" viewBox="0 0 379 849" xmlns="http://www.w3.org/2000/svg">
    <path id="-" fill="#172025" fill-rule="evenodd" stroke="none" d="M 359 722 C 370.045685 722 379 713.045715 379 702 L 379 20 C 379 8.954285 370.045685 0 359 0 L 20 0 C 8.954315 0 0 8.954285 0 20 L 0 702 C 0 713.045715 8.954315 722 20 722 Z"/>
    <g id="g1">
        <path id="path1" fill="#a69875" fill-rule="evenodd" stroke="none" d="M 230 202 C 233.865997 202 237 198.865967 237 195 L 237 164 C 237 160.134033 233.865997 157 230 157 L 191 157 C 187.134003 157 184 160.134033 184 164 L 184 195 C 184 198.865967 187.134003 202 191 202 Z"/>
        <path id="--2" fill="#d9cbb1" fill-rule="evenodd" stroke="none" d="M 228 197.7547 C 230.761429 197.7547 233 195.516113 233 192.7547 L 233 166 C 233 163.238586 230.761429 161 228 161 L 193 161 C 190.238571 161 188 163.238586 188 166 L 188 192.7547 C 188 195.516113 190.238571 197.7547 193 197.7547 Z"/>
    </g>
    <g id="--8">
        <path id="path2" fill="none" stroke="#bebcb8" stroke-width="2.45497" stroke-linecap="round" stroke-linejoin="round" d="M 153.074081 245.237061 L 153.074081 228.200012"/>
        <path id="--9" fill="none" stroke="#bebcb8" stroke-width="2.45497" stroke-linecap="round" stroke-linejoin="round" d="M 170.111115 245.237061 L 170.111115 228.200012"/>
        <path id="--10" fill="none" stroke="#bebcb8" stroke-width="2.45497" stroke-linecap="round" stroke-linejoin="round" d="M 187.148148 245.237061 L 187.148148 228.200012"/>
        <path id="--11" fill="none" stroke="#bebcb8" stroke-width="2.45497" stroke-linecap="round" stroke-linejoin="round" d="M 204.185181 245.237061 L 204.185181 228.200012"/>
        <path id="--15" fill="none" stroke="#bebcb8" stroke-width="2.45497" stroke-linecap="round" stroke-linejoin="round" d="M 153.074081 343.200012 L 153.074081 326.162964"/>
        <path id="--14" fill="none" stroke="#bebcb8" stroke-width="2.45497" stroke-linecap="round" stroke-linejoin="round" d="M 170.111115 343.200012 L 170.111115 326.162964"/>
        <path id="--13" fill="none" stroke="#bebcb8" stroke-width="2.45497" stroke-linecap="round" stroke-linejoin="round" d="M 187.148148 343.200012 L 187.148148 326.162964"/>
        <path id="--12" fill="none" stroke="#bebcb8" stroke-width="2.45497" stroke-linecap="round" stroke-linejoin="round" d="M 204.185181 343.200012 L 204.185181 326.162964"/>
        <path id="path3" fill="none" stroke="#bebcb8" stroke-width="2.45497" stroke-linecap="round" stroke-linejoin="round" d="M 136.037033 313.385193 L 119 313.385193"/>
        <path id="path4" fill="none" stroke="#bebcb8" stroke-width="2.45497" stroke-linecap="round" stroke-linejoin="round" d="M 136.037033 296.348145 L 119 296.348145"/>
        <path id="path5" fill="none" stroke="#bebcb8" stroke-width="2.45497" stroke-linecap="round" stroke-linejoin="round" d="M 136.037033 279.311096 L 119 279.311096"/>
        <path id="path6" fill="none" stroke="#bebcb8" stroke-width="2.45497" stroke-linecap="round" stroke-linejoin="round" d="M 136.037033 262.274048 L 119 262.274048"/>
        <path id="path7" fill="none" stroke="#bebcb8" stroke-width="2.45497" stroke-linecap="round" stroke-linejoin="round" d="M 234 313.385193 L 216.962967 313.385193"/>
        <path id="path8" fill="none" stroke="#bebcb8" stroke-width="2.45497" stroke-linecap="round" stroke-linejoin="round" d="M 234 296.348145 L 216.962967 296.348145"/>
        <path id="path9" fill="none" stroke="#bebcb8" stroke-width="2.45497" stroke-linecap="round" stroke-linejoin="round" d="M 234 279.311096 L 216.962967 279.311096"/>
        <path id="path10" fill="none" stroke="#bebcb8" stroke-width="2.45497" stroke-linecap="round" stroke-linejoin="round" d="M 234 262.274048 L 216.962967 262.274048"/>
        <path id="path11" fill="#292d2f" fill-rule="evenodd" stroke="none" d="M 216.962967 326.162964 L 216.962967 245.237061 L 136.037033 245.237061 L 136.037033 326.162964 Z"/>
    </g>
    <g id="g2">
        <path id="path12" fill="none" stroke="#bebcb8" stroke-width="7.349443" stroke-linecap="round" stroke-linejoin="round" d="M 79 845 L 78.999786 628"/>
        <path id="--6" fill="none" stroke="#bebcb8" stroke-width="7.349443" stroke-linecap="round" stroke-linejoin="round" d="M 134 845 L 133.999771 628"/>
        <path id="--3" fill="none" stroke="#bebcb8" stroke-width="7.349443" stroke-linecap="round" stroke-linejoin="round" d="M 189 845 L 188.999771 628"/>
        <path id="--4" fill="none" stroke="#bebcb8" stroke-width="7.349443" stroke-linecap="round" stroke-linejoin="round" d="M 299 845 L 298.999756 628"/>
        <path id="--7" fill="none" stroke="#bebcb8" stroke-width="7.349443" stroke-linecap="round" stroke-linejoin="round" d="M 244 845 L 243.999771 628"/>
        <path id="path13" fill="#493f4c" fill-rule="evenodd" stroke="none" d="M 150.199997 722 C 152.850967 722 155 719.850952 155 717.200012 L 155 674.799988 C 155 672.149048 152.850967 670 150.199997 670 L 117.799988 670 C 115.149048 670 113 672.149048 113 674.799988 L 113 717.200012 C 113 719.850952 115.149048 722 117.799988 722 Z"/>
        <path id="path14" fill="#493f4c" fill-rule="evenodd" stroke="none" d="M 205.199997 722 C 207.850967 722 210 719.850952 210 717.200012 L 210 674.799988 C 210 672.149048 207.850967 670 205.199997 670 L 172.800003 670 C 170.149033 670 168 672.149048 168 674.799988 L 168 717.200012 C 168 719.850952 170.149033 722 172.800003 722 Z"/>
        <path id="path15" fill="#493f4c" fill-rule="evenodd" stroke="none" d="M 315.200012 722 C 317.850952 722 320 719.850952 320 717.200012 L 320 674.799988 C 320 672.149048 317.850952 670 315.200012 670 L 282.799988 670 C 280.149048 670 278 672.149048 278 674.799988 L 278 717.200012 C 278 719.850952 280.149048 722 282.799988 722 Z"/>
        <path id="path16" fill="#493f4c" fill-rule="evenodd" stroke="none" d="M 260.200012 722 C 262.850952 722 265 719.850952 265 717.200012 L 265 674.799988 C 265 672.149048 262.850952 670 260.200012 670 L 227.800003 670 C 225.149033 670 223 672.149048 223 674.799988 L 223 717.200012 C 223 719.850952 225.149033 722 227.800003 722 Z"/>
        <path id="path17" fill="#493f4c" fill-rule="evenodd" stroke="none" d="M 95.200012 722 C 97.850952 722 100 719.850952 100 717.200012 L 100 674.799988 C 100 672.149048 97.850952 670 95.200012 670 L 62.799988 670 C 60.149048 670 58 672.149048 58 674.799988 L 58 717.200012 C 58 719.850952 60.149048 722 62.799988 722 Z"/>
        <path id="--5" fill="#493f4c" fill-rule="evenodd" stroke="none" d="M 315.200012 714 C 317.850952 714 320 711.850952 320 709.200012 L 320 682.799988 C 320 680.149048 317.850952 678 315.200012 678 L 62.799988 678 C 60.149048 678 58 680.149048 58 682.799988 L 58 709.200012 C 58 711.850952 60.149048 714 62.799988 714 Z"/>
    </g>
    <path id="NL-16" fill="#b7b7b9" fill-rule="evenodd" stroke="none" d="M 317.519531 243.025391 C 317.519531 241.994141 317.091797 241.138672 316.236328 240.458984 C 315.380859 239.779297 314.167969 239.439453 312.597656 239.439453 C 311.074219 239.439453 309.919922 239.773438 309.134766 240.441406 C 308.349609 241.109375 307.957031 242.041016 307.957031 243.236328 C 307.957031 244.853516 308.824219 246.248047 310.558594 247.419922 C 310.699219 247.537109 310.863281 247.583984 311.050781 247.560547 C 313.277344 247.302734 314.912109 246.775391 315.955078 245.978516 C 316.998047 245.181641 317.519531 244.197266 317.519531 243.025391 Z M 295.546875 236.556641 C 295.898438 236.064453 296.390625 235.818359 297.023438 235.818359 C 297.5625 235.818359 298.03125 235.994141 298.429688 236.345703 L 298.5 236.416016 C 298.898438 236.767578 299.109375 237.236328 299.132813 237.822266 C 299.15625 237.892578 299.167969 237.951172 299.167969 237.998047 C 299.167969 238.513672 299.039063 238.982422 298.78125 239.404297 C 298.335938 240.248047 298.113281 241.080078 298.113281 241.900391 C 298.113281 243.541016 298.798828 244.882813 300.169922 245.925781 C 301.541016 246.96875 303.75 247.548828 306.796875 247.666016 C 306.84375 247.666016 306.873047 247.648438 306.884766 247.613281 C 306.896484 247.578125 306.890625 247.548828 306.867188 247.525391 C 306.070313 246.822266 305.431641 245.972656 304.951172 244.976563 C 304.470703 243.980469 304.230469 243.060547 304.230469 242.216797 C 304.230469 239.896484 304.933594 238.044922 306.339844 236.662109 C 307.746094 235.279297 309.832031 234.587891 312.597656 234.587891 C 315.269531 234.587891 317.419922 235.396484 319.048828 237.013672 C 320.677734 238.630859 321.492188 240.599609 321.492188 242.919922 C 321.492188 244.232422 321.228516 245.451172 320.701172 246.576172 C 320.173828 247.701172 319.376953 248.714844 318.310547 249.617188 C 317.244141 250.519531 315.832031 251.228516 314.074219 251.744141 C 312.316406 252.259766 310.300781 252.517578 308.027344 252.517578 C 305.636719 252.517578 303.509766 252.236328 301.646484 251.673828 C 299.783203 251.111328 298.300781 250.34375 297.199219 249.371094 C 296.097656 248.398438 295.265625 247.308594 294.703125 246.101563 C 294.140625 244.894531 293.859375 243.599609 293.859375 242.216797 C 293.859375 240.107422 294.421875 238.220703 295.546875 236.556641 Z M 321 270.482422 C 321 271.044922 320.794922 271.53125 320.384766 271.941406 C 319.974609 272.351563 319.488281 272.556641 318.925781 272.556641 L 318.785156 272.556641 C 318.222656 272.556641 317.736328 272.351563 317.326172 271.941406 C 316.916016 271.53125 316.710938 271.044922 316.710938 270.482422 L 316.710938 267.107422 C 316.710938 266.919922 316.628906 266.826172 316.464844 266.826172 L 300.117188 266.826172 C 299.953125 266.826172 299.871094 266.919922 299.871094 267.107422 L 299.871094 270.025391 C 299.871094 270.470703 299.712891 270.851563 299.396484 271.167969 C 299.080078 271.484375 298.6875 271.642578 298.21875 271.642578 C 297.75 271.642578 297.333984 271.496094 296.970703 271.203125 C 296.607422 270.910156 296.367188 270.529297 296.25 270.060547 C 295.96875 269.005859 295.640625 268.056641 295.265625 267.212891 C 294.65625 265.830078 294.351563 264.587891 294.351563 263.486328 C 294.351563 262.947266 294.544922 262.490234 294.931641 262.115234 C 295.318359 261.740234 295.78125 261.552734 296.320313 261.552734 L 316.464844 261.552734 C 316.628906 261.552734 316.710938 261.458984 316.710938 261.271484 L 316.710938 258.599609 C 316.710938 258.037109 316.916016 257.550781 317.326172 257.140625 C 317.736328 256.730469 318.222656 256.525391 318.785156 256.525391 L 318.925781 256.525391 C 319.488281 256.525391 319.974609 256.730469 320.384766 257.140625 C 320.794922 257.550781 321 258.037109 321 258.599609 Z M 312.5625 285.142578 C 312.5625 285.658203 312.380859 286.103516 312.017578 286.478516 C 311.654297 286.853516 311.208984 287.041016 310.681641 287.041016 C 310.154297 287.041016 309.708984 286.853516 309.345703 286.478516 C 308.982422 286.103516 308.800781 285.658203 308.800781 285.142578 L 308.800781 279.095703 C 308.800781 278.580078 308.982422 278.134766 309.345703 277.759766 C 309.708984 277.384766 310.154297 277.197266 310.681641 277.197266 C 311.208984 277.197266 311.654297 277.384766 312.017578 277.759766 C 312.380859 278.134766 312.5625 278.580078 312.5625 279.095703 Z M 321 302.615234 C 321 303.177734 320.794922 303.664063 320.384766 304.074219 C 319.974609 304.484375 319.488281 304.689453 318.925781 304.689453 L 296.425781 304.689453 C 295.863281 304.689453 295.376953 304.484375 294.966797 304.074219 C 294.556641 303.664063 294.351563 303.177734 294.351563 302.615234 L 294.351563 301.419922 C 294.351563 300.857422 294.556641 300.371094 294.966797 299.960938 C 295.376953 299.550781 295.863281 299.345703 296.425781 299.345703 L 316.289063 299.345703 C 316.453125 299.345703 316.535156 299.263672 316.535156 299.099609 L 316.535156 290.626953 C 316.535156 290.064453 316.740234 289.578125 317.150391 289.167969 C 317.560547 288.757813 318.046875 288.552734 318.609375 288.552734 L 318.925781 288.552734 C 319.488281 288.552734 319.974609 288.757813 320.384766 289.167969 C 320.794922 289.578125 321 290.064453 321 290.626953 Z M 321 329.544922 C 321 330.107422 320.794922 330.59375 320.384766 331.003906 C 319.974609 331.414063 319.488281 331.619141 318.925781 331.619141 L 296.425781 331.619141 C 295.863281 331.619141 295.376953 331.414063 294.966797 331.003906 C 294.556641 330.59375 294.351563 330.107422 294.351563 329.544922 L 294.351563 328.244141 C 294.351563 327.611328 294.515625 327.019531 294.84375 326.46875 C 295.171875 325.917969 295.617188 325.490234 296.179688 325.185547 L 308.554688 318.435547 L 314.214844 315.798828 C 314.285156 315.775391 314.320313 315.734375 314.320313 315.675781 C 314.320313 315.617188 314.285156 315.587891 314.214844 315.587891 C 309.902313 316.056641 306.820313 316.291016 304.96875 316.291016 L 296.425781 316.291016 C 295.863281 316.291016 295.376953 316.085938 294.966797 315.675781 C 294.556641 315.265625 294.351563 314.779297 294.351563 314.216797 L 294.351563 313.302734 C 294.351563 312.740234 294.556641 312.253906 294.966797 311.84375 C 295.376953 311.433594 295.863281 311.228516 296.425781 311.228516 L 318.925781 311.228516 C 319.488281 311.228516 319.974609 311.433594 320.384766 311.84375 C 320.794922 312.253906 321 312.740234 321 313.302734 L 321 314.568359 C 321 315.201172 320.835938 315.792969 320.507813 316.34375 C 320.179688 316.894531 319.734375 317.322266 319.171875 317.626953 L 306.726563 324.341797 L 301.101563 327.013672 C 301.054688 327.037109 301.03125 327.078125 301.03125 327.136719 C 301.03125 327.195313 301.054688 327.224609 301.101563 327.224609 C 301.453125 327.177734 302.167969 327.107422 303.246094 327.013672 C 304.324219 326.919922 305.150391 326.849609 305.724609 326.802734 C 306.298828 326.755859 307.03125 326.703125 307.921875 326.644531 C 308.8125 326.585938 309.609375 326.556641 310.3125 326.556641 L 318.925781 326.556641 C 319.488281 326.556641 319.974609 326.761719 320.384766 327.171875 C 320.794922 327.582031 321 328.068359 321 328.630859 Z"/>
    <path id="STAT-D-RST" fill="#b7b7b9" fill-rule="evenodd" stroke="none" d="M 96.15625 540.390625 C 96.15625 540.78125 96.019531 541.109375 95.746094 541.375 C 95.472656 541.640625 95.148438 541.773438 94.773438 541.773438 L 81.53125 541.773438 C 81.40625 541.773438 81.34375 541.835938 81.34375 541.960938 L 81.34375 545.382813 C 81.34375 545.773438 81.210938 546.101563 80.945313 546.367188 C 80.679688 546.632813 80.351563 546.765625 79.960938 546.765625 L 79.773438 546.765625 C 79.398438 546.765625 79.074219 546.632813 78.800781 546.367188 C 78.527344 546.101563 78.390625 545.773438 78.390625 545.382813 L 78.390625 534.578125 C 78.390625 534.1875 78.527344 533.859375 78.800781 533.59375 C 79.074219 533.328125 79.398438 533.195313 79.773438 533.195313 L 79.960938 533.195313 C 80.351563 533.195313 80.679688 533.328125 80.945313 533.59375 C 81.210938 533.859375 81.34375 534.1875 81.34375 534.578125 L 81.34375 538.046875 C 81.34375 538.171875 81.40625 538.234375 81.53125 538.234375 L 94.773438 538.234375 C 95.148438 538.234375 95.472656 538.367188 95.746094 538.632813 C 96.019531 538.898438 96.15625 539.226563 96.15625 539.617188 Z M 96.484375 554.5 C 96.484375 556.46875 95.914063 558.265625 94.773438 559.890625 C 94.554688 560.203125 94.25 560.375 93.859375 560.40625 C 93.8125 560.421875 93.773438 560.429688 93.742188 560.429688 C 93.398438 560.429688 93.09375 560.3125 92.828125 560.078125 L 92.523438 559.820313 C 92.226563 559.585938 92.0625 559.273438 92.03125 558.882813 C 92.03125 558.835938 92.03125 558.78125 92.03125 558.71875 C 92.03125 558.40625 92.117188 558.109375 92.289063 557.828125 C 93.039063 556.6875 93.414063 555.546875 93.414063 554.40625 C 93.414063 553.5 93.234375 552.804688 92.875 552.320313 C 92.515625 551.835938 92.015625 551.59375 91.375 551.59375 C 90.796875 551.59375 90.363281 551.78125 90.074219 552.15625 C 89.785156 552.53125 89.445313 553.171875 89.054688 554.078125 C 89.023438 554.15625 89 554.210938 88.984375 554.242188 L 87.976563 556.632813 C 87.539063 557.664063 86.929688 558.519531 86.148438 559.199219 C 85.367188 559.878906 84.382813 560.21875 83.195313 560.21875 C 81.726563 560.21875 80.503906 559.640625 79.527344 558.484375 C 78.550781 557.328125 78.0625 555.859375 78.0625 554.078125 C 78.0625 552.421875 78.523438 550.921875 79.445313 549.578125 C 79.664063 549.25 79.976563 549.070313 80.382813 549.039063 C 80.414063 549.039063 80.453125 549.039063 80.5 549.039063 C 80.84375 549.039063 81.148438 549.15625 81.414063 549.390625 L 81.484375 549.4375 C 81.78125 549.671875 81.953125 549.984375 82 550.375 C 82.015625 550.453125 82.023438 550.53125 82.023438 550.609375 C 82.023438 550.90625 81.945313 551.1875 81.789063 551.453125 C 81.335938 552.265625 81.109375 553.140625 81.109375 554.078125 C 81.109375 554.859375 81.273438 555.484375 81.601563 555.953125 C 81.929688 556.421875 82.390625 556.65625 82.984375 556.65625 C 83.28125 556.65625 83.539063 556.59375 83.757813 556.46875 C 83.976563 556.34375 84.179688 556.136719 84.367188 555.847656 C 84.554688 555.558594 84.703125 555.300781 84.8125 555.074219 C 84.921875 554.847656 85.0625 554.5 85.234375 554.03125 C 85.265625 553.953125 85.289063 553.898438 85.304688 553.867188 L 86.289063 551.546875 C 86.773438 550.375 87.394531 549.484375 88.152344 548.875 C 88.910156 548.265625 89.898438 547.960938 91.117188 547.960938 C 92.632813 547.960938 93.90625 548.550781 94.9375 549.730469 C 95.96875 550.910156 96.484375 552.5 96.484375 554.5 Z M 81.203125 572.101563 C 81.203125 572.210938 81.265625 572.265625 81.390625 572.265625 L 86.453125 572.265625 C 86.5625 572.265625 86.617188 572.210938 86.617188 572.101563 L 86.617188 569.96875 C 86.617188 568.828125 86.378906 567.953125 85.902344 567.34375 C 85.425781 566.734375 84.71875 566.429688 83.78125 566.429688 C 82.84375 566.429688 82.179688 566.722656 81.789063 567.308594 C 81.398438 567.894531 81.203125 568.78125 81.203125 569.96875 Z M 94.960938 562.867188 C 95.085938 562.804688 95.214844 562.773438 95.347656 562.773438 C 95.480469 562.773438 95.617188 562.8125 95.757813 562.890625 C 96.023438 563.03125 96.15625 563.257813 96.15625 563.570313 L 96.15625 564.765625 C 96.15625 565.1875 96.046875 565.582031 95.828125 565.949219 C 95.609375 566.316406 95.3125 566.601563 94.9375 566.804688 L 89.59375 569.710938 C 89.484375 569.773438 89.429688 569.859375 89.429688 569.96875 L 89.429688 572.101563 C 89.429688 572.210938 89.492188 572.265625 89.617188 572.265625 L 94.773438 572.265625 C 95.148438 572.265625 95.472656 572.402344 95.746094 572.675781 C 96.019531 572.949219 96.15625 573.273438 96.15625 573.648438 L 96.15625 574.445313 C 96.15625 574.820313 96.019531 575.144531 95.746094 575.417969 C 95.472656 575.691406 95.148438 575.828125 94.773438 575.828125 L 79.773438 575.828125 C 79.398438 575.828125 79.074219 575.691406 78.800781 575.417969 C 78.527344 575.144531 78.390625 574.820313 78.390625 574.445313 L 78.390625 569.640625 C 78.390625 565.1875 80.187469 562.960938 83.78125 562.960938 C 85.03125 562.960938 86.078125 563.242188 86.921875 563.804688 C 87.765625 564.367188 88.398438 565.15625 88.820313 566.171875 C 88.867188 566.28125 88.9375 566.3125 89.03125 566.265625 Z M 90.53125 584.429688 C 90.53125 584.773438 90.410156 585.070313 90.167969 585.320313 C 89.925781 585.570313 89.628906 585.695313 89.277344 585.695313 C 88.925781 585.695313 88.628906 585.570313 88.386719 585.320313 C 88.144531 585.070313 88.023438 584.773438 88.023438 584.429688 L 88.023438 580.398438 C 88.023438 580.054688 88.144531 579.757813 88.386719 579.507813 C 88.628906 579.257813 88.925781 579.132813 89.277344 579.132813 C 89.628906 579.132813 89.925781 579.257813 90.167969 579.507813 C 90.410156 579.757813 90.53125 580.054688 90.53125 580.398438 Z M 96.15625 600.4375 C 96.15625 600.8125 96.019531 601.136719 95.746094 601.410156 C 95.472656 601.683594 95.148438 601.820313 94.773438 601.820313 L 79.773438 601.820313 C 79.398438 601.820313 79.074219 601.683594 78.800781 601.410156 C 78.527344 601.136719 78.390625 600.8125 78.390625 600.4375 L 78.390625 596.945313 C 78.390625 594.164063 79.125 592.003906 80.59375 590.464844 C 82.0625 588.925781 84.265625 588.15625 87.203125 588.15625 C 90.125 588.15625 92.347656 588.917969 93.871094 590.441406 C 95.394531 591.964844 96.15625 594.070313 96.15625 596.757813 Z M 93.132813 598.257813 C 93.242188 598.257813 93.296875 598.203125 93.296875 598.09375 L 93.296875 597.15625 C 93.296875 593.578125 91.265656 591.789063 87.203125 591.789063 C 85.109375 591.789063 83.589844 592.25 82.644531 593.171875 C 81.699219 594.09375 81.226563 595.421875 81.226563 597.15625 L 81.226563 598.09375 C 81.226563 598.203125 81.289063 598.257813 81.414063 598.257813 Z M 77 553.960938 C 77 554.351563 76.863281 554.679688 76.589844 554.945313 C 76.316406 555.210938 75.992188 555.34375 75.617188 555.34375 L 62.375 555.34375 C 62.25 555.34375 62.1875 555.40625 62.1875 555.53125 L 62.1875 558.953125 C 62.1875 559.34375 62.054688 559.671875 61.789063 559.9375 C 61.523438 560.203125 61.195313 560.335938 60.804688 560.335938 L 60.617188 560.335938 C 60.242188 560.335938 59.917969 560.203125 59.644531 559.9375 C 59.371094 559.671875 59.234375 559.34375 59.234375 558.953125 L 59.234375 548.148438 C 59.234375 547.757813 59.371094 547.429688 59.644531 547.164063 C 59.917969 546.898438 60.242188 546.765625 60.617188 546.765625 L 60.804688 546.765625 C 61.195313 546.765625 61.523438 546.898438 61.789063 547.164063 C 62.054688 547.429688 62.1875 547.757813 62.1875 548.148438 L 62.1875 551.617188 C 62.1875 551.742188 62.25 551.804688 62.375 551.804688 L 75.617188 551.804688 C 75.992188 551.804688 76.316406 551.9375 76.589844 552.203125 C 76.863281 552.46875 77 552.796875 77 553.1875 Z M 69.5 569.898438 C 69.546875 569.914063 69.589844 569.910156 69.628906 569.886719 C 69.667969 569.863281 69.6875 569.828125 69.6875 569.78125 L 69.6875 565.914063 C 69.6875 565.867188 69.667969 565.828125 69.628906 565.796875 C 69.589844 565.765625 69.546875 565.757813 69.5 565.773438 L 67.742188 566.265625 C 67.039063 566.46875 65.996094 566.75 64.613281 567.109375 C 63.230469 567.46875 62.351563 567.703125 61.976563 567.8125 C 61.945313 567.8125 61.929688 567.828125 61.929688 567.859375 C 61.929688 567.890625 61.945313 567.914063 61.976563 567.929688 C 63.882813 568.382813 65.804688 568.882813 67.742188 569.429688 Z M 77 562.328125 C 77 562.734375 76.875 563.101563 76.625 563.429688 C 76.375 563.757813 76.054688 563.976563 75.664063 564.085938 L 72.617188 564.90625 C 72.492188 564.9375 72.429688 565.015625 72.429688 565.140625 L 72.429688 570.554688 C 72.429688 570.664063 72.492188 570.734375 72.617188 570.765625 L 75.664063 571.609375 C 76.054688 571.71875 76.375 571.933594 76.625 572.253906 C 76.875 572.574219 77 572.9375 77 573.34375 L 77 574.1875 C 77 574.53125 76.859375 574.804688 76.578125 575.007813 C 76.40625 575.132813 76.21875 575.195313 76.015625 575.195313 C 75.90625 575.195313 75.796875 575.179688 75.6875 575.148438 L 60.546875 570.296875 C 60.15625 570.171875 59.839844 569.945313 59.597656 569.617188 C 59.355469 569.289063 59.234375 568.914063 59.234375 568.492188 L 59.234375 567.085938 C 59.234375 566.679688 59.355469 566.308594 59.597656 565.972656 C 59.839844 565.636719 60.15625 565.40625 60.546875 565.28125 L 75.6875 560.40625 C 75.796875 560.375 75.90625 560.359375 76.015625 560.359375 C 76.21875 560.359375 76.40625 560.429688 76.578125 560.570313 C 76.859375 560.773438 77 561.039063 77 561.367188 Z M 77 582.414063 C 77 582.804688 76.863281 583.132813 76.589844 583.398438 C 76.316406 583.664063 75.992188 583.796875 75.617188 583.796875 L 62.375 583.796875 C 62.25 583.796875 62.1875 583.859375 62.1875 583.984375 L 62.1875 587.40625 C 62.1875 587.796875 62.054688 588.125 61.789063 588.390625 C 61.523438 588.65625 61.195313 588.789063 60.804688 588.789063 L 60.617188 588.789063 C 60.242188 588.789063 59.917969 588.65625 59.644531 588.390625 C 59.371094 588.125 59.234375 587.796875 59.234375 587.40625 L 59.234375 576.601563 C 59.234375 576.210938 59.371094 575.882813 59.644531 575.617188 C 59.917969 575.351563 60.242188 575.21875 60.617188 575.21875 L 60.804688 575.21875 C 61.195313 575.21875 61.523438 575.351563 61.789063 575.617188 C 62.054688 575.882813 62.1875 576.210938 62.1875 576.601563 L 62.1875 580.070313 C 62.1875 580.195313 62.25 580.257813 62.375 580.257813 L 75.617188 580.257813 C 75.992188 580.257813 76.316406 580.390625 76.589844 580.65625 C 76.863281 580.921875 77 581.25 77 581.640625 Z M 77.328125 596.523438 C 77.328125 598.492188 76.757813 600.289063 75.617188 601.914063 C 75.398438 602.226563 75.09375 602.398438 74.703125 602.429688 C 74.65625 602.445313 74.617188 602.453125 74.585938 602.453125 C 74.242188 602.453125 73.9375 602.335938 73.671875 602.101563 L 73.367188 601.84375 C 73.070313 601.609375 72.90625 601.296875 72.875 600.90625 C 72.875 600.859375 72.875 600.804688 72.875 600.742188 C 72.875 600.429688 72.960938 600.132813 73.132813 599.851563 C 73.882813 598.710938 74.257813 597.570313 74.257813 596.429688 C 74.257813 595.523438 74.078125 594.828125 73.71875 594.34375 C 73.359375 593.859375 72.859375 593.617188 72.21875 593.617188 C 71.640625 593.617188 71.207031 593.804688 70.917969 594.179688 C 70.628906 594.554688 70.289063 595.195313 69.898438 596.101563 C 69.867188 596.179688 69.84375 596.234375 69.828125 596.265625 L 68.820313 598.65625 C 68.382813 599.6875 67.773438 600.542969 66.992188 601.222656 C 66.210938 601.902344 65.226563 602.242188 64.039063 602.242188 C 62.570313 602.242188 61.347656 601.664063 60.371094 600.507813 C 59.394531 599.351563 58.90625 597.882813 58.90625 596.101563 C 58.90625 594.445313 59.367188 592.945313 60.289063 591.601563 C 60.507813 591.273438 60.820313 591.09375 61.226563 591.0625 C 61.257813 591.0625 61.296875 591.0625 61.34375 591.0625 C 61.6875 591.0625 61.992188 591.179688 62.257813 591.414063 L 62.328125 591.460938 C 62.625 591.695313 62.796875 592.007813 62.84375 592.398438 C 62.859375 592.476563 62.867188 592.554688 62.867188 592.632813 C 62.867188 592.929688 62.789063 593.210938 62.632813 593.476563 C 62.179688 594.289063 61.953125 595.164063 61.953125 596.101563 C 61.953125 596.882813 62.117188 597.507813 62.445313 597.976563 C 62.773438 598.445313 63.234375 598.679688 63.828125 598.679688 C 64.125 598.679688 64.382813 598.617188 64.601563 598.492188 C 64.820313 598.367188 65.023438 598.160156 65.210938 597.871094 C 65.398438 597.582031 65.546875 597.324219 65.65625 597.097656 C 65.765625 596.871094 65.90625 596.523438 66.078125 596.054688 C 66.109375 595.976563 66.132813 595.921875 66.148438 595.890625 L 67.132813 593.570313 C 67.617188 592.398438 68.238281 591.507813 68.996094 590.898438 C 69.753906 590.289063 70.742188 589.984375 71.960938 589.984375 C 73.476563 589.984375 74.75 590.574219 75.78125 591.753906 C 76.8125 592.933594 77.328125 594.523438 77.328125 596.523438 Z"/>
    <path id="TXD" fill="#b7b7b9" fill-rule="evenodd" stroke="none" d="M 197 570.859375 C 197 571.234375 196.863281 571.558594 196.589844 571.832031 C 196.316406 572.105469 195.992188 572.242188 195.617188 572.242188 L 180.617188 572.242188 C 180.242188 572.242188 179.917969 572.105469 179.644531 571.832031 C 179.371094 571.558594 179.234375 571.234375 179.234375 570.859375 L 179.234375 567.367188 C 179.234375 564.585938 179.96875 562.425781 181.4375 560.886719 C 182.90625 559.347656 185.10936 558.578125 188.046875 558.578125 C 190.968765 558.578125 193.191406 559.339844 194.714844 560.863281 C 196.238281 562.386719 197 564.492188 197 567.179688 Z M 193.976563 568.679688 C 194.085938 568.679688 194.140625 568.625 194.140625 568.515625 L 194.140625 567.578125 C 194.140625 564 192.10939 562.210938 188.046875 562.210938 C 185.95311 562.210938 184.433594 562.671875 183.488281 563.59375 C 182.542969 564.515625 182.070313 565.84375 182.070313 567.578125 L 182.070313 568.515625 C 182.070313 568.625 182.132813 568.679688 182.257813 568.679688 Z M 197 587.757813 C 197 588.070313 196.867188 588.304688 196.601563 588.460938 C 196.460938 588.539063 196.320313 588.578125 196.179688 588.578125 C 196.054688 588.578125 195.921875 588.539063 195.78125 588.460938 L 187.976563 584.21875 C 187.882813 584.171875 187.78125 584.171875 187.671875 584.21875 L 180.453125 588.15625 C 180.328125 588.234375 180.195313 588.273438 180.054688 588.273438 C 179.914063 588.273438 179.773438 588.226563 179.632813 588.132813 C 179.367188 587.976563 179.234375 587.742188 179.234375 587.429688 L 179.234375 586.257813 C 179.234375 585.835938 179.347656 585.445313 179.574219 585.085938 C 179.800781 584.726563 180.101563 584.460938 180.476563 584.289063 L 182.890625 583.117188 C 183.171875 582.976563 183.617188 582.765625 184.226563 582.484375 C 184.835938 582.203125 185.304688 581.976563 185.632813 581.804688 C 185.679688 581.789063 185.703125 581.761719 185.703125 581.722656 C 185.703125 581.683594 185.679688 581.65625 185.632813 581.640625 C 184.570313 581.234375 183.65625 580.851563 182.890625 580.492188 L 180.5 579.390625 C 180.109375 579.21875 179.800781 578.953125 179.574219 578.59375 C 179.347656 578.234375 179.234375 577.84375 179.234375 577.421875 L 179.234375 576.460938 C 179.234375 576.148438 179.367188 575.90625 179.632813 575.734375 C 179.773438 575.65625 179.914063 575.617188 180.054688 575.617188 C 180.195313 575.617188 180.328125 575.648438 180.453125 575.710938 L 187.835938 579.671875 C 187.945313 579.71875 188.054688 579.71875 188.164063 579.671875 L 195.78125 575.429688 C 195.921875 575.351563 196.054688 575.3125 196.179688 575.3125 C 196.320313 575.3125 196.460938 575.351563 196.601563 575.429688 C 196.867188 575.585938 197 575.820313 197 576.132813 L 197 577.304688 C 197 577.726563 196.890625 578.121094 196.671875 578.488281 C 196.453125 578.855469 196.148438 579.132813 195.757813 579.320313 L 193.0625 580.679688 C 192.75 580.835938 192.273438 581.066406 191.632813 581.371094 C 190.992188 581.675781 190.507813 581.90625 190.179688 582.0625 C 190.148438 582.078125 190.132813 582.101563 190.132813 582.132813 C 190.132813 582.164063 190.148438 582.1875 190.179688 582.203125 C 191.335938 582.6875 192.296875 583.109375 193.0625 583.46875 L 195.757813 584.757813 C 196.132813 584.945313 196.433594 585.21875 196.660156 585.578125 C 196.886719 585.9375 197 586.328125 197 586.75 Z M 197 596.898438 C 197 597.289063 196.863281 597.617188 196.589844 597.882813 C 196.316406 598.148438 195.992188 598.28125 195.617188 598.28125 L 182.375 598.28125 C 182.25 598.28125 182.1875 598.34375 182.1875 598.46875 L 182.1875 601.890625 C 182.1875 602.28125 182.054688 602.609375 181.789063 602.875 C 181.523438 603.140625 181.195313 603.273438 180.804688 603.273438 L 180.617188 603.273438 C 180.242188 603.273438 179.917969 603.140625 179.644531 602.875 C 179.371094 602.609375 179.234375 602.28125 179.234375 601.890625 L 179.234375 591.085938 C 179.234375 590.695313 179.371094 590.367188 179.644531 590.101563 C 179.917969 589.835938 180.242188 589.703125 180.617188 589.703125 L 180.804688 589.703125 C 181.195313 589.703125 181.523438 589.835938 181.789063 590.101563 C 182.054688 590.367188 182.1875 590.695313 182.1875 591.085938 L 182.1875 594.554688 C 182.1875 594.679688 182.25 594.742188 182.375 594.742188 L 195.617188 594.742188 C 195.992188 594.742188 196.316406 594.875 196.589844 595.140625 C 196.863281 595.40625 197 595.734375 197 596.125 Z"/>
    <path id="5V" fill="#b7b7b9" fill-rule="evenodd" stroke="none" d="M 307 569.054688 C 307 569.460938 306.878906 569.828125 306.636719 570.15625 C 306.394531 570.484375 306.078125 570.710938 305.6875 570.835938 L 290.570313 575.453125 C 290.460938 575.484375 290.351563 575.5 290.242188 575.5 C 290.039063 575.5 289.84375 575.429688 289.65625 575.289063 C 289.375 575.085938 289.234375 574.8125 289.234375 574.46875 L 289.234375 573.507813 C 289.234375 573.101563 289.359375 572.738281 289.609375 572.417969 C 289.859375 572.097656 290.179688 571.882813 290.570313 571.773438 L 297.882813 569.78125 C 298.492188 569.609375 299.417969 569.371094 300.660156 569.066406 C 301.902344 568.761719 302.867188 568.507813 303.554688 568.304688 C 303.601563 568.289063 303.625 568.261719 303.625 568.222656 C 303.625 568.183594 303.601563 568.164063 303.554688 568.164063 C 302.929688 567.992188 301.996094 567.746094 300.753906 567.425781 C 299.511719 567.105469 298.554688 566.851563 297.882813 566.664063 L 290.570313 564.71875 C 290.179688 564.609375 289.859375 564.394531 289.609375 564.074219 C 289.359375 563.753906 289.234375 563.390625 289.234375 562.984375 L 289.234375 562.140625 C 289.234375 561.796875 289.375 561.523438 289.65625 561.320313 C 289.84375 561.179688 290.039063 561.109375 290.242188 561.109375 C 290.351563 561.109375 290.460938 561.125 290.570313 561.15625 L 305.6875 565.796875 C 306.078125 565.921875 306.394531 566.148438 306.636719 566.476563 C 306.878906 566.804688 307 567.171875 307 567.578125 Z M 307.328125 583.234375 C 307.328125 585.140625 306.820313 586.796875 305.804688 588.203125 C 305.585938 588.515625 305.273438 588.6875 304.867188 588.71875 C 304.804688 588.734375 304.75 588.742188 304.703125 588.742188 C 304.359375 588.742188 304.054688 588.640625 303.789063 588.4375 L 303.765625 588.414063 C 303.484375 588.210938 303.320313 587.921875 303.273438 587.546875 C 303.273438 587.484375 303.273438 587.429688 303.273438 587.382813 C 303.273438 587.070313 303.359375 586.789063 303.53125 586.539063 C 304.140625 585.648438 304.445313 584.703125 304.445313 583.703125 C 304.445313 582.75 304.160156 581.988281 303.589844 581.417969 C 303.019531 580.847656 302.21875 580.5625 301.1875 580.5625 C 300.171875 580.5625 299.382813 580.832031 298.820313 581.371094 C 298.257813 581.910156 297.976563 582.640625 297.976563 583.5625 C 297.976563 584.21875 298.125 584.828125 298.421875 585.390625 C 298.5625 585.671875 298.632813 585.945313 298.632813 586.210938 C 298.632813 586.492188 298.546875 586.765625 298.375 587.03125 C 298.046875 587.53125 297.59375 587.78125 297.015625 587.78125 C 296.96875 587.78125 296.929688 587.78125 296.898438 587.78125 L 290.617188 587.429688 C 290.226563 587.398438 289.898438 587.242188 289.632813 586.960938 C 289.367188 586.679688 289.234375 586.34375 289.234375 585.953125 L 289.234375 579.226563 C 289.234375 578.851563 289.371094 578.527344 289.644531 578.253906 C 289.917969 577.980469 290.242188 577.84375 290.617188 577.84375 L 290.804688 577.84375 C 291.195313 577.84375 291.523438 577.980469 291.789063 578.253906 C 292.054688 578.527344 292.1875 578.851563 292.1875 579.226563 L 292.1875 584.125 C 292.1875 584.234375 292.25 584.296875 292.375 584.3125 L 295.773438 584.617188 C 295.820313 584.617188 295.855469 584.601563 295.878906 584.570313 C 295.902344 584.539063 295.90625 584.507813 295.890625 584.476563 C 295.59375 583.835938 295.445313 583.179688 295.445313 582.507813 C 295.445313 580.914063 295.925781 579.601563 296.886719 578.570313 C 297.847656 577.539063 299.25 577.023438 301.09375 577.023438 C 302.375 577.023438 303.496094 577.316406 304.457031 577.902344 C 305.417969 578.488281 306.136719 579.246094 306.613281 580.175781 C 307.089844 581.105469 307.328125 582.125 307.328125 583.234375 Z M 304 596.007813 C 304.25 596.257813 304.375 596.566406 304.375 596.933594 C 304.375 597.300781 304.25 597.609375 304 597.859375 C 303.75 598.109375 303.445313 598.234375 303.085938 598.234375 L 299.453125 598.234375 C 299.328125 598.234375 299.265625 598.296875 299.265625 598.421875 L 299.265625 601.84375 C 299.265625 602.1875 299.144531 602.480469 298.902344 602.722656 C 298.660156 602.964844 298.367188 603.085938 298.023438 603.085938 C 297.679688 603.085938 297.386719 602.964844 297.144531 602.722656 C 296.902344 602.480469 296.78125 602.1875 296.78125 601.84375 L 296.78125 598.421875 C 296.78125 598.296875 296.71875 598.234375 296.59375 598.234375 L 292.960938 598.234375 C 292.601563 598.234375 292.296875 598.109375 292.046875 597.859375 C 291.796875 597.609375 291.671875 597.300781 291.671875 596.933594 C 291.671875 596.566406 291.796875 596.257813 292.046875 596.007813 C 292.296875 595.757813 292.601563 595.632813 292.960938 595.632813 L 296.59375 595.632813 C 296.71875 595.632813 296.78125 595.570313 296.78125 595.445313 L 296.78125 592.023438 C 296.78125 591.679688 296.902344 591.386719 297.144531 591.144531 C 297.386719 590.902344 297.679688 590.78125 298.023438 590.78125 C 298.367188 590.78125 298.660156 590.902344 298.902344 591.144531 C 299.144531 591.386719 299.265625 591.679688 299.265625 592.023438 L 299.265625 595.445313 C 299.265625 595.570313 299.328125 595.632813 299.453125 595.632813 L 303.085938 595.632813 C 303.445313 595.632813 303.75 595.757813 304 596.007813 Z"/>
    <path id="RXD" fill="#b7b7b9" fill-rule="evenodd" stroke="none" d="M 142 569.265625 C 142 569.640625 141.863281 569.964844 141.589844 570.238281 C 141.316406 570.511719 140.992188 570.648438 140.617188 570.648438 L 125.617188 570.648438 C 125.242188 570.648438 124.917969 570.511719 124.644531 570.238281 C 124.371094 569.964844 124.234375 569.640625 124.234375 569.265625 L 124.234375 565.773438 C 124.234375 562.992188 124.96875 560.832031 126.4375 559.292969 C 127.90625 557.753906 130.10936 556.984375 133.046875 556.984375 C 135.968765 556.984375 138.191406 557.746094 139.714844 559.269531 C 141.238281 560.792969 142 562.898438 142 565.585938 Z M 138.976563 567.085938 C 139.085938 567.085938 139.140625 567.03125 139.140625 566.921875 L 139.140625 565.984375 C 139.140625 562.40625 137.10939 560.617188 133.046875 560.617188 C 130.95311 560.617188 129.433594 561.078125 128.488281 562 C 127.542969 562.921875 127.070313 564.25 127.070313 565.984375 L 127.070313 566.921875 C 127.070313 567.03125 127.132813 567.085938 127.257813 567.085938 Z M 142 586.164063 C 142 586.476563 141.867188 586.710938 141.601563 586.867188 C 141.460938 586.945313 141.320313 586.984375 141.179688 586.984375 C 141.054688 586.984375 140.921875 586.945313 140.78125 586.867188 L 132.976563 582.625 C 132.882813 582.578125 132.78125 582.578125 132.671875 582.625 L 125.453125 586.5625 C 125.328125 586.640625 125.195313 586.679688 125.054688 586.679688 C 124.914063 586.679688 124.773438 586.632813 124.632813 586.539063 C 124.367188 586.382813 124.234375 586.148438 124.234375 585.835938 L 124.234375 584.664063 C 124.234375 584.242188 124.347656 583.851563 124.574219 583.492188 C 124.800781 583.132813 125.101563 582.867188 125.476563 582.695313 L 127.890625 581.523438 C 128.171875 581.382813 128.617188 581.171875 129.226563 580.890625 C 129.835938 580.609375 130.304688 580.382813 130.632813 580.210938 C 130.679688 580.195313 130.703125 580.167969 130.703125 580.128906 C 130.703125 580.089844 130.679688 580.0625 130.632813 580.046875 C 129.570313 579.640625 128.65625 579.257813 127.890625 578.898438 L 125.5 577.796875 C 125.109375 577.625 124.800781 577.359375 124.574219 577 C 124.347656 576.640625 124.234375 576.25 124.234375 575.828125 L 124.234375 574.867188 C 124.234375 574.554688 124.367188 574.3125 124.632813 574.140625 C 124.773438 574.0625 124.914063 574.023438 125.054688 574.023438 C 125.195313 574.023438 125.328125 574.054688 125.453125 574.117188 L 132.835938 578.078125 C 132.945313 578.125 133.054688 578.125 133.164063 578.078125 L 140.78125 573.835938 C 140.921875 573.757813 141.054688 573.71875 141.179688 573.71875 C 141.320313 573.71875 141.460938 573.757813 141.601563 573.835938 C 141.867188 573.992188 142 574.226563 142 574.539063 L 142 575.710938 C 142 576.132813 141.890625 576.527344 141.671875 576.894531 C 141.453125 577.261719 141.148438 577.539063 140.757813 577.726563 L 138.0625 579.085938 C 137.75 579.242188 137.273438 579.472656 136.632813 579.777344 C 135.992188 580.082031 135.507813 580.3125 135.179688 580.46875 C 135.148438 580.484375 135.132813 580.507813 135.132813 580.539063 C 135.132813 580.570313 135.148438 580.59375 135.179688 580.609375 C 136.335938 581.09375 137.296875 581.515625 138.0625 581.875 L 140.757813 583.164063 C 141.132813 583.351563 141.433594 583.625 141.660156 583.984375 C 141.886719 584.34375 142 584.734375 142 585.15625 Z M 127.046875 598.09375 C 127.046875 598.203125 127.109375 598.257813 127.234375 598.257813 L 132.296875 598.257813 C 132.40625 598.257813 132.460938 598.203125 132.460938 598.09375 L 132.460938 595.960938 C 132.460938 594.820313 132.222656 593.945313 131.746094 593.335938 C 131.269531 592.726563 130.5625 592.421875 129.625 592.421875 C 128.6875 592.421875 128.023438 592.714844 127.632813 593.300781 C 127.242188 593.886719 127.046875 594.773438 127.046875 595.960938 Z M 140.804688 588.859375 C 140.929688 588.796875 141.058594 588.765625 141.191406 588.765625 C 141.324219 588.765625 141.460938 588.804688 141.601563 588.882813 C 141.867188 589.023438 142 589.25 142 589.5625 L 142 590.757813 C 142 591.179688 141.890625 591.574219 141.671875 591.941406 C 141.453125 592.308594 141.15625 592.59375 140.78125 592.796875 L 135.4375 595.703125 C 135.328125 595.765625 135.273438 595.851563 135.273438 595.960938 L 135.273438 598.09375 C 135.273438 598.203125 135.335938 598.257813 135.460938 598.257813 L 140.617188 598.257813 C 140.992188 598.257813 141.316406 598.394531 141.589844 598.667969 C 141.863281 598.941406 142 599.265625 142 599.640625 L 142 600.4375 C 142 600.8125 141.863281 601.136719 141.589844 601.410156 C 141.316406 601.683594 140.992188 601.820313 140.617188 601.820313 L 125.617188 601.820313 C 125.242188 601.820313 124.917969 601.683594 124.644531 601.410156 C 124.371094 601.136719 124.234375 600.8125 124.234375 600.4375 L 124.234375 595.632813 C 124.234375 591.179688 126.031235 588.953125 129.625 588.953125 C 130.875 588.953125 131.921875 589.234375 132.765625 589.796875 C 133.609375 590.359375 134.242188 591.148438 134.664063 592.164063 C 134.710938 592.273438 134.78125 592.304688 134.875 592.257813 Z"/>
    <path id="GND" fill="#b7b7b9" fill-rule="evenodd" stroke="none" d="M 252 565.28125 C 252 565.65625 251.863281 565.980469 251.589844 566.253906 C 251.316406 566.527344 250.992188 566.664063 250.617188 566.664063 L 235.617188 566.664063 C 235.242188 566.664063 234.917969 566.527344 234.644531 566.253906 C 234.371094 565.980469 234.234375 565.65625 234.234375 565.28125 L 234.234375 561.789063 C 234.234375 559.007813 234.96875 556.847656 236.4375 555.308594 C 237.90625 553.769531 240.10936 553 243.046875 553 C 245.968765 553 248.191406 553.761719 249.714844 555.285156 C 251.238281 556.808594 252 558.914063 252 561.601563 Z M 248.976563 563.101563 C 249.085938 563.101563 249.140625 563.046875 249.140625 562.9375 L 249.140625 562 C 249.140625 558.421875 247.10939 556.632813 243.046875 556.632813 C 240.95311 556.632813 239.433594 557.09375 238.488281 558.015625 C 237.542969 558.9375 237.070313 560.265625 237.070313 562 L 237.070313 562.9375 C 237.070313 563.046875 237.132813 563.101563 237.257813 563.101563 Z M 252 583.234375 C 252 583.609375 251.863281 583.933594 251.589844 584.207031 C 251.316406 584.480469 250.992188 584.617188 250.617188 584.617188 L 235.617188 584.617188 C 235.242188 584.617188 234.917969 584.480469 234.644531 584.207031 C 234.371094 583.933594 234.234375 583.609375 234.234375 583.234375 L 234.234375 582.367188 C 234.234375 581.945313 234.34375 581.550781 234.5625 581.183594 C 234.78125 580.816406 235.078125 580.53125 235.453125 580.328125 L 243.703125 575.828125 L 247.476563 574.070313 C 247.523438 574.054688 247.546875 574.027344 247.546875 573.988281 C 247.546875 573.949219 247.523438 573.929688 247.476563 573.929688 C 244.601547 574.242188 242.546875 574.398438 241.3125 574.398438 L 235.617188 574.398438 C 235.242188 574.398438 234.917969 574.261719 234.644531 573.988281 C 234.371094 573.714844 234.234375 573.390625 234.234375 573.015625 L 234.234375 572.40625 C 234.234375 572.03125 234.371094 571.707031 234.644531 571.433594 C 234.917969 571.160156 235.242188 571.023438 235.617188 571.023438 L 250.617188 571.023438 C 250.992188 571.023438 251.316406 571.160156 251.589844 571.433594 C 251.863281 571.707031 252 572.03125 252 572.40625 L 252 573.25 C 252 573.671875 251.890625 574.066406 251.671875 574.433594 C 251.453125 574.800781 251.15625 575.085938 250.78125 575.289063 L 242.484375 579.765625 L 238.734375 581.546875 C 238.703125 581.5625 238.6875 581.589844 238.6875 581.628906 C 238.6875 581.667969 238.703125 581.6875 238.734375 581.6875 C 238.96875 581.65625 239.445313 581.609375 240.164063 581.546875 C 240.882813 581.484375 241.433594 581.4375 241.816406 581.40625 C 242.199219 581.375 242.6875 581.339844 243.28125 581.300781 C 243.875 581.261719 244.40625 581.242188 244.875 581.242188 L 250.617188 581.242188 C 250.992188 581.242188 251.316406 581.378906 251.589844 581.652344 C 251.863281 581.925781 252 582.25 252 582.625 Z M 252.328125 594.179688 C 252.328125 595.398438 252.128906 596.523438 251.730469 597.554688 C 251.332031 598.585938 250.753906 599.484375 249.996094 600.25 C 249.238281 601.015625 248.277344 601.617188 247.113281 602.054688 C 245.949219 602.492188 244.640625 602.710938 243.1875 602.710938 C 241.765625 602.710938 240.464844 602.488281 239.285156 602.042969 C 238.105469 601.597656 237.125 600.988281 236.34375 600.214844 C 235.5625 599.441406 234.960938 598.539063 234.539063 597.507813 C 234.117188 596.476563 233.90625 595.367188 233.90625 594.179688 C 233.90625 592.507813 234.367188 591.023438 235.289063 589.726563 C 235.523438 589.398438 235.867188 589.234375 236.320313 589.234375 C 236.664063 589.234375 236.96875 589.351563 237.234375 589.585938 L 237.375 589.703125 C 237.65625 589.9375 237.8125 590.242188 237.84375 590.617188 C 237.84375 590.664063 237.84375 590.710938 237.84375 590.757813 C 237.84375 591.085938 237.757813 591.390625 237.585938 591.671875 C 237.164063 592.375 236.953125 593.171875 236.953125 594.0625 C 236.953125 595.5625 237.503906 596.773438 238.605469 597.695313 C 239.707031 598.617188 241.195297 599.078125 243.070313 599.078125 C 245.039078 599.078125 246.5625 598.632813 247.640625 597.742188 C 248.71875 596.851563 249.257813 595.546875 249.257813 593.828125 C 249.257813 592.96875 249.070313 592.265625 248.695313 591.71875 C 248.632813 591.640625 248.539063 591.601563 248.414063 591.601563 L 245.273438 591.601563 C 245.148438 591.601563 245.085938 591.65625 245.085938 591.765625 L 245.085938 593.359375 C 245.085938 593.734375 244.953125 594.058594 244.6875 594.332031 C 244.421875 594.605469 244.09375 594.742188 243.703125 594.742188 L 243.5625 594.742188 C 243.1875 594.742188 242.863281 594.605469 242.589844 594.332031 C 242.316406 594.058594 242.179688 593.734375 242.179688 593.359375 L 242.179688 589.796875 C 242.179688 589.421875 242.316406 589.097656 242.589844 588.824219 C 242.863281 588.550781 243.1875 588.414063 243.5625 588.414063 L 248.8125 588.414063 C 249.84375 588.414063 250.585938 588.78125 251.039063 589.515625 C 251.898438 590.875 252.328125 592.429688 252.328125 594.179688 Z"/>
    <path id="path18" fill="none" stroke="#fffc79" stroke-width="20" d="M 79 139 L 79 19"/>
    <path id="path19" fill="none" stroke="#fffc79" stroke-width="10" d="M 234 79 L 292 79 M 282 24 L 329 24 M 194 24 L 244 24 M 149 79 L 204 79 M 69 24 L 159 24 M 287 84 L 287 19 M 324 114 L 324 19 M 239 84 L 239 19 M 239 84 L 239 19 M 199 84 L 199 19 M 154 84 L 154 19 M 112 140 L 112 20"/>
</svg>
