<?xml version="1.0" encoding="UTF-8"?>
<!-- Generated by Pixelmator Pro 3.7 -->
<svg width="248" height="11" viewBox="0 0 248 11" xmlns="http://www.w3.org/2000/svg">
    <g id="-">
        <path id="0" fill="#414757" fill-rule="evenodd" stroke="none" d="M 3.315429 2.449342 C 4.193944 2.449342 4.829121 2.811154 5.220974 3.53484 C 5.524347 4.094179 5.67603 4.860486 5.67603 5.833819 C 5.67603 6.75657 5.538568 7.519717 5.263636 8.123318 C 4.865462 8.989187 4.214485 9.422122 3.310689 9.422122 C 2.495378 9.422122 1.888642 9.06819 1.490466 8.360326 C 1.158654 7.769365 0.992749 6.976198 0.992749 5.980764 C 0.992749 5.209677 1.092292 4.547654 1.291379 3.994635 C 1.664274 2.96442 2.33895 2.449342 3.315429 2.449342 Z M 3.305948 8.644735 C 3.748366 8.644735 4.100716 8.448809 4.363005 8.056955 C 4.625297 7.665082 4.756438 6.935117 4.756438 5.867 C 4.756438 5.095913 4.661638 4.461542 4.472029 3.963824 C 4.282422 3.466087 3.914272 3.217248 3.367571 3.217248 C 2.865111 3.217248 2.497753 3.453447 2.265483 3.925903 C 2.033215 4.398339 1.917081 5.094334 1.917081 6.013945 C 1.917081 6.706009 1.991343 7.262168 2.139868 7.682483 C 2.367399 8.323984 2.756087 8.644735 3.305948 8.644735 Z"/>
        <path id="1" fill="#414757" fill-rule="evenodd" stroke="none" d="M 55.978943 4.43073 L 55.978943 3.776588 C 56.595173 3.716546 57.024937 3.616212 57.268265 3.475587 C 57.511593 3.334963 57.693302 3.002361 57.813385 2.477783 L 58.486488 2.477783 L 58.486488 9.237256 L 57.576378 9.237256 L 57.576378 4.43073 L 55.978943 4.43073 Z"/>
        <path id="2" fill="#414757" fill-rule="evenodd" stroke="none" d="M 117.483505 9.237256 C 117.515106 8.652617 117.635986 8.143858 117.84613 7.710923 C 118.056274 7.277968 118.466301 6.884555 119.076202 6.530622 L 119.986313 6.004465 C 120.393967 5.767437 120.679962 5.565209 120.844284 5.397724 C 121.103416 5.135415 121.232979 4.835224 121.232979 4.497093 C 121.232979 4.102059 121.114471 3.788438 120.877464 3.55617 C 120.640457 3.323883 120.324448 3.207768 119.929436 3.207768 C 119.34481 3.207768 118.940315 3.428956 118.71595 3.871391 C 118.595863 4.108399 118.529503 4.437031 118.516861 4.857345 L 117.649414 4.857345 C 117.658897 4.266385 117.767921 3.784488 117.976486 3.411595 C 118.346214 2.754272 118.998772 2.425641 119.934174 2.425641 C 120.711563 2.425641 121.279587 2.635769 121.63826 3.056083 C 121.996933 3.476377 122.17627 3.944054 122.17627 4.459171 C 122.17627 5.00271 121.985085 5.467227 121.602707 5.852779 C 121.3815 6.077147 120.984909 6.348897 120.412926 6.668087 L 119.763527 7.02834 C 119.453835 7.198986 119.21051 7.361732 119.033539 7.516577 C 118.717529 7.791506 118.51844 8.096437 118.436279 8.431428 L 122.143089 8.431428 L 122.143089 9.237256 L 117.483505 9.237256 Z"/>
        <path id="3v" fill="#414757" fill-rule="evenodd" stroke="none" d="M 180.633652 5.6373 C 180.630554 5.63643 180.627457 5.635581 180.624344 5.634732 L 180.633652 5.6373 Z M 180.633652 5.6373 C 180.986282 5.735974 181.262054 5.923941 181.460983 6.201181 C 181.661652 6.480851 181.761993 6.822913 181.761993 7.227427 C 181.761993 7.875249 181.548676 8.402967 181.12207 8.810641 C 180.69545 9.218295 180.090286 9.422122 179.30658 9.422122 C 178.503891 9.422122 177.921661 9.201705 177.55983 8.76087 C 177.197998 8.320015 177.01709 7.783606 177.01709 7.151584 L 177.908234 7.151584 C 177.946152 7.590839 178.02832 7.91001 178.154724 8.109097 C 178.375931 8.466189 178.775665 8.644735 179.353989 8.644735 C 179.802719 8.644735 180.162979 8.524652 180.434738 8.284483 C 180.706512 8.044295 180.842392 7.734624 180.842392 7.355411 C 180.842392 6.887695 180.699402 6.560644 180.413406 6.374197 C 180.127426 6.187751 179.730042 6.094528 179.221268 6.094528 C 179.164383 6.094528 179.106705 6.095318 179.048248 6.096898 C 178.989777 6.098478 178.930527 6.100848 178.870483 6.104008 L 178.870483 5.350322 C 178.958969 5.359802 179.033234 5.366123 179.093277 5.369283 C 179.15332 5.372443 179.218094 5.374023 179.287628 5.374023 C 179.606796 5.374023 179.86908 5.323461 180.074493 5.222338 C 180.434738 5.045372 180.614868 4.729361 180.614868 4.274305 C 180.614868 3.936153 180.494781 3.675464 180.254623 3.492178 C 180.01445 3.308892 179.734772 3.217248 179.415604 3.217248 C 178.846771 3.217248 178.453354 3.406836 178.235306 3.786068 C 178.115219 3.994635 178.047287 4.291666 178.031479 4.677219 L 177.187729 4.677219 C 177.187729 4.171582 177.288849 3.741827 177.491104 3.387895 C 177.838715 2.755853 178.45018 2.439862 179.325546 2.439862 C 180.017609 2.439862 180.553253 2.593897 180.932465 2.902028 C 181.311676 3.210138 181.501282 3.656484 181.501282 4.241124 C 181.501282 4.658258 181.389099 4.99637 181.164734 5.255519 C 181.025681 5.416665 180.845551 5.543069 180.624374 5.634712 L 180.633652 5.6373 Z M 183.2267 4.160541 L 184.582382 8.293963 L 185.999695 4.160541 L 186.933502 4.160541 L 185.018478 9.237256 L 184.108368 9.237256 L 182.236008 4.160541 L 183.2267 4.160541 Z"/>
        <path id="GND" fill="#414757" fill-rule="evenodd" stroke="none" d="M 229.244217 2.09383 C 229.898361 2.09383 230.464005 2.220215 230.941208 2.473042 C 231.63327 2.836455 232.056717 3.473197 232.211563 4.383329 L 231.277756 4.383329 C 231.163986 3.874531 230.928558 3.504028 230.571472 3.27176 C 230.214355 3.039473 229.764069 2.923358 229.22052 2.923358 C 228.575836 2.923358 228.033112 3.165087 227.59227 3.648603 C 227.151428 4.1321 226.93103 4.852585 226.93103 5.810118 C 226.93103 6.638066 227.112717 7.31194 227.476151 7.831798 C 227.839554 8.351635 228.432053 8.611554 229.253708 8.611554 C 229.882568 8.611554 230.403168 8.429058 230.815582 8.064066 C 231.227982 7.699053 231.438919 7.108923 231.448395 6.293614 L 229.267929 6.293614 L 229.267929 5.511487 L 232.325333 5.511487 L 232.325333 9.237256 L 231.718582 9.237256 L 231.491058 8.341365 C 231.171875 8.692137 230.889053 8.935466 230.642578 9.07135 C 230.228577 9.305199 229.702438 9.422122 229.064102 9.422122 C 228.239288 9.422122 227.529861 9.155093 226.93576 8.621035 C 226.287918 7.951072 225.964035 7.0315 225.964035 5.86226 C 225.964035 4.69616 226.280029 3.768688 226.912064 3.079784 C 227.512482 2.422462 228.289856 2.09383 229.244217 2.09383 Z M 233.785294 2.273956 L 234.899246 2.273956 L 238.416443 7.91475 L 238.416443 2.273956 L 239.312332 2.273956 L 239.312332 9.237256 L 238.25528 9.237256 L 234.685928 3.601202 L 234.685928 9.237256 L 233.785294 9.237256 L 233.785294 2.273956 Z M 243.469452 8.431428 C 243.78862 8.431428 244.050888 8.398247 244.256302 8.331884 C 244.622894 8.208641 244.92308 7.971632 245.156952 7.62086 C 245.343399 7.339591 245.477707 6.979358 245.559845 6.540103 C 245.607269 6.277794 245.630966 6.034486 245.630966 5.810118 C 245.630966 4.947388 245.459534 4.277465 245.116653 3.800289 C 244.773773 3.323092 244.221558 3.084524 243.459976 3.084524 L 241.786697 3.084524 L 241.786697 8.431428 L 243.469452 8.431428 Z M 240.838669 2.273956 L 243.659058 2.273956 C 244.616577 2.273956 245.359177 2.613648 245.886932 3.293091 C 246.357788 3.906152 246.593216 4.69142 246.593216 5.648952 C 246.593216 6.388418 246.454178 7.056761 246.176086 7.654041 C 245.686249 8.709517 244.844101 9.237256 243.649567 9.237256 L 240.838669 9.237256 L 240.838669 2.273956 Z"/>
    </g>
</svg>
