<?xml version="1.0" encoding="UTF-8" standalone="no"?>
<!DOCTYPE svg PUBLIC "-//W3C//DTD SVG 1.1//EN" "http://www.w3.org/Graphics/SVG/1.1/DTD/svg11.dtd">
<!-- Created with Vectornator (http://vectornator.io/) -->
<svg height="400.0pt" stroke-miterlimit="10" style="fill-rule:nonzero;clip-rule:evenodd;stroke-linecap:round;stroke-linejoin:round;" version="1.1" viewBox="0 0 800 400" width="800.0pt" xml:space="preserve" xmlns="http://www.w3.org/2000/svg" xmlns:xlink="http://www.w3.org/1999/xlink">
<defs>
<text font-family="AlimamaShuHeiTi" font-size="200" id="Fill" text-anchor="start" transform="matrix(1 0 0 1 214.031 61.9996)" x="0" y="0">
<tspan textLength="392.4" x="0" y="210"><![CDATA[http]]></tspan>
</text>
</defs>
<clipPath id="ArtboardFrame">
<rect height="400" width="800" x="0" y="0"/>
</clipPath>
<g clip-path="url(#ArtboardFrame)" id="g1">
<path d="M0 0L800 0L800 400L0 400L0 0Z" fill="#599eff" fill-rule="nonzero" opacity="1" stroke="none"/>
<path d="M-0.000114 200.001C-0.000114-20.9139 179.087-200.001 400.001-200.001C620.916-200.001 800.004-20.9139 800.004 200.001C800.004 420.916 620.916 600.003 400.001 600.003C179.087 600.003-0.000114 420.916-0.000114 200.001Z" fill="#3b8dff" fill-rule="nonzero" opacity="1" stroke="none"/>
<path d="M49.4765 200.001C49.4765 6.41135 206.412-150.524 400.001-150.524C593.592-150.524 750.527 6.41135 750.527 200.001C750.527 393.591 593.592 550.527 400.001 550.527C206.412 550.527 49.4765 393.591 49.4765 200.001Z" fill="#599eff" fill-rule="nonzero" opacity="1" stroke="none"/>
<path d="M99.5795 200.001C99.5795 34.0824 234.083-100.421 400.001-100.421C565.92-100.421 700.424 34.0824 700.424 200.001C700.424 365.92 565.92 500.424 400.001 500.424C234.083 500.424 99.5795 365.92 99.5795 200.001Z" fill="#3b8dff" fill-rule="nonzero" opacity="1" stroke="none"/>
<path d="M150.309 200.001C150.309 62.0995 262.1-49.692 400.001-49.692C537.904-49.692 649.695 62.0995 649.695 200.001C649.695 337.903 537.904 449.695 400.001 449.695C262.1 449.695 150.309 337.903 150.309 200.001Z" fill="#599eff" fill-rule="nonzero" opacity="1" stroke="none"/>
<path d="M199.472 200.001C199.472 89.2516 289.252-0.528473 400.001-0.528473C510.751-0.528473 600.531 89.2517 600.531 200.001C600.531 310.751 510.751 400.531 400.001 400.531C289.252 400.531 199.472 310.751 199.472 200.001Z" fill="#3b8dff" fill-rule="nonzero" opacity="1" stroke="none"/>
<path d="M250.515 200.001C250.515 117.442 317.443 50.5139 400.001 50.5139C482.561 50.5139 549.489 117.442 549.489 200.001C549.489 282.56 482.561 349.488 400.001 349.488C317.443 349.488 250.515 282.56 250.515 200.001Z" fill="#599eff" fill-rule="nonzero" opacity="1" stroke="none"/>
<path d="M299.679 200.001C299.679 144.593 344.595 99.6773 400.001 99.6773C455.409 99.6773 500.325 144.593 500.325 200.001C500.325 255.408 455.409 300.325 400.001 300.325C344.595 300.325 299.679 255.408 299.679 200.001Z" fill="#3b8dff" fill-rule="nonzero" opacity="1" stroke="none"/>
<path d="M349.989 200.001C349.989 172.38 372.381 149.989 400.001 149.989C427.623 149.989 450.013 172.38 450.013 200.001C450.013 227.621 427.623 250.013 400.001 250.013C372.381 250.013 349.989 227.621 349.989 200.001Z" fill="#599eff" fill-rule="nonzero" opacity="1" stroke="none"/>
</g>
<g id="无标题">
<g opacity="1">
<use fill="#ffffff" stroke="none" xlink:href="#Fill"/>
<mask height="1002" id="StrokeMask" maskUnits="userSpaceOnUse" width="1180.2" x="-175.869" y="-283">
<rect fill="#ffffff" height="1002" stroke="none" width="1180.2" x="-175.869" y="-283"/>
<use fill="#000000" fill-rule="evenodd" stroke="none" xlink:href="#Fill"/>
</mask>
<use fill="none" mask="url(#StrokeMask)" stroke="#000000" stroke-linecap="round" stroke-linejoin="round" stroke-opacity="0.149055" stroke-width="16" xlink:href="#Fill"/>
</g>
</g>
</svg>
